<svg xmlns="http://www.w3.org/2000/svg" width="256" height="256" viewBox="0 0 256 256">
<g>
<path d="M 103.08 239.43 C106.19,240.28 111.91,240.82 116.50,240.70 L 124.50 240.50 L 125.03 191.00 L 118.21 191.00 C111.82,191.00 111.24,191.19 109.22,193.91 C106.16,198.06 101.18,199.52 96.61,197.61 C92.75,196.00 89.01,190.88 89.00,187.20 C88.99,181.48 94.62,176.00 100.50,176.00 C104.07,176.00 108.37,178.38 110.40,181.50 C111.98,183.89 112.58,184.07 118.30,183.80 L 124.50 183.50 L 125.05 147.00 L 61.20 147.00 L 57.76 150.44 C53.25,154.95 50.07,155.69 45.35,153.35 C40.20,150.79 37.42,145.29 38.94,140.67 C42.11,131.08 54.19,129.25 59.61,137.53 L 61.25 140.03 L 92.87 139.76 L 124.50 139.50 L 125.05 107.00 L 66.74 107.00 L 62.87 110.50 C56.98,115.82 50.27,115.00 45.95,108.43 C43.62,104.91 43.49,101.89 45.49,98.01 C47.64,93.85 50.82,92.00 55.80,92.00 C59.54,92.00 60.74,92.57 64.28,96.04 C68.22,99.90 68.66,100.07 73.95,99.79 L 79.50 99.50 L 79.80 92.11 C80.09,84.92 80.01,84.66 76.98,82.11 C73.04,78.81 71.84,72.41 74.43,68.47 C76.49,65.33 81.74,62.01 84.67,62.00 C87.77,62.00 92.72,65.08 93.95,67.79 C94.53,69.06 95.00,71.92 95.00,74.15 C95.00,77.45 94.35,78.85 91.46,81.74 C87.99,85.21 87.92,85.43 88.21,92.39 L 88.50 99.50 L 124.50 99.50 L 125.04 52.00 L 121.05 52.00 C118.10,52.00 116.79,52.51 116.01,53.99 C115.42,55.08 113.63,56.66 112.02,57.49 C103.44,61.93 93.66,54.97 95.40,45.68 C96.33,40.71 99.98,37.80 106.00,37.23 C110.91,36.75 111.19,36.87 114.95,40.94 C118.04,44.30 119.41,45.08 121.67,44.82 L 124.50 44.50 L 125.05 16.08 L 116.88 15.79 C108.29,15.48 105.94,14.20 107.33,10.58 C107.92,9.04 110.58,8.92 138.24,9.20 L 168.50 9.50 L 176.27 13.21 C184.41,17.09 193.38,24.64 197.19,30.81 C198.37,32.72 200.35,36.77 201.59,39.82 L 203.84 45.35 L 211.72 47.92 C231.64,54.43 246.31,68.79 253.18,88.50 L 255.97 96.50 L 255.99 48.25 L 256.00 0.00 L 256.00 256.00 L 255.93 188.75 C255.86,123.33 255.81,121.66 254.13,127.50 C251.42,136.91 246.11,145.85 238.40,154.00 C231.57,161.21 231.27,161.73 230.68,167.50 C228.42,189.52 211.47,207.98 190.32,211.46 C186.26,212.13 186.10,212.30 185.07,217.11 C182.70,228.14 174.03,238.89 163.19,244.23 L 156.54 247.50 L 101.50 247.50 L 94.82 244.34 C91.15,242.59 86.09,239.28 83.58,236.97 C78.91,232.66 72.01,220.56 71.98,216.62 C71.96,213.14 70.70,212.13 64.96,210.93 C45.16,206.81 29.89,190.23 26.81,169.50 L 25.62 161.50 L 18.48 153.84 C10.73,145.54 5.18,135.68 2.56,125.60 C1.72,122.35 0.80,119.47 0.52,119.18 C0.23,118.90 0.00,149.57 0.00,187.33 L 0.00 50.67 C0.00,78.53 0.18,101.15 0.39,100.92 C0.61,100.69 1.52,97.57 2.43,94.00 C5.83,80.52 13.11,68.78 23.53,59.97 C29.85,54.63 40.99,48.79 48.41,46.92 C52.75,45.83 53.38,45.29 55.17,41.11 C59.45,31.12 60.62,29.29 66.48,23.38 C75.16,14.63 90.41,7.54 95.12,10.06 C97.66,11.42 95.49,17.00 92.42,17.00 C88.06,17.00 79.34,21.69 73.47,27.18 C66.99,33.24 61.00,43.02 61.00,47.54 C61.00,50.71 58.77,52.16 50.77,54.19 C34.96,58.21 21.23,69.44 14.09,84.21 C8.99,94.76 7.65,101.13 8.26,111.90 C9.23,128.84 16.59,143.73 28.87,153.58 L 33.76 157.50 L 34.20 166.00 C34.55,172.81 35.22,175.68 37.57,180.44 C44.02,193.51 56.45,202.63 69.33,203.74 C72.72,204.03 76.01,204.66 76.63,205.15 C77.24,205.64 78.04,207.94 78.40,210.27 C80.71,225.23 89.63,235.77 103.08,239.43 ZM 137.50 240.26 C148.24,241.84 156.91,239.79 164.66,233.85 C167.50,231.67 170.10,229.35 170.43,228.69 C170.75,228.04 171.92,226.15 173.01,224.50 C175.83,220.25 178.00,215.37 178.00,213.26 C178.00,211.94 176.00,210.70 170.49,208.60 C160.97,204.96 154.00,198.88 154.00,194.20 C154.00,191.61 154.48,190.92 156.65,190.37 C158.91,189.81 159.89,190.38 163.40,194.29 C169.74,201.37 174.78,203.50 185.00,203.44 C191.73,203.40 194.33,202.94 197.50,201.23 C199.70,200.05 202.87,198.42 204.55,197.61 C208.72,195.60 216.13,187.45 218.78,181.97 C226.63,165.71 223.40,147.91 209.80,132.42 C208.17,130.57 206.99,128.26 207.18,127.28 C207.69,124.61 212.14,124.54 215.44,127.13 C219.39,130.24 225.66,140.25 227.68,146.67 C228.62,149.62 229.86,151.89 230.44,151.70 C231.02,151.51 233.62,148.73 236.20,145.54 C241.12,139.46 247.34,125.25 248.59,117.27 C249.45,111.74 251.34,110.09 254.02,112.52 C255.98,114.29 256.00,114.22 256.00,107.15 C256.00,100.23 255.93,100.03 254.00,101.23 C251.25,102.95 248.82,101.27 247.74,96.92 C246.90,93.52 245.72,90.60 241.70,82.00 C238.22,74.55 225.88,63.14 216.00,58.23 C204.95,52.73 204.37,52.76 203.78,58.93 C203.02,66.83 198.69,74.48 192.69,78.52 L 187.57 81.97 L 187.53 90.78 C187.51,97.48 187.08,100.23 185.73,102.29 C183.63,105.49 182.96,105.59 179.97,103.18 C177.89,101.49 177.82,101.08 178.99,97.54 C181.73,89.22 178.21,78.78 170.47,72.31 C165.01,67.75 164.70,64.67 169.67,64.19 C172.37,63.93 173.67,64.71 178.39,69.44 L 183.94 74.99 L 187.58 71.80 C191.24,68.59 195.44,60.83 196.27,55.77 C197.47,48.44 190.51,33.49 182.47,26.15 C173.90,18.32 168.59,16.68 150.12,16.21 C138.00,15.90 134.55,16.10 133.88,17.16 C132.74,18.97 132.78,165.10 133.93,166.91 C134.69,168.12 135.60,168.08 140.16,166.61 C143.10,165.66 147.06,164.12 148.96,163.19 C153.64,160.91 159.67,152.72 161.62,146.00 C163.83,138.39 164.39,137.50 167.00,137.50 C170.89,137.50 171.56,140.04 169.58,147.34 C165.83,161.18 153.03,172.98 138.47,176.01 L 133.00 177.14 L 133.02 207.32 C133.02,223.92 133.36,238.02 133.77,238.66 C134.17,239.30 135.86,240.02 137.50,240.26 ZM 82.20 76.80 C83.79,78.39 84.54,78.32 86.48,76.38 C88.40,74.45 88.14,72.12 85.83,70.67 C82.51,68.57 79.34,73.94 82.20,76.80 ZM 47.04 145.55 C47.70,146.35 48.81,147.00 49.50,147.00 C51.35,147.00 53.22,144.36 52.82,142.30 C52.58,141.05 51.57,140.50 49.50,140.50 C46.19,140.50 44.96,143.04 47.04,145.55 ZM 104.04 50.55 C104.70,51.35 105.81,52.00 106.50,52.00 C108.35,52.00 110.22,49.36 109.82,47.30 C109.58,46.05 108.57,45.50 106.50,45.50 C103.19,45.50 101.96,48.04 104.04,50.55 ZM 98.04 189.55 C98.70,190.35 99.81,191.00 100.50,191.00 C102.35,191.00 104.22,188.36 103.82,186.30 C103.58,185.05 102.57,184.50 100.50,184.50 C97.19,184.50 95.96,187.04 98.04,189.55 ZM 52.99 104.49 C54.79,106.66 57.43,105.97 57.82,103.24 C58.23,100.36 55.40,99.17 53.26,101.31 C51.93,102.64 51.89,103.16 52.99,104.49 Z" fill="rgb(9,2,3)"/>
<path d="M 0.00 50.67 L 0.00 49.00 C0.00,75.95 0.34,98.00 0.76,98.00 C1.07,98.00 1.63,96.75 2.18,94.96 C1.36,98.12 0.59,100.71 0.39,100.92 C0.18,101.15 0.00,78.53 0.00,50.67 ZM 28.48 56.31 C34.61,51.96 41.40,48.68 48.41,46.92 C42.67,48.36 34.71,52.18 28.48,56.31 ZM 2.93 92.12 C4.26,86.85 6.47,81.70 9.38,76.86 C6.63,81.59 4.46,86.71 2.93,92.12 Z" fill="rgb(197,192,191)"/>
<path d="M 103.08 239.43 C89.63,235.77 80.71,225.23 78.40,210.27 C78.04,207.94 77.24,205.64 76.63,205.15 C76.01,204.66 72.72,204.03 69.33,203.74 C69.12,203.72 68.90,203.70 68.69,203.67 C69.14,203.52 69.72,203.30 70.48,203.01 C72.38,202.28 74.02,202.40 76.47,203.42 C79.65,204.75 79.84,205.11 79.68,209.34 C79.55,212.63 80.11,214.66 81.75,216.88 C82.99,218.55 84.00,220.73 84.00,221.73 C84.00,223.71 88.60,231.00 89.85,231.00 C90.27,231.00 91.58,231.90 92.76,232.99 C93.94,234.09 97.28,235.83 100.20,236.86 C103.65,238.08 108.55,238.78 114.25,238.87 L 123.00 239.00 L 123.00 216.11 C123.00,198.69 122.70,193.11 121.75,192.79 C119.69,192.08 111.00,193.13 111.00,194.09 C111.00,194.58 109.16,196.14 106.91,197.56 C103.49,199.72 102.13,200.03 98.66,199.45 C92.53,198.44 89.35,196.46 88.11,192.88 C86.58,188.50 86.72,185.46 88.62,181.70 C91.65,175.72 92.81,175.00 99.43,175.00 C104.81,175.00 105.95,175.36 108.77,177.94 C112.96,181.76 120.33,183.13 121.80,180.35 C122.34,179.33 122.86,172.77 122.94,165.76 C122.96,164.39 122.99,163.13 123.02,161.97 C123.15,156.85 123.23,153.75 121.75,151.87 C119.47,148.97 113.50,148.97 98.32,148.98 C96.10,148.98 93.67,148.98 91.03,148.97 C64.61,148.89 62.48,149.01 60.08,150.78 C51.22,157.33 42.21,157.94 40.83,152.08 C40.65,151.30 39.71,149.84 38.75,148.83 C34.91,144.81 38.14,133.04 43.66,130.94 C47.89,129.33 55.14,131.02 59.60,134.66 L 63.71 138.00 L 88.29 138.00 C103.67,138.00 113.11,137.62 113.50,137.00 C113.84,136.44 115.24,136.27 116.60,136.61 C118.26,137.03 119.73,136.65 121.04,135.46 C122.78,133.89 123.00,132.34 123.00,121.90 C123.00,115.10 122.58,109.86 122.00,109.50 C121.45,109.16 109.39,108.81 95.20,108.73 L 69.40 108.58 L 64.19 111.79 C60.18,114.26 57.83,115.00 54.07,115.00 C49.81,115.00 48.84,114.59 46.54,111.86 C45.08,110.13 44.12,108.14 44.39,107.42 C44.66,106.71 44.52,105.99 44.06,105.81 C43.61,105.64 42.92,103.21 42.55,100.42 C41.88,95.50 41.97,95.23 45.40,92.22 C48.44,89.55 49.46,89.20 52.72,89.71 C54.80,90.04 56.63,90.64 56.80,91.05 C56.96,91.46 57.92,91.57 58.92,91.31 C60.01,91.02 62.09,92.01 64.12,93.78 C68.30,97.43 71.18,98.38 75.59,97.55 C78.94,96.92 79.00,96.82 79.00,91.85 C79.00,87.63 78.58,86.46 76.48,84.81 C71.27,80.71 69.84,75.02 72.44,68.79 C74.34,64.24 75.57,63.39 81.39,62.54 C81.80,62.48 82.20,62.44 82.59,62.40 C79.70,63.38 76.06,65.98 74.43,68.47 C71.84,72.41 73.04,78.81 76.98,82.11 C80.01,84.66 80.09,84.92 79.80,92.11 L 79.50 99.50 L 73.95 99.79 C68.66,100.07 68.22,99.90 64.28,96.04 C60.74,92.57 59.54,92.00 55.80,92.00 C50.82,92.00 47.64,93.85 45.49,98.01 C43.49,101.89 43.62,104.91 45.95,108.43 C50.27,115.00 56.98,115.82 62.87,110.50 L 66.74 107.00 L 125.05 107.00 L 124.50 139.50 L 92.87 139.76 L 61.25 140.03 L 59.61 137.53 C54.19,129.25 42.11,131.08 38.94,140.67 C37.42,145.29 40.20,150.79 45.35,153.35 C50.07,155.69 53.25,154.95 57.76,150.44 L 61.20 147.00 L 125.05 147.00 L 124.50 183.50 L 118.30 183.80 C112.58,184.07 111.98,183.89 110.40,181.50 C108.37,178.38 104.07,176.00 100.50,176.00 C94.62,176.00 88.99,181.48 89.00,187.20 C89.01,190.88 92.75,196.00 96.61,197.61 C101.18,199.52 106.16,198.06 109.22,193.91 C111.24,191.19 111.82,191.00 118.21,191.00 L 125.03 191.00 L 124.50 240.50 L 116.50 240.70 C111.91,240.82 106.19,240.28 103.08,239.43 ZM 93.94 67.76 C94.32,68.32 94.68,68.92 95.04,69.57 C97.37,73.84 97.37,73.85 95.51,78.17 C94.48,80.55 92.59,83.33 91.32,84.33 C89.54,85.74 89.00,87.16 89.00,90.46 C89.00,92.82 89.56,95.21 90.25,95.77 C91.42,96.71 107.60,97.52 118.25,97.16 L 123.00 97.00 L 123.00 79.58 C123.00,66.63 122.68,62.02 121.75,61.58 C120.75,61.12 120.75,60.88 121.75,60.42 C123.51,59.59 123.32,54.34 121.50,53.64 C119.57,52.90 117.30,53.78 116.63,55.53 C116.02,57.12 108.84,61.00 106.50,61.00 C105.63,61.00 103.19,60.12 101.08,59.04 C98.97,57.97 96.89,57.40 96.46,57.79 C96.03,58.18 96.00,57.94 96.40,57.25 C96.82,56.52 96.06,55.03 94.56,53.64 C92.83,52.04 92.00,50.22 92.00,48.03 C92.00,45.12 92.81,43.67 98.02,37.29 C98.56,36.62 100.77,35.55 102.93,34.90 C106.36,33.87 107.36,33.98 110.77,35.76 C112.92,36.89 115.92,38.95 117.42,40.34 C118.93,41.74 120.80,42.63 121.58,42.33 C123.33,41.66 123.47,36.38 121.75,35.58 C120.75,35.12 120.75,34.88 121.75,34.42 C122.60,34.02 123.00,31.17 123.00,25.42 L 123.00 17.00 L 115.63 17.00 C109.78,17.00 107.75,16.59 105.73,15.00 C101.83,11.93 97.77,12.35 96.16,16.00 C94.98,18.66 94.35,19.00 90.54,19.00 C87.94,19.00 85.75,19.59 85.00,20.50 C84.32,21.33 83.34,22.00 82.83,22.00 C80.63,22.00 70.89,30.34 69.66,33.28 C68.92,35.05 67.57,37.12 66.65,37.87 C65.74,38.63 65.00,40.26 65.00,41.50 C65.00,42.74 64.32,44.32 63.50,45.00 C62.67,45.68 62.00,47.28 62.00,48.55 C62.00,51.78 59.42,54.00 55.68,54.00 C53.93,54.01 51.03,54.91 49.23,56.00 C47.43,57.10 44.87,58.00 43.55,58.00 C42.23,58.00 39.82,59.12 38.18,60.50 C36.55,61.88 34.63,63.00 33.92,63.00 C32.28,63.00 20.00,75.58 20.00,77.26 C20.00,77.95 19.10,79.08 18.00,79.77 C16.90,80.45 16.00,81.73 16.00,82.60 C16.00,83.47 15.10,85.33 14.00,86.73 C12.90,88.13 11.98,90.67 11.96,92.38 C11.93,94.10 11.26,97.30 10.47,99.50 C7.36,108.13 9.45,124.21 14.98,134.25 C16.72,137.41 18.47,140.00 18.86,140.00 C19.25,140.00 20.34,141.31 21.29,142.92 C22.24,144.52 25.71,148.42 29.01,151.59 C34.57,156.93 35.00,157.67 35.00,161.79 C35.00,164.23 35.67,168.32 36.48,170.87 C37.30,173.41 38.19,176.69 38.47,178.14 C38.75,179.59 41.06,183.55 43.61,186.93 C49.17,194.34 57.41,200.00 62.61,200.00 C65.35,200.00 66.31,200.47 66.71,202.00 C66.89,202.69 67.00,203.17 67.15,203.47 C55.07,201.58 43.66,192.77 37.57,180.44 C35.22,175.68 34.55,172.81 34.20,166.00 L 33.76 157.50 L 28.87 153.58 C16.59,143.73 9.23,128.84 8.26,111.90 C7.65,101.13 8.99,94.76 14.09,84.21 C21.23,69.44 34.96,58.21 50.77,54.19 C58.77,52.16 61.00,50.71 61.00,47.54 C61.00,43.02 66.99,33.24 73.47,27.18 C79.34,21.69 88.06,17.00 92.42,17.00 C95.20,17.00 97.25,12.41 95.71,10.55 C98.80,12.54 106.60,12.48 107.38,10.45 C107.50,10.15 107.77,9.90 108.40,9.71 C107.73,9.93 107.47,10.22 107.33,10.58 C105.94,14.20 108.29,15.48 116.88,15.79 L 125.05 16.08 L 124.50 44.50 L 121.67 44.82 C119.41,45.08 118.04,44.30 114.95,40.94 C111.19,36.87 110.91,36.75 106.00,37.23 C99.98,37.80 96.33,40.71 95.40,45.68 C93.66,54.97 103.44,61.93 112.02,57.49 C113.63,56.66 115.42,55.08 116.01,53.99 C116.79,52.51 118.10,52.00 121.05,52.00 L 125.04 52.00 L 124.50 99.50 L 88.50 99.50 L 88.21 92.39 C87.92,85.43 87.99,85.21 91.46,81.74 C94.35,78.85 95.00,77.45 95.00,74.15 C95.00,71.92 94.53,69.06 93.95,67.79 C93.94,67.78 93.94,67.77 93.94,67.76 ZM 82.20 76.80 C79.34,73.94 82.51,68.57 85.83,70.67 C88.14,72.12 88.40,74.45 86.48,76.38 C84.54,78.32 83.79,78.39 82.20,76.80 ZM 47.04 145.55 C44.96,143.04 46.19,140.50 49.50,140.50 C51.57,140.50 52.58,141.05 52.82,142.30 C53.22,144.36 51.35,147.00 49.50,147.00 C48.81,147.00 47.70,146.35 47.04,145.55 ZM 104.04 50.55 C101.96,48.04 103.19,45.50 106.50,45.50 C108.57,45.50 109.58,46.05 109.82,47.30 C110.22,49.36 108.35,52.00 106.50,52.00 C105.81,52.00 104.70,51.35 104.04,50.55 ZM 98.04 189.55 C95.96,187.04 97.19,184.50 100.50,184.50 C102.57,184.50 103.58,185.05 103.82,186.30 C104.22,188.36 102.35,191.00 100.50,191.00 C99.81,191.00 98.70,190.35 98.04,189.55 ZM 82.57 75.11 C83.30,76.29 84.73,76.24 85.50,75.00 C86.58,73.26 84.98,71.77 83.42,73.06 C82.65,73.70 82.27,74.63 82.57,75.11 ZM 47.50 144.00 C48.55,145.69 50.00,145.11 50.00,143.00 C50.00,141.90 49.58,141.00 49.06,141.00 C47.72,141.00 46.77,142.82 47.50,144.00 ZM 104.25 47.75 C104.00,48.49 104.71,49.00 106.00,49.00 C107.29,49.00 108.00,48.49 107.75,47.75 C107.52,47.06 106.73,46.50 106.00,46.50 C105.27,46.50 104.48,47.06 104.25,47.75 ZM 86.56 10.76 C80.14,12.95 71.99,17.83 66.48,23.38 C72.29,17.53 80.21,12.78 86.56,10.76 ZM 89.93 63.83 C90.20,63.99 90.48,64.17 90.74,64.37 C90.48,64.18 90.20,64.00 89.93,63.83 Z" fill="rgb(226,103,16)"/>
<path d="M 242.66 134.55 C240.59,138.94 238.28,142.97 236.20,145.54 C233.62,148.73 231.02,151.51 230.44,151.70 C229.86,151.89 228.62,149.62 227.68,146.67 C225.66,140.25 219.39,130.24 215.44,127.13 C212.14,124.54 207.69,124.61 207.18,127.28 C206.99,128.26 208.17,130.57 209.80,132.42 C211.35,134.19 212.76,135.98 214.04,137.80 C212.30,135.57 210.18,133.78 207.93,132.82 C203.32,130.86 202.24,128.80 204.04,125.43 C205.06,123.52 206.14,123.00 209.09,123.00 C213.69,123.00 216.00,123.82 216.00,125.45 C216.00,126.13 216.90,127.50 218.00,128.50 C219.10,129.50 220.00,130.67 220.00,131.10 C220.00,131.54 221.18,133.16 222.62,134.70 C226.47,138.81 228.26,141.79 228.39,144.29 C228.46,145.73 229.23,146.60 230.61,146.80 C232.21,147.03 233.52,145.87 235.94,142.09 C237.71,139.34 239.93,136.84 240.87,136.54 C241.43,136.36 242.05,135.63 242.66,134.55 ZM 170.17 144.94 C171.35,139.47 170.43,137.50 167.00,137.50 C164.39,137.50 163.83,138.39 161.62,146.00 C159.67,152.72 153.64,160.91 148.96,163.19 C147.54,163.89 144.97,164.92 142.54,165.79 C147.49,163.92 150.00,162.42 150.00,161.35 C150.00,160.61 150.41,160.00 150.90,160.00 C151.40,160.00 152.26,158.69 152.82,157.08 C153.38,155.48 155.11,152.73 156.67,150.99 C158.23,149.24 159.54,147.52 159.59,147.15 C159.63,146.79 159.93,145.82 160.25,145.00 C160.57,144.18 161.13,142.15 161.50,140.51 C162.84,134.44 166.56,133.15 169.56,137.73 C171.05,140.00 171.23,140.63 170.17,144.94 ZM 173.68 65.20 C172.23,64.22 171.16,64.05 169.67,64.19 C164.70,64.67 165.01,67.75 170.47,72.31 C176.85,77.65 180.37,85.68 179.86,93.00 C179.79,92.58 179.57,92.36 179.21,92.24 C178.55,92.02 178.00,90.86 177.99,89.67 C177.98,85.21 175.93,80.11 173.90,79.47 C172.52,79.03 172.06,78.29 172.48,77.19 C172.82,76.29 172.80,75.86 172.43,76.24 C171.43,77.24 164.00,69.13 164.00,67.04 C164.00,66.05 164.61,64.74 165.36,64.12 C166.88,62.85 171.70,63.57 173.68,65.20 ZM 222.92 161.90 C223.29,168.67 221.93,175.44 218.78,181.97 C216.13,187.45 208.72,195.60 204.55,197.61 C203.98,197.88 203.25,198.25 202.44,198.66 C204.55,197.27 206.09,195.77 206.43,194.43 C206.72,193.28 208.08,191.83 209.46,191.20 C211.02,190.49 211.75,189.52 211.41,188.61 C211.04,187.66 212.03,186.61 214.29,185.53 C217.25,184.13 217.68,183.49 217.38,180.89 C217.12,178.69 217.72,177.19 219.60,175.31 C221.75,173.16 222.27,171.53 222.73,165.37 C222.83,164.01 222.90,162.86 222.92,161.90 ZM 158.03 17.57 C155.74,16.91 152.68,16.45 149.50,16.19 C149.70,16.20 149.91,16.20 150.12,16.21 C168.59,16.68 173.90,18.32 182.47,26.15 C183.23,26.84 183.98,27.60 184.71,28.42 C183.15,26.91 181.65,26.00 180.36,26.00 C179.12,26.00 177.46,25.07 176.66,23.93 C175.75,22.62 173.04,21.35 169.36,20.50 C166.13,19.75 161.04,18.44 158.03,17.57 ZM 159.92 202.81 C162.72,204.99 166.37,207.02 170.49,208.60 C176.00,210.70 178.00,211.94 178.00,213.26 C178.00,214.71 176.98,217.46 175.43,220.42 C175.33,220.25 175.13,220.08 174.84,219.90 C173.85,219.29 173.89,218.57 175.02,216.46 C176.35,213.98 176.28,213.64 174.12,211.89 C172.83,210.85 171.14,210.00 170.37,210.00 C169.24,210.00 164.00,206.22 159.92,202.81 ZM 162.75 235.22 C157.11,239.01 150.96,240.83 143.87,240.77 C144.66,240.67 145.00,240.42 145.00,240.00 C145.00,239.45 146.32,239.00 147.93,239.00 C149.54,239.00 151.53,238.32 152.36,237.50 C153.24,236.62 155.68,236.00 158.29,236.00 C160.24,236.00 161.47,235.88 162.75,235.22 ZM 182.82 70.12 L 186.05 73.14 L 183.94 74.99 L 178.39 69.44 C177.16,68.21 176.17,67.24 175.32,66.50 C175.96,66.81 176.71,67.00 177.37,67.00 C178.54,67.01 180.99,68.41 182.82,70.12 ZM 215.95 140.69 C219.47,146.40 221.68,152.32 222.56,158.27 C222.44,158.09 222.31,158.00 222.14,158.00 C221.51,158.00 221.00,157.36 221.00,156.58 C221.00,155.80 220.44,154.98 219.76,154.75 C219.00,154.50 218.48,152.39 218.44,149.39 C218.40,146.50 217.46,143.43 215.95,140.69 ZM 135.20 176.69 L 138.47 176.01 C152.23,173.15 164.43,162.44 168.89,149.58 C167.99,152.36 166.88,154.98 166.10,156.04 C165.09,157.44 163.93,160.03 163.54,161.81 C162.92,164.65 159.51,167.63 156.26,168.17 C155.84,168.23 153.76,169.39 151.64,170.73 C147.29,173.48 142.29,175.38 136.75,176.40 ZM 247.40 95.65 C247.52,96.07 247.63,96.49 247.74,96.92 C248.76,101.04 250.99,102.76 253.56,101.48 C252.25,102.40 252.00,103.40 252.36,105.75 C252.64,107.54 252.45,109.00 251.94,109.00 C251.42,109.00 251.00,108.16 251.00,107.12 C251.00,106.09 250.32,104.68 249.49,103.99 C248.65,103.30 248.07,102.23 248.19,101.62 C248.36,100.71 247.97,98.10 247.40,95.65 ZM 207.89 56.60 C205.23,57.37 204.54,58.29 203.08,62.99 C203.41,61.65 203.65,60.29 203.78,58.93 C204.36,52.86 204.93,52.73 215.46,57.96 C212.43,56.62 209.77,56.06 207.89,56.60 ZM 250.52 111.98 C251.76,110.95 252.40,111.05 254.02,112.52 C251.34,110.09 249.45,111.74 248.59,117.27 C248.00,121.02 246.31,126.15 244.18,131.17 C245.41,127.79 246.32,123.59 246.13,120.88 C245.93,118.08 246.29,116.83 247.42,116.39 C248.29,116.06 249.00,115.21 249.00,114.52 C249.00,113.82 249.68,112.68 250.52,111.98 ZM 179.55 203.20 C172.76,202.48 168.50,199.98 163.40,194.29 C161.00,191.61 159.78,190.50 158.53,190.25 C159.78,190.50 161.00,191.61 163.40,194.28 C167.65,199.01 172.00,201.92 172.00,200.04 C172.00,198.13 175.06,198.97 177.69,201.60 C178.44,202.35 179.03,202.88 179.55,203.20 ZM 188.56 203.36 C187.51,203.41 186.34,203.43 185.00,203.44 C183.95,203.44 182.95,203.43 181.99,203.38 C182.21,203.31 182.45,203.21 182.70,203.09 C184.26,202.38 185.74,202.32 186.87,202.93 C187.32,203.17 187.89,203.31 188.56,203.36 ZM 133.95 166.96 C133.94,166.94 133.94,166.93 133.93,166.91 C133.42,166.12 133.13,137.37 133.06,105.26 C133.19,137.26 133.50,165.98 133.95,166.96 ZM 171.21 227.33 C170.85,227.93 170.56,228.42 170.43,228.69 C170.13,229.29 167.99,231.24 165.48,233.21 C166.17,232.60 166.94,231.85 167.86,230.94 C169.14,229.69 170.31,228.41 171.21,227.33 ZM 242.35 83.50 C240.60,79.65 237.47,75.47 233.75,71.58 C237.36,75.24 240.27,78.95 241.70,82.00 C242.94,84.65 243.90,86.76 244.68,88.51 C243.99,87.07 243.15,85.27 242.35,83.50 ZM 194.11 77.48 C197.02,75.14 199.45,71.93 201.17,68.31 C199.41,72.39 197.36,75.00 194.11,77.48 ZM 154.06 192.97 C154.02,193.32 154.00,193.73 154.00,194.20 C154.00,196.23 155.31,198.53 157.58,200.77 C156.26,199.57 155.29,198.55 154.98,197.96 C153.99,196.11 153.71,194.35 154.06,192.97 ZM 174.61 221.91 C174.11,222.78 173.58,223.65 173.01,224.50 L 173.00 224.52 C173.03,223.79 173.72,222.65 174.55,221.96 C174.57,221.94 174.59,221.92 174.61,221.91 ZM 138.59 16.13 C136.25,16.34 134.49,16.72 133.84,17.27 C133.86,17.22 133.87,17.18 133.88,17.16 C134.25,16.57 135.49,16.25 138.59,16.13 ZM 197.17 201.41 C195.51,202.26 193.97,202.78 191.83,203.08 C193.51,202.75 195.36,202.15 197.17,201.41 ZM 193.69 42.90 C195.74,47.80 196.80,52.53 196.27,55.77 C196.80,52.54 195.65,47.73 193.69,42.90 ZM 196.27 55.77 C195.87,58.18 194.72,61.19 193.22,64.04 C194.69,61.12 195.91,57.96 196.27,55.77 ZM 179.48 95.74 C179.34,96.35 179.18,96.95 178.99,97.54 C178.89,97.84 178.80,98.11 178.72,98.37 C178.83,97.97 178.96,97.53 179.11,97.03 C179.25,96.56 179.37,96.13 179.48,95.74 Z" fill="rgb(208,101,141)"/>
<path d="M 137.50 240.26 C135.86,240.02 134.17,239.30 133.77,238.66 C133.36,238.02 133.02,223.92 133.02,207.32 L 133.00 177.14 L 135.20 176.69 L 136.75 176.40 C142.29,175.38 147.29,173.48 151.64,170.73 C153.76,169.39 155.84,168.23 156.26,168.17 C159.51,167.63 162.92,164.65 163.54,161.81 C163.93,160.03 165.09,157.44 166.10,156.04 C166.88,154.98 167.99,152.36 168.89,149.58 C169.15,148.84 169.38,148.10 169.58,147.34 C169.81,146.48 170.01,145.68 170.17,144.94 C171.23,140.63 171.05,140.00 169.56,137.73 C166.56,133.15 162.84,134.44 161.50,140.51 C161.13,142.15 160.57,144.18 160.25,145.00 C159.93,145.82 159.63,146.79 159.59,147.15 C159.54,147.52 158.23,149.24 156.67,150.99 C155.11,152.73 153.38,155.48 152.82,157.08 C152.26,158.69 151.40,160.00 150.90,160.00 C150.41,160.00 150.00,160.61 150.00,161.35 C150.00,162.42 147.49,163.92 142.54,165.79 C141.71,166.09 140.90,166.37 140.16,166.61 C135.66,168.06 134.71,168.12 133.95,166.96 C133.50,165.98 133.19,137.26 133.06,105.27 L 133.06 105.26 C132.97,65.23 133.23,20.00 133.84,17.27 C134.49,16.72 136.25,16.34 138.59,16.13 C140.97,16.04 144.45,16.07 149.50,16.19 C152.68,16.45 155.74,16.91 158.03,17.57 C161.04,18.44 166.13,19.75 169.36,20.50 C173.04,21.35 175.75,22.62 176.66,23.93 C177.46,25.07 179.12,26.00 180.36,26.00 C181.65,26.00 183.15,26.91 184.71,28.42 C188.32,32.43 191.54,37.76 193.69,42.90 C195.65,47.73 196.80,52.54 196.27,55.77 C195.87,58.18 194.72,61.19 193.22,64.04 C191.57,67.18 189.50,70.11 187.58,71.80 L 186.05 73.14 L 182.82 70.12 C180.99,68.41 178.54,67.01 177.37,67.00 C176.71,67.00 175.96,66.81 175.32,66.50 C174.70,65.96 174.17,65.54 173.68,65.20 C171.70,63.57 166.88,62.85 165.36,64.12 C164.61,64.74 164.00,66.05 164.00,67.04 C164.00,69.13 171.43,77.24 172.43,76.24 C172.80,75.86 172.82,76.29 172.48,77.19 C172.06,78.29 172.52,79.03 173.90,79.47 C175.93,80.11 177.98,85.21 177.99,89.67 C178.00,90.86 178.55,92.02 179.21,92.24 C179.57,92.36 179.79,92.58 179.86,93.00 C179.80,93.93 179.67,94.85 179.48,95.74 C179.37,96.13 179.25,96.56 179.11,97.03 C178.96,97.53 178.83,97.97 178.72,98.37 C177.84,101.16 178.06,101.63 179.97,103.18 C182.96,105.59 183.63,105.49 185.73,102.29 C187.08,100.23 187.51,97.48 187.53,90.78 L 187.57 81.97 L 192.69 78.52 C193.18,78.19 193.65,77.85 194.11,77.48 C197.36,75.00 199.41,72.39 201.17,68.31 C201.97,66.61 202.62,64.82 203.08,62.99 C204.54,58.29 205.23,57.37 207.89,56.60 C209.77,56.06 212.43,56.62 215.46,57.96 C215.64,58.05 215.82,58.14 216.00,58.23 C221.84,61.13 228.53,66.30 233.75,71.58 C237.47,75.47 240.60,79.65 242.35,83.50 C243.15,85.27 243.99,87.07 244.68,88.51 C246.10,91.73 246.86,93.73 247.40,95.65 C247.97,98.10 248.36,100.71 248.19,101.62 C248.07,102.23 248.65,103.30 249.49,103.99 C250.32,104.68 251.00,106.09 251.00,107.12 C251.00,108.16 251.42,109.00 251.94,109.00 C252.23,109.00 252.42,108.53 252.47,107.80 C252.77,109.80 253.39,111.76 253.98,112.47 L 254.00 112.50 C252.39,111.05 251.76,110.96 250.52,111.98 C249.68,112.68 249.00,113.82 249.00,114.52 C249.00,115.21 248.29,116.06 247.42,116.39 C246.29,116.83 245.93,118.08 246.13,120.88 C246.32,123.59 245.41,127.79 244.18,131.17 C243.69,132.31 243.19,133.44 242.66,134.55 C242.05,135.63 241.43,136.36 240.87,136.54 C239.93,136.84 237.71,139.34 235.94,142.09 C233.52,145.87 232.21,147.03 230.61,146.80 C229.23,146.60 228.46,145.73 228.39,144.29 C228.26,141.79 226.47,138.81 222.62,134.70 C221.18,133.16 220.00,131.54 220.00,131.10 C220.00,130.67 219.10,129.50 218.00,128.50 C216.90,127.50 216.00,126.13 216.00,125.45 C216.00,123.82 213.69,123.00 209.09,123.00 C206.14,123.00 205.06,123.52 204.04,125.43 C202.24,128.80 203.32,130.86 207.93,132.82 C210.18,133.78 212.30,135.57 214.04,137.80 C214.71,138.76 215.35,139.72 215.95,140.69 C217.46,143.43 218.40,146.50 218.44,149.39 C218.48,152.39 219.00,154.50 219.76,154.75 C220.44,154.98 221.00,155.80 221.00,156.58 C221.00,157.36 221.51,158.00 222.14,158.00 C222.31,158.00 222.44,158.09 222.56,158.27 C222.73,159.48 222.86,160.69 222.92,161.90 C222.90,162.86 222.83,164.01 222.73,165.37 C222.27,171.53 221.75,173.16 219.60,175.31 C217.72,177.19 217.12,178.69 217.38,180.89 C217.68,183.49 217.25,184.13 214.29,185.53 C212.03,186.61 211.04,187.66 211.41,188.61 C211.75,189.52 211.02,190.49 209.46,191.20 C208.08,191.83 206.72,193.28 206.43,194.43 C206.09,195.77 204.55,197.27 202.44,198.66 C200.85,199.46 198.96,200.45 197.50,201.23 C197.39,201.29 197.28,201.35 197.17,201.41 C195.36,202.15 193.51,202.75 191.83,203.08 C190.88,203.21 189.81,203.30 188.56,203.36 C187.89,203.31 187.32,203.17 186.87,202.93 C185.74,202.32 184.26,202.38 182.70,203.09 C182.45,203.21 182.21,203.31 181.99,203.38 C181.14,203.35 180.33,203.29 179.55,203.20 C179.03,202.88 178.44,202.35 177.69,201.60 C175.06,198.97 172.00,198.13 172.00,200.04 C172.00,201.92 167.65,199.01 163.40,194.28 C161.00,191.61 159.78,190.50 158.53,190.25 C157.95,190.13 157.36,190.19 156.65,190.37 C154.88,190.82 154.23,191.37 154.06,192.97 C153.71,194.35 153.99,196.11 154.98,197.96 C155.29,198.55 156.26,199.57 157.58,200.77 C158.27,201.46 159.05,202.14 159.92,202.81 C164.00,206.22 169.24,210.00 170.37,210.00 C171.14,210.00 172.83,210.85 174.12,211.89 C176.28,213.64 176.35,213.98 175.02,216.46 C173.89,218.57 173.85,219.29 174.84,219.90 C175.13,220.08 175.33,220.25 175.43,220.42 C175.17,220.91 174.90,221.41 174.61,221.91 C174.59,221.92 174.57,221.94 174.55,221.96 C173.72,222.65 173.03,223.79 173.00,224.52 C172.37,225.47 171.71,226.50 171.21,227.33 C170.31,228.41 169.14,229.69 167.86,230.94 C166.94,231.85 166.17,232.60 165.48,233.21 C165.21,233.42 164.94,233.64 164.66,233.85 C164.03,234.33 163.40,234.79 162.75,235.22 C161.47,235.88 160.24,236.00 158.29,236.00 C155.68,236.00 153.24,236.62 152.36,237.50 C151.53,238.32 149.54,239.00 147.93,239.00 C146.32,239.00 145.00,239.45 145.00,240.00 C145.00,240.42 144.66,240.67 143.87,240.77 C141.83,240.76 139.71,240.58 137.50,240.26 ZM 252.25 104.89 C252.08,103.14 252.42,102.28 253.56,101.48 C253.70,101.41 253.84,101.33 253.99,101.24 C252.71,102.04 252.25,102.88 252.25,104.89 ZM 255.83 112.81 C255.93,111.58 256.00,109.50 256.00,107.15 C256.00,110.21 256.00,111.96 255.83,112.81 Z" fill="rgb(221,99,144)"/>
<path d="M 93.94 67.76 C93.40,66.60 92.19,65.38 90.74,64.37 L 90.74 64.37 C90.48,64.17 90.20,63.99 89.93,63.83 C88.17,62.75 86.19,62.00 84.67,62.00 C84.06,62.00 83.35,62.15 82.59,62.40 C82.20,62.44 81.80,62.48 81.39,62.54 C75.57,63.39 74.34,64.24 72.44,68.79 C69.84,75.02 71.27,80.71 76.48,84.81 C78.58,86.46 79.00,87.63 79.00,91.85 C79.00,96.82 78.94,96.92 75.59,97.55 C71.18,98.38 68.30,97.43 64.12,93.78 C62.09,92.01 60.01,91.02 58.92,91.31 C57.92,91.57 56.96,91.46 56.80,91.05 C56.63,90.64 54.80,90.04 52.72,89.71 C49.46,89.20 48.44,89.55 45.40,92.22 C41.97,95.23 41.88,95.50 42.55,100.42 C42.92,103.21 43.61,105.64 44.06,105.81 C44.52,105.99 44.66,106.71 44.39,107.42 C44.12,108.14 45.08,110.13 46.54,111.86 C48.84,114.59 49.81,115.00 54.07,115.00 C57.83,115.00 60.18,114.26 64.19,111.79 L 69.40 108.58 L 95.20 108.73 C109.39,108.81 121.45,109.16 122.00,109.50 C122.58,109.86 123.00,115.10 123.00,121.90 C123.00,132.34 122.78,133.89 121.04,135.46 C119.73,136.65 118.26,137.03 116.60,136.61 C115.24,136.27 113.84,136.44 113.50,137.00 C113.11,137.62 103.67,138.00 88.29,138.00 L 63.71 138.00 L 59.60 134.66 C55.14,131.02 47.89,129.33 43.66,130.94 C38.14,133.04 34.91,144.81 38.75,148.83 C39.71,149.84 40.65,151.30 40.83,152.08 C42.21,157.94 51.22,157.33 60.08,150.78 C62.48,149.01 64.61,148.89 91.03,148.97 C93.67,148.98 96.10,148.98 98.32,148.98 C113.50,148.97 119.47,148.97 121.75,151.87 C123.23,153.75 123.15,156.85 123.02,161.97 C122.99,163.13 122.96,164.39 122.94,165.76 C122.86,172.77 122.34,179.33 121.80,180.35 C120.33,183.13 112.96,181.76 108.77,177.94 C105.95,175.36 104.81,175.00 99.43,175.00 C92.81,175.00 91.65,175.72 88.62,181.70 C86.72,185.46 86.58,188.50 88.11,192.88 C89.35,196.46 92.53,198.44 98.66,199.45 C102.13,200.03 103.49,199.72 106.91,197.56 C109.16,196.14 111.00,194.58 111.00,194.09 C111.00,193.13 119.69,192.08 121.75,192.79 C122.70,193.11 123.00,198.69 123.00,216.11 L 123.00 239.00 L 114.25 238.87 C108.55,238.78 103.65,238.08 100.20,236.86 C97.28,235.83 93.94,234.09 92.76,232.99 C91.58,231.90 90.27,231.00 89.85,231.00 C88.60,231.00 84.00,223.71 84.00,221.73 C84.00,220.73 82.99,218.55 81.75,216.88 C80.11,214.66 79.55,212.63 79.68,209.34 C79.84,205.11 79.65,204.75 76.47,203.42 C74.02,202.40 72.38,202.28 70.48,203.01 C69.72,203.30 69.14,203.52 68.69,203.67 C68.18,203.62 67.66,203.55 67.15,203.47 C67.00,203.17 66.89,202.69 66.71,202.00 C66.31,200.47 65.35,200.00 62.61,200.00 C57.41,200.00 49.17,194.34 43.61,186.93 C41.06,183.55 38.75,179.59 38.47,178.14 C38.19,176.69 37.30,173.41 36.48,170.87 C35.67,168.32 35.00,164.23 35.00,161.79 C35.00,157.67 34.57,156.93 29.01,151.59 C25.71,148.42 22.24,144.52 21.29,142.92 C20.34,141.31 19.25,140.00 18.86,140.00 C18.47,140.00 16.72,137.41 14.98,134.25 C9.45,124.21 7.36,108.13 10.47,99.50 C11.26,97.30 11.93,94.10 11.96,92.38 C11.98,90.67 12.90,88.13 14.00,86.73 C15.10,85.33 16.00,83.47 16.00,82.60 C16.00,81.73 16.90,80.45 18.00,79.77 C19.10,79.08 20.00,77.95 20.00,77.26 C20.00,75.58 32.28,63.00 33.92,63.00 C34.63,63.00 36.55,61.88 38.18,60.50 C39.82,59.12 42.23,58.00 43.55,58.00 C44.87,58.00 47.43,57.10 49.23,56.00 C51.03,54.91 53.93,54.01 55.68,54.00 C59.42,54.00 62.00,51.78 62.00,48.55 C62.00,47.28 62.67,45.68 63.50,45.00 C64.32,44.32 65.00,42.74 65.00,41.50 C65.00,40.26 65.74,38.63 66.65,37.87 C67.57,37.12 68.92,35.05 69.66,33.28 C70.89,30.34 80.63,22.00 82.83,22.00 C83.34,22.00 84.32,21.33 85.00,20.50 C85.75,19.59 87.94,19.00 90.54,19.00 C94.35,19.00 94.98,18.66 96.16,16.00 C97.77,12.35 101.83,11.93 105.73,15.00 C107.75,16.59 109.78,17.00 115.63,17.00 L 123.00 17.00 L 123.00 25.42 C123.00,31.17 122.60,34.02 121.75,34.42 C120.75,34.88 120.75,35.12 121.75,35.58 C123.47,36.38 123.33,41.66 121.58,42.33 C120.80,42.63 118.93,41.74 117.42,40.34 C115.92,38.95 112.92,36.89 110.77,35.76 C107.36,33.98 106.36,33.87 102.93,34.90 C100.77,35.55 98.56,36.62 98.02,37.29 C92.81,43.67 92.00,45.12 92.00,48.03 C92.00,50.22 92.83,52.04 94.56,53.64 C96.06,55.03 96.82,56.52 96.40,57.25 C96.00,57.94 96.03,58.18 96.46,57.79 C96.89,57.40 98.97,57.97 101.08,59.04 C103.19,60.12 105.63,61.00 106.50,61.00 C108.84,61.00 116.02,57.12 116.63,55.53 C117.30,53.78 119.57,52.90 121.50,53.64 C123.32,54.34 123.51,59.59 121.75,60.42 C120.75,60.88 120.75,61.12 121.75,61.58 C122.68,62.02 123.00,66.63 123.00,79.58 L 123.00 97.00 L 118.25 97.16 C107.60,97.52 91.42,96.71 90.25,95.77 C89.56,95.21 89.00,92.82 89.00,90.46 C89.00,87.16 89.54,85.74 91.32,84.33 C92.59,83.33 94.48,80.55 95.51,78.17 C97.37,73.85 97.37,73.84 95.04,69.57 C94.68,68.92 94.32,68.32 93.94,67.76 ZM 52.99 104.49 C51.89,103.16 51.93,102.64 53.26,101.31 C55.40,99.17 58.23,100.36 57.82,103.24 C57.43,105.97 54.79,106.66 52.99,104.49 ZM 82.57 75.11 C82.27,74.63 82.65,73.70 83.42,73.06 C84.98,71.77 86.58,73.26 85.50,75.00 C84.73,76.24 83.30,76.29 82.57,75.11 ZM 47.50 144.00 C46.77,142.82 47.72,141.00 49.06,141.00 C49.58,141.00 50.00,141.90 50.00,143.00 C50.00,145.11 48.55,145.69 47.50,144.00 ZM 104.25 47.75 C104.48,47.06 105.27,46.50 106.00,46.50 C106.73,46.50 107.52,47.06 107.75,47.75 C108.00,48.49 107.29,49.00 106.00,49.00 C104.71,49.00 104.00,48.49 104.25,47.75 Z" fill="rgb(241,100,1)"/>
<path d="M 0.00 187.33 C0.00,149.57 0.23,118.90 0.52,119.18 C0.80,119.47 1.72,122.35 2.56,125.60 C5.18,135.68 10.73,145.54 18.48,153.84 L 25.62 161.50 L 26.81 169.50 C29.89,190.23 45.16,206.81 64.96,210.93 C70.70,212.13 71.96,213.14 71.98,216.62 C72.01,220.56 78.91,232.66 83.58,236.97 C86.09,239.28 91.15,242.59 94.82,244.34 L 101.50 247.50 L 129.02 247.50 L 156.54 247.50 L 163.19 244.23 C174.03,238.89 182.70,228.14 185.07,217.11 C186.10,212.30 186.26,212.13 190.32,211.46 C211.47,207.98 228.42,189.52 230.68,167.50 C231.27,161.73 231.57,161.21 238.40,154.00 C246.11,145.85 251.42,136.91 254.13,127.50 C255.81,121.66 255.86,123.33 255.93,188.75 L 256.00 256.00 L 128.00 256.00 L 0.00 256.00 L 0.00 187.33 ZM 253.98 112.47 C253.28,111.63 252.55,109.04 252.35,106.72 C252.06,103.33 252.38,102.24 253.99,101.24 C255.93,100.03 256.00,100.22 256.00,106.99 C256.00,110.85 255.83,114.00 255.62,114.00 C255.41,114.00 254.67,113.31 253.98,112.47 ZM 0.00 49.00 L 0.00 0.00 L 128.00 0.00 L 256.00 0.00 L 255.99 48.25 L 255.97 96.50 L 253.18 88.50 C246.31,68.79 231.64,54.43 211.72,47.92 L 203.84 45.35 L 201.59 39.82 C200.35,36.77 198.37,32.72 197.19,30.81 C193.38,24.64 184.41,17.09 176.27,13.21 L 168.50 9.50 L 138.24 9.20 C111.61,8.93 107.91,9.08 107.38,10.45 C106.60,12.49 98.76,12.54 95.69,10.53 C90.81,7.34 75.88,13.90 66.48,23.38 C60.62,29.29 59.45,31.12 55.17,41.11 C53.38,45.29 52.75,45.83 48.41,46.92 C27.06,52.29 7.78,71.67 2.76,92.80 C2.08,95.66 1.18,98.00 0.76,98.00 C0.34,98.00 0.00,75.95 0.00,49.00 Z" fill="rgb(254,254,254)"/>
</g>
</svg>