
<svg width="64" height="64" viewBox="0 0 64 64" xmlns="http://www.w3.org/2000/svg">
    <g fill-rule="nonzero" fill="none">
        <path d="M23.139.127c.795.299 1.331 1.084 1.417 1.949l.006.07.064.938.057.892c.126 1.943.218 2.936.402 4.031l.038.218.017-.01c.256-.163.537-.29.838-.375l.076-.02a3.15 3.15 0 0 1 1.982.14l.022.01.02-.035a4.44 4.44 0 0 1 3.83-2.343l.083-.001a4.44 4.44 0 0 1 3.914 2.344l.02.036.024-.01a3.15 3.15 0 0 1 1.908-.157l.078.019c.33.085.637.22.914.398l.01.007.001-.004.046-.263c.18-1.085.27-2.07.393-3.993l.026-.412.007-.1a565.464 565.464 0 0 1 .086-1.3c.064-.893.609-1.712 1.426-2.02.947-.355 1.955.05 2.746 1.058 1.431 1.843 2.278 4.25 2.555 6.775.235 2.143.022 4.167-.573 5.099-.08.122-.167.24-.26.354l-.043.052.035.028c.338.275.621.62.825 1.022l.035.071a3.15 3.15 0 0 1 .226 2.057l-.012.046.056.027a4.446 4.446 0 0 1 1.527 1.21l.01.013.043-.029a3.75 3.75 0 0 1 3.46-.318l.083.035a3.75 3.75 0 0 1 1.687 1.47l.042.07.053-.017a2.717 2.717 0 0 1 1.445-.064l.074.018c.19.05.372.118.542.204l.006.003.01-.069c.126-.783.195-1.544.284-2.912l.01-.138v-.02l.02-.303.007-.114a400.273 400.273 0 0 1 .069-1.032c.136-1.876 2.27-2.67 3.683-.879l.002.003c1.177 1.505 1.87 3.467 2.098 5.528.194 1.758.02 3.422-.486 4.218a3.8 3.8 0 0 1-.124.177l-.016.02.052.049c.215.206.398.45.538.724l.034.07a2.72 2.72 0 0 1 .226 1.62l-.008.041.01.005a3.756 3.756 0 0 1 1.977 2.755l.012.082a3.755 3.755 0 0 1-1.106 3.189l-.048.045.011.022c.313.614.39 1.34.18 2.03l-.023.071a2.723 2.723 0 0 1-1.89 1.77l-.018.005-.015.054a3.754 3.754 0 0 1-2.373 2.544l-.05.016.002.01c.41 2.158.91 5.776 1.501 10.72l.024.2c.157 1.42.313 2.87.536 4.993l.127 1.208.02.186a6709.01 6709.01 0 0 0 .378 3.587c.077.69.137 1.242.268 2.484a.97.97 0 0 1-1.044 1.068c-4.435-.364-9.289-.64-14.415-.817-.183-.006-9.486-.249-13.835-.249-4.42 0-8.775.07-12.99.208-.178.006-10.916.489-15.343.853a.97.97 0 0 1-1.045-1.055c.086-.936.164-1.723.246-2.483l.008-.076v-.002c0-.017 0-.034.002-.051l.005-.053.026-.244.205-1.85.06-.53.059-.532.06-.53.236-2.047.053-.452c.772-6.567 1.468-11.657 2-14.444l.017-.091-.053-.018a3.753 3.753 0 0 1-2.402-2.57l-.008-.03-.019-.005a2.723 2.723 0 0 1-1.866-1.702l-.024-.068a2.72 2.72 0 0 1 .157-2.1l.011-.022-.047-.046a3.756 3.756 0 0 1-1.117-3.105l.01-.083a3.756 3.756 0 0 1 1.99-2.838l.009-.005-.008-.042a2.72 2.72 0 0 1 .193-1.546l.034-.073a2.72 2.72 0 0 1 .572-.794l.051-.049-.022-.03a3.93 3.93 0 0 1-.064-.088l-.062-.091c-.498-.784-.673-2.448-.48-4.206.228-2.06.921-4.023 2.098-5.528.679-.867 1.571-1.227 2.42-.908.729.273 1.21.998 1.268 1.785a113.89 113.89 0 0 1 .09 1.375l.004.05.002.044c.093 1.447.164 2.24.29 3.04l.013.078.01-.006a2.72 2.72 0 0 1 .475-.184l.07-.02a2.72 2.72 0 0 1 1.523.052l.049.016.04-.068a3.747 3.747 0 0 1 1.54-1.405l.077-.037a3.748 3.748 0 0 1 3.567.22l.015.01.02-.023c.401-.479.902-.87 1.472-1.145l.056-.027-.011-.045a3.15 3.15 0 0 1 .19-1.98l.035-.076c.205-.432.5-.802.858-1.093l.053-.042-.054-.068a4.498 4.498 0 0 1-.194-.265l-.06-.092c-.593-.919-.809-2.946-.574-5.093.277-2.528 1.128-4.935 2.565-6.775.788-1.005 1.796-1.41 2.744-1.054z" fill="#FFF"/>
        <path d="M25.032 58.514c7.928 0 14.422-12.122 16.03-26.977a3.472 3.472 0 0 0 3.357-2.858c.033-.18.053-.361.058-.543h.102a2.182 2.182 0 0 0 1.336-3.998 3.472 3.472 0 0 0-.88-6.604 2.182 2.182 0 0 0-1.678-3.527 3.55 3.55 0 0 0 1.406-1.234c.815-1.277.946-7.03-1.94-10.744-1.194-1.525-2.363-.606-2.438.436-.225 3.188-.254 5.576-1.081 8.31a2.182 2.182 0 0 0-3.879-.998 3.47 3.47 0 0 0-6.868 0 2.182 2.182 0 0 0-3.879.989c-.826-2.727-.855-5.123-1.083-8.31-.073-1.043-1.241-1.962-2.437-.437-2.894 3.704-2.763 9.467-1.939 10.744.342.535.82.969 1.387 1.256a2.182 2.182 0 0 0-1.675 3.527 3.472 3.472 0 0 0-.88 6.604 2.182 2.182 0 0 0 1.343 3.993h.101c.005.176.024.35.056.523a3.467 3.467 0 0 0 3.409 2.87c-.97 4.16-2.44 16.066-3.637 26.968.068-.618.214-1.239.282-1.862 1.728 1.212 3.503 1.872 5.427 1.872z" fill="#4E4A99"/>
        <path d="M32.034 61.551c4.424 0 8.727.07 12.814.201-.106-1.008-.216-2.03-.327-3.064-.439-4.058-.875-8.383-1.324-12.439-.775-6.501-1.537-12.12-2.135-14.712-1.608 14.865-8.102 26.977-16.03 26.977-1.924 0-3.697-.66-5.415-1.87-.068.624-.214 1.244-.282 1.862a213.72 213.72 0 0 0-.322 3.254c4.16-.136 8.524-.209 13.02-.209z" fill="#3E3978"/>
        <path d="M18.632 29.054a3.152 3.152 0 0 1-1.697-.97c-.455.098-.902.23-1.338.396a3.964 3.964 0 0 1-2.814 0 10.548 10.548 0 0 0-3.45-.63 15.013 15.013 0 0 0-4.768.603v1.51a.892.892 0 0 0 .164.352c.181.258.339.53.47.817.243.662.393 1.353.629 2.014A1.876 1.876 0 0 0 7.4 34.47c.897.13 1.802.188 2.708.175a3.215 3.215 0 0 0 1.505-.388 14.766 14.766 0 0 1 1.096-3.152c.705-1.399 1.83-1.454 2.592 0 .46.92.81 1.89 1.044 2.892.273.225.594.383.939.463 1.177.287 2.404.3 3.587.04.19-.04.375-.1.553-.178a66.89 66.89 0 0 1 .359-1.985 4.432 4.432 0 0 1-3.152-3.283z" fill="#4E4A99"/>
        <path d="M17.602 40.24a17.59 17.59 0 0 0-.485-2.91c-.279-1.11-.485-2.222-.756-3.313a13.217 13.217 0 0 0-1.045-2.892c-.761-1.455-1.886-1.4-2.591 0a14.766 14.766 0 0 0-1.096 3.151c-.243 1.011-.449 2.034-.706 3.062a17.59 17.59 0 0 0-.485 2.909c-.12 1.515.87 2.822 2.114 2.822h2.926c1.249-.007 2.245-1.314 2.124-2.83zm-3.13-3.612c0 .664 0 1.326-.063 1.978-.065.8-.099 1.595-.223 2.342-.087.526-.228.55-.322 0-.126-.742-.158-1.542-.223-2.342a19.854 19.854 0 0 1-.063-1.978c-.868-.23-1.556-1.11-1.758-2.24a4.453 4.453 0 0 0 4.41 0c-.201 1.13-.89 2.01-1.758 2.24z" fill="#FFF"/>
        <path d="M11.82 34.388c.202 1.13.89 2.01 1.758 2.24 0 .664 0 1.326.063 1.978.065.8.097 1.6.223 2.342.094.55.242.526.322 0 .124-.747.158-1.542.223-2.342.056-.652.073-1.314.063-1.978.868-.23 1.557-1.11 1.758-2.24a4.453 4.453 0 0 1-4.41 0z" fill="#F39319"/>
        <path d="M45.333 29.054a4.448 4.448 0 0 1-3.11 3.283c.102.516.208 1.112.32 1.782.261.198.57.324.897.363.896.13 1.802.188 2.708.175a3.215 3.215 0 0 0 1.505-.388 14.766 14.766 0 0 1 1.096-3.152c.703-1.398 1.83-1.454 2.589 0 .461.92.813 1.89 1.047 2.892.273.225.594.384.938.463 1.178.287 2.405.3 3.588.04a2.14 2.14 0 0 0 1.717-1.49c.206-.608.385-1.211.55-1.844.094-.352.136-.708.533-.882.075-.034.124-.209.126-.32.015-.502 0-1.002 0-1.603-.97-.157-1.922-.368-2.885-.453-1.806-.165-3.597-.095-5.333.565a3.964 3.964 0 0 1-2.814 0 10.507 10.507 0 0 0-1.731-.466 3.152 3.152 0 0 1-1.741 1.035z" fill="#4E4A99"/>
        <path d="M53.62 40.24a17.59 17.59 0 0 0-.486-2.91c-.279-1.11-.485-2.222-.756-3.313a13.09 13.09 0 0 0-1.047-2.892c-.76-1.455-1.886-1.4-2.59 0a14.766 14.766 0 0 0-1.095 3.151c-.243 1.011-.449 2.034-.706 3.062a17.59 17.59 0 0 0-.485 2.909c-.12 1.515.868 2.822 2.114 2.822h2.926c1.254-.007 2.245-1.314 2.124-2.83zm-3.13-3.612c0 .664 0 1.326-.064 1.978-.065.8-.099 1.595-.223 2.342-.087.526-.228.55-.322 0-.126-.742-.158-1.542-.223-2.342a19.152 19.152 0 0 1-.063-1.978c-.868-.23-1.557-1.11-1.758-2.24a4.453 4.453 0 0 0 4.41 0c-.201 1.13-.89 2.01-1.758 2.24z" fill="#FFF"/>
        <path d="M47.837 34.388c.201 1.13.89 2.01 1.758 2.24-.013.66.008 1.32.063 1.978.065.8.097 1.6.223 2.342.094.55.242.526.322 0 .124-.747.158-1.542.223-2.342.054-.652.073-1.314.063-1.978.868-.23 1.557-1.11 1.758-2.24a4.453 4.453 0 0 1-4.41 0zM57.323 38.356c.485 2.083 1.091 6.584 1.712 11.799-.543-4.921-1.096-9.353-1.712-11.799z" fill="#F39319"/>
        <path d="M20.2 19.205a18.63 18.63 0 0 1 5.948-.76 13.11 13.11 0 0 1 4.3.786c1.13.43 2.38.43 3.51 0 2.163-.82 4.393-.909 6.648-.703 1.197.107 2.38.369 3.595.565v1.998c0 .14-.063.358-.16.4-.485.218-.546.661-.662 1.1a37.377 37.377 0 0 1-.686 2.298 2.667 2.667 0 0 1-2.14 1.857 9.847 9.847 0 0 1-4.473-.048 2.61 2.61 0 0 1-1.83-1.428c-.461-.95-.902-1.908-1.404-2.836a1.016 1.016 0 0 0-.672-.502c-.194-.015-.485.276-.603.5a17.265 17.265 0 0 0-.99 2.074c-.613 1.6-1.818 2.376-3.456 2.425a21.3 21.3 0 0 1-3.377-.219 2.335 2.335 0 0 1-1.964-1.648c-.291-.827-.485-1.697-.78-2.512a6.844 6.844 0 0 0-.587-1.02 1.072 1.072 0 0 1-.206-.436c-.025-.614-.01-1.22-.01-1.891z" fill="#F8AB13"/>
        <path d="M35.845 30.257c-.665-2.638-.97-5.288-2.248-7.736-.948-1.82-2.351-1.745-3.229 0-1.239 2.465-1.583 5.09-2.247 7.736a21.922 21.922 0 0 0-.599 3.636c-.15 1.889 1.084 3.518 2.638 3.518h3.636c1.552 0 2.788-1.63 2.638-3.518a22.18 22.18 0 0 0-.59-3.636z" fill="#FFF"/>
        <path d="M34.732 26.589a5.559 5.559 0 0 1-5.498 0c.242 1.408 1.11 2.507 2.181 2.79-.015.824.01 1.649.078 2.47.082.994.121 1.993.279 2.91.119.686.293.657.402 0 .153-.931.197-1.925.279-2.91.068-.812.09-1.638.078-2.47 1.09-.283 1.949-1.382 2.2-2.79z" fill="#4E4A99"/>
        <path d="M8.453 59.992c4.849 0 9.038-5.665 11.319-13.65.538-4.364 1.132-8.798 1.673-12a2.839 2.839 0 0 1-.553.177 7.935 7.935 0 0 1-3.588-.04 2.29 2.29 0 0 1-.938-.462c.276 1.09.485 2.203.756 3.314.243.954.405 1.927.485 2.909.121 1.515-.87 2.822-2.114 2.822h-2.93c-1.245 0-2.236-1.307-2.115-2.822.08-.982.242-1.955.485-2.91.257-1.027.456-2.05.705-3.061-.462.25-.979.384-1.505.388a17.212 17.212 0 0 1-2.708-.175 1.876 1.876 0 0 1-1.573-1.323c-.243-.662-.393-1.353-.628-2.015a5.227 5.227 0 0 0-.47-.817.892.892 0 0 1-.165-.351c-.02-.485 0-.97 0-1.51a15.013 15.013 0 0 1 4.768-.604c1.177.016 2.343.229 3.45.63a3.964 3.964 0 0 0 2.815 0 9.137 9.137 0 0 1 1.338-.395 3.152 3.152 0 0 1-.386-3.755 4.456 4.456 0 0 1-1.064-5.385 2.778 2.778 0 0 0-4.223 1.964 1.753 1.753 0 0 0-3.115.795c-.662-2.182-.684-4.121-.866-6.667-.06-.836-.998-1.573-1.956-.349-2.322 2.97-2.216 7.59-1.564 8.616.28.425.67.767 1.128.99a1.753 1.753 0 0 0-1.346 2.828 2.785 2.785 0 0 0-.703 5.297 1.753 1.753 0 0 0 1.072 3.205h.08a2.785 2.785 0 0 0 2.77 2.722c-.77 3.336-1.956 12.885-2.909 21.627.054-.485.17-.994.226-1.493 1.384.97 2.805 1.5 4.349 1.5z" fill="#F8AB13"/>
        <path d="M18.373 58.4c.308-2.822.822-7.39 1.399-12.058-2.281 7.985-6.466 13.65-11.319 13.65-1.544 0-2.965-.53-4.344-1.5-.056.5-.172.999-.226 1.493-.097.89-.181 1.765-.261 2.63 4.385-.36 9.236-.642 14.414-.824.102-1.108.211-2.245.337-3.391z" fill="#F39319"/>
        <path d="M57.323 38.356a2.783 2.783 0 0 0 2.694-2.29c.025-.145.04-.29.046-.437h.08a1.753 1.753 0 0 0 1.071-3.205 2.785 2.785 0 0 0-.703-5.297 1.753 1.753 0 0 0-1.345-2.83 2.83 2.83 0 0 0 1.127-.988c.652-1.026.756-5.646-1.566-8.616-.955-1.212-1.893-.485-1.954.35-.182 2.554-.204 4.477-.868 6.666a1.75 1.75 0 0 0-3.105-.803 2.78 2.78 0 0 0-4.315-1.895c.89 1.819.442 4.01-1.091 5.333.7 1.169.57 2.655-.323 3.685.59.105 1.168.261 1.731.465a3.964 3.964 0 0 0 2.815 0c1.733-.66 3.525-.727 5.333-.565.97.085 1.91.296 2.885.454v1.602c0 .112-.051.286-.126.32-.398.175-.439.531-.534.883-.164.62-.344 1.236-.55 1.844a2.14 2.14 0 0 1-1.716 1.489 7.935 7.935 0 0 1-3.588-.039 2.29 2.29 0 0 1-.938-.463c.276 1.091.485 2.204.756 3.314.243.955.405 1.928.485 2.91.121 1.514-.87 2.821-2.114 2.821h-2.93c-1.247 0-2.236-1.307-2.115-2.822.08-.981.242-1.954.485-2.909.257-1.028.456-2.05.705-3.062-.462.25-.979.384-1.505.388a17.185 17.185 0 0 1-2.708-.174 1.845 1.845 0 0 1-.897-.364c.742 4.48 1.721 12.42 3.02 24.465.047.42.093.849.139 1.285 5.784-1.159 10.414-10.37 11.62-21.515z" fill="#F8AB13"/>
        <path d="M60.097 60.143c-.35-3.254-.7-6.723-1.062-9.976-.62-5.215-1.232-9.716-1.712-11.799C56.111 49.52 51.488 58.732 45.7 59.881l.204 1.92c5.195.18 10.058.458 14.46.82-.087-.827-.174-1.654-.266-2.478z" fill="#F39319"/>
    </g>
</svg>
