<svg version="1.1" xmlns="http://www.w3.org/2000/svg" viewBox="0 0 240 240" width="100%" height="100%">
  <!-- Left accent line and cap -->
  <rect x="5" y="116" width="6" height="8" fill="#F3F4F6" />
  <line x1="11" y1="120" x2="25" y2="120" stroke="#F3F4F6" stroke-width="4" />

  <!-- Bold M Shape -->
  <polygon points="25,90 35,90 50,115 65,90 75,90 75,150 65,150 65,115 50,135 35,115 35,150 25,150" fill="#F3F4F6" />

  <!-- Orange Circle with white X -->
  <circle cx="105" cy="120" r="32" fill="#E58B12" stroke="#FFFFFF" stroke-width="3" />
  <polygon points="91,102 98,102 105,113 112,102 119,102 110,120 119,138 112,138 105,127 98,138 91,138 100,120" fill="#FFFFFF" />

  <!-- Underline and right cap -->
  <line x1="136" y1="148" x2="230" y2="148" stroke="#F3F4F6" stroke-width="4" />
  <rect x="230" y="144" width="6" height="8" fill="#F3F4F6" />

  <!-- TOOLBOX Text -->
  <text x="138" y="140" font-family="'Arial Black', sans-serif" font-size="20" font-weight="900" fill="#F3F4F6" letter-spacing="0.5">TOOLBOX</text>
</svg>
