<?xml version="1.0" encoding="UTF-8"?>
<svg version="1.1" xmlns="http://www.w3.org/2000/svg" width="200" height="200">
<path d="M0 0 C66 0 132 0 200 0 C200 66 200 132 200 200 C134 200 68 200 0 200 C0 134 0 68 0 0 Z " fill="#F0F1F1" transform="translate(0,0)"/>
<path d="M0 0 C3.68881485 3.53156519 6.77382244 7.18534092 9.8125 11.3125 C10.42254883 12.13717773 10.42254883 12.13717773 11.04492188 12.97851562 C12.03368611 14.31625547 13.01738585 15.65773623 14 17 C9.5160728 23.92666365 4.69432409 30.46873894 -0.5012207 36.87646484 C-3.56582248 40.69629596 -6.31839757 44.3968856 -8.62890625 48.72265625 C-13.53283147 57.43643776 -13.53283147 57.43643776 -18 60 C-26.85220472 61.90325825 -36.0715802 60.99077642 -45 60 C-42.20379907 54.81274839 -39.05855448 50.34965416 -35.3125 45.8125 C-34.22908349 44.47898885 -33.1470629 43.14434242 -32.06640625 41.80859375 C-31.27580811 40.83188721 -31.27580811 40.83188721 -30.46923828 39.83544922 C-27.76864744 36.46173005 -25.20545491 32.98814464 -22.62890625 29.51953125 C-19.0208244 24.67103347 -15.34994225 19.86996846 -11.6875 15.0625 C-10.64577637 13.69327393 -10.64577637 13.69327393 -9.58300781 12.29638672 C-6.43216273 8.16138123 -3.27766306 4.03599127 0 0 Z " fill="#4B0B9F" transform="translate(70,103)"/>
<path d="M0 0 C1.89105469 0.05414063 1.89105469 0.05414063 3.8203125 0.109375 C6.92499216 0.2034562 10.02342636 0.33478608 13.125 0.5 C11.39575869 4.10774546 9.28353565 7.02894216 6.8125 10.1875 C5.90200142 11.35780666 4.99186275 12.52839341 4.08203125 13.69921875 C3.59943848 14.31845215 3.1168457 14.93768555 2.61962891 15.57568359 C0.06121794 18.86960637 -2.46829619 22.18553589 -5 25.5 C-5.80014526 26.54498657 -5.80014526 26.54498657 -6.61645508 27.61108398 C-9.78791309 31.75559771 -12.94328534 35.91171928 -16.0859375 40.078125 C-16.79862793 41.02042969 -17.51131836 41.96273437 -18.24560547 42.93359375 C-19.635825 44.77234318 -21.02301075 46.6133914 -22.40673828 48.45703125 C-25.6728039 52.77116885 -28.9112647 56.81067715 -32.875 60.5 C-34.48254096 58.44005539 -36.0860805 56.37719524 -37.6875 54.3125 C-38.13931641 53.73435547 -38.59113281 53.15621094 -39.05664062 52.56054688 C-41.56681166 49.31747919 -43.84743389 46.07686912 -45.875 42.5 C-45.51374023 42.03851563 -45.15248047 41.57703125 -44.78027344 41.1015625 C-37.28774421 31.52172728 -29.86432535 21.89797242 -22.59375 12.1484375 C-22.13887207 11.56094727 -21.68399414 10.97345703 -21.21533203 10.36816406 C-19.81121544 8.49692739 -19.81121544 8.49692739 -18.68701172 6.28027344 C-14.21108258 -1.39614008 -8.19744594 -0.44402832 0 0 Z " fill="#4B0B9F" transform="translate(161.875,36.5)"/>
<path d="M0 0 C22.50623983 -2.67211723 22.50623983 -2.67211723 29.34521484 1.39453125 C33.31695563 5.17185116 35.93093903 9.80451323 38.56982422 14.56591797 C40.97893844 18.66610042 43.97960151 22.28732741 46.9375 26 C51.19665696 31.52427175 55.25262571 37.11126897 59 43 C54.71 48.61 50.42 54.22 46 60 C40.37091988 54.37091988 40.37091988 54.37091988 37.9765625 51.27734375 C37.43813721 50.58415039 36.89971191 49.89095703 36.3449707 49.17675781 C35.49358521 48.0683252 35.49358521 48.0683252 34.625 46.9375 C34.02067139 46.15600586 33.41634277 45.37451172 32.79370117 44.56933594 C27.60433187 37.83696481 22.50672649 31.03655264 17.42773438 24.22070312 C13.134206 18.47036112 8.75505671 12.79850827 4.2355957 7.22363281 C2.29580378 4.80274842 0.99161179 2.97483536 0 0 Z " fill="#4B0B9F" transform="translate(25,37)"/>
<path d="M0 0 C5.62908012 5.62908012 5.62908012 5.62908012 8.0234375 8.72265625 C8.56178223 9.41568848 9.10012695 10.1087207 9.65478516 10.82275391 C10.22245605 11.56187012 10.79012695 12.30098633 11.375 13.0625 C12.28258057 14.2369165 12.28258057 14.2369165 13.20849609 15.43505859 C19.61655943 23.75253715 25.90710672 32.15789053 32.18505859 40.57373047 C33.98730291 42.98302614 35.79858264 45.38523098 37.61328125 47.78515625 C38.17515137 48.52942871 38.73702148 49.27370117 39.31591797 50.04052734 C40.37437672 51.44192546 41.43452297 52.84205108 42.49658203 54.24072266 C46 58.8880145 46 58.8880145 46 60 C23.49376017 62.67211723 23.49376017 62.67211723 16.65478516 58.60546875 C12.68304437 54.82814884 10.06906097 50.19548677 7.43017578 45.43408203 C5.02106156 41.33389958 2.02039849 37.71267259 -0.9375 34 C-5.19665696 28.47572825 -9.25262571 22.88873103 -13 17 C-6.565 8.585 -6.565 8.585 0 0 Z " fill="#4B0A9F" transform="translate(129,103)"/>
<path d="M0 0 C4.41351093 1.47117031 6.10136065 4.60078582 8.8125 8.25 C9.34037109 8.91902344 9.86824219 9.58804688 10.41210938 10.27734375 C14.1066208 15.2325646 14.1066208 15.2325646 13.64453125 18.55859375 C11.49918452 21.74349091 9.26643813 24.80813025 6.875 27.8125 C6.17310547 28.7087207 6.17310547 28.7087207 5.45703125 29.62304688 C4.30994435 31.08616792 3.15568766 32.54366297 2 34 C-2.41351093 32.52882969 -4.10136065 29.39921418 -6.8125 25.75 C-7.34037109 25.08097656 -7.86824219 24.41195312 -8.41210938 23.72265625 C-12.1066208 18.7674354 -12.1066208 18.7674354 -11.64453125 15.44140625 C-9.49918452 12.25650909 -7.26643813 9.19186975 -4.875 6.1875 C-4.40707031 5.59001953 -3.93914062 4.99253906 -3.45703125 4.37695312 C-2.30994435 2.91383208 -1.15568766 1.45633703 0 0 Z " fill="#FE7D0E" transform="translate(99,83)"/>
</svg>
