<svg xmlns="http://www.w3.org/2000/svg" xmlns:xlink="http://www.w3.org/1999/xlink" version="1.1" width="256" height="256" viewBox="0 0 256 256" xml:space="preserve">
<g style="stroke: none; stroke-width: 0; stroke-dasharray: none; stroke-linecap: butt; stroke-linejoin: miter; stroke-miterlimit: 10; fill: none; fill-rule: nonzero; opacity: 1;" transform="translate(1.4065934065934016 1.4065934065934016) scale(2.81 2.81)">
	<path d="M 21.656 42.479 c -0.906 -0.002 -1.784 0.314 -2.48 0.893 V 42.57 h -2.262 v 8.812 h 2.353 v -5.634 c 0.512 -0.666 1.296 -1.066 2.136 -1.091 c 0.321 -0.016 0.642 0.032 0.944 0.142 v -2.26 C 22.119 42.5 21.888 42.479 21.656 42.479" style="stroke: none; stroke-width: 1; stroke-dasharray: none; stroke-linecap: butt; stroke-linejoin: miter; stroke-miterlimit: 10; fill: rgb(0,0,0); fill-rule: evenodd; opacity: 1;" transform=" matrix(1 0 0 1 0 0) " stroke-linecap="round"/>
	<path d="M 1.14 48.693 c 0.672 0.568 1.525 0.877 2.405 0.872 c 0.633 0 1.122 -0.309 1.122 -0.745 c 0 -1.327 -4.253 -0.854 -4.253 -3.689 c 0 -1.689 1.629 -2.743 3.366 -2.743 c 1.055 0.003 2.086 0.313 2.968 0.893 l -1.101 1.705 c -0.486 -0.369 -1.074 -0.578 -1.683 -0.599 c -0.651 0 -1.195 0.254 -1.195 0.708 c 0 1.145 4.254 0.69 4.254 3.743 c 0 1.69 -1.649 2.725 -3.494 2.725 C 2.259 51.551 1.024 51.139 0 50.386 L 1.14 48.693 z" style="stroke: none; stroke-width: 1; stroke-dasharray: none; stroke-linecap: butt; stroke-linejoin: miter; stroke-miterlimit: 10; fill: rgb(0,0,0); fill-rule: evenodd; opacity: 1;" transform=" matrix(1 0 0 1 0 0) " stroke-linecap="round"/>
	<path d="M 15.909 46.894 c 0 -2.453 -1.718 -4.505 -4.145 -4.505 c -2.607 0 -4.272 2.144 -4.272 4.597 c -0.103 2.426 1.781 4.476 4.207 4.579 c 0.131 0.006 0.262 0.005 0.393 -0.001 c 1.373 0.018 2.686 -0.558 3.602 -1.58 l -1.34 -1.345 c -0.567 0.625 -1.364 0.993 -2.208 1.017 c -1.218 0.04 -2.257 -0.874 -2.373 -2.087 h 6.082 C 15.893 47.346 15.911 47.12 15.909 46.894 z M 9.881 45.841 c 0.174 -0.901 0.965 -1.55 1.882 -1.544 c 0.887 0.001 1.633 0.664 1.738 1.544 H 9.881 z" style="stroke: none; stroke-width: 1; stroke-dasharray: none; stroke-linecap: butt; stroke-linejoin: miter; stroke-miterlimit: 10; fill: rgb(0,0,0); fill-rule: evenodd; opacity: 1;" transform=" matrix(1 0 0 1 0 0) " stroke-linecap="round"/>
	<polygon points="27.95,47.95 30.36,42.57 32.81,42.57 28.77,51.38 27.14,51.38 23.1,42.57 25.55,42.57 " style="stroke: none; stroke-width: 1; stroke-dasharray: none; stroke-linecap: butt; stroke-linejoin: miter; stroke-miterlimit: 10; fill: rgb(0,0,0); fill-rule: evenodd; opacity: 1;" transform="  matrix(1 0 0 1 0 0) "/>
	<path d="M 34.783 38.432 c 0.835 0.015 1.499 0.704 1.484 1.539 c -0.015 0.835 -0.704 1.499 -1.539 1.484 c -0.824 -0.015 -1.484 -0.687 -1.484 -1.511 c 0 -0.835 0.676 -1.512 1.511 -1.512 C 34.764 38.432 34.773 38.432 34.783 38.432" style="stroke: none; stroke-width: 1; stroke-dasharray: none; stroke-linecap: butt; stroke-linejoin: miter; stroke-miterlimit: 10; fill: rgb(0,0,0); fill-rule: evenodd; opacity: 1;" transform=" matrix(1 0 0 1 0 0) " stroke-linecap="round"/>
	<rect x="33.61" y="42.57" rx="0" ry="0" width="2.35" height="8.81" style="stroke: none; stroke-width: 1; stroke-dasharray: none; stroke-linecap: butt; stroke-linejoin: miter; stroke-miterlimit: 10; fill: rgb(0,0,0); fill-rule: nonzero; opacity: 1;" transform=" matrix(1 0 0 1 0 0) "/>
	<path d="M 45.687 49.583 c -0.905 1.294 -2.406 2.04 -3.985 1.981 c -2.534 0.064 -4.64 -1.938 -4.704 -4.472 c -0.064 -2.534 1.938 -4.64 4.472 -4.704 c 0.083 -0.002 0.167 -0.002 0.25 0 c 1.436 -0.011 2.798 0.639 3.693 1.762 l -1.665 1.472 c -0.471 -0.652 -1.223 -1.043 -2.027 -1.054 c -1.303 -0.005 -2.363 1.046 -2.368 2.349 c 0 0.023 0 0.045 0.001 0.068 c -0.042 1.283 0.964 2.357 2.247 2.399 c 0.06 0.002 0.119 0.002 0.179 -0.001 c 0.849 -0.017 1.635 -0.452 2.1 -1.162 L 45.687 49.583 z" style="stroke: none; stroke-width: 1; stroke-dasharray: none; stroke-linecap: butt; stroke-linejoin: miter; stroke-miterlimit: 10; fill: rgb(0,0,0); fill-rule: evenodd; opacity: 1;" transform=" matrix(1 0 0 1 0 0) " stroke-linecap="round"/>
	<path d="M 54.235 49.983 c -0.916 1.022 -2.23 1.598 -3.602 1.58 c -2.426 0.113 -4.484 -1.762 -4.597 -4.188 c -0.006 -0.13 -0.006 -0.261 -0.001 -0.391 c 0 -2.453 1.665 -4.597 4.272 -4.597 c 2.425 0 4.145 2.053 4.145 4.505 c 0.002 0.225 -0.017 0.45 -0.054 0.673 h -6.082 c 0.115 1.213 1.154 2.128 2.372 2.089 c 0.844 -0.025 1.641 -0.392 2.209 -1.017 L 54.235 49.983 z M 52.045 45.841 c -0.105 -0.88 -0.851 -1.543 -1.737 -1.544 c -0.917 -0.005 -1.708 0.644 -1.882 1.544 H 52.045 z" style="stroke: none; stroke-width: 1; stroke-dasharray: none; stroke-linecap: butt; stroke-linejoin: miter; stroke-miterlimit: 10; fill: rgb(0,0,0); fill-rule: evenodd; opacity: 1;" transform=" matrix(1 0 0 1 0 0) " stroke-linecap="round"/>
	<path d="M 55.388 51.382 V 42.57 h 2.262 v 0.708 c 0.697 -0.578 1.574 -0.893 2.479 -0.89 c 1.174 -0.003 2.289 0.516 3.041 1.417 c 0.677 0.882 1 1.984 0.905 3.092 v 4.485 h -2.353 V 46.71 c 0.067 -0.601 -0.124 -1.201 -0.525 -1.654 c -0.358 -0.332 -0.833 -0.508 -1.321 -0.491 c -0.839 0.025 -1.623 0.425 -2.136 1.09 v 5.726 H 55.388 z" style="stroke: none; stroke-width: 1; stroke-dasharray: none; stroke-linecap: butt; stroke-linejoin: miter; stroke-miterlimit: 10; fill: rgb(0,0,0); fill-rule: evenodd; opacity: 1;" transform=" matrix(1 0 0 1 0 0) " stroke-linecap="round"/>
	<path d="M 70.135 42.388 c -2.846 -0.006 -5.157 2.296 -5.163 5.142 c -0.003 1.421 0.581 2.78 1.614 3.756 c 0.364 0.346 0.926 0.375 1.323 0.069 c 1.304 -0.97 3.089 -0.97 4.393 0 c 0.402 0.308 0.968 0.275 1.331 -0.078 c 2.064 -1.959 2.15 -5.22 0.191 -7.284 c -0.961 -1.013 -2.292 -1.592 -3.688 -1.606 M 70.105 50.111 c -1.379 0.037 -2.528 -1.051 -2.565 -2.43 c -0.001 -0.045 -0.001 -0.09 0 -0.134 c 0 -1.417 1.149 -2.565 2.565 -2.565 s 2.565 1.149 2.565 2.565 c 0.037 1.38 -1.051 2.528 -2.431 2.565 C 70.195 50.112 70.15 50.112 70.105 50.111" style="stroke: none; stroke-width: 1; stroke-dasharray: none; stroke-linecap: butt; stroke-linejoin: miter; stroke-miterlimit: 10; fill: rgb(98,216,78); fill-rule: evenodd; opacity: 1;" transform=" matrix(1 0 0 1 0 0) " stroke-linecap="round"/>
	<polygon points="79.89,51.38 78.14,51.38 74.64,42.57 77,42.57 78.91,47.61 80.79,42.57 82.75,42.57 84.61,47.61 86.55,42.57 88.9,42.57 85.4,51.38 83.65,51.38 81.77,46.36 " style="stroke: none; stroke-width: 1; stroke-dasharray: none; stroke-linecap: butt; stroke-linejoin: miter; stroke-miterlimit: 10; fill: rgb(0,0,0); fill-rule: evenodd; opacity: 1;" transform="  matrix(1 0 0 1 0 0) "/>
	<path d="M 88.925 50.386 h -0.199 v 0.373 h -0.169 v -1.021 h 0.412 c 0.181 -0.001 0.328 0.145 0.328 0.326 c 0 0.001 0 0.002 0 0.003 c -0.001 0.131 -0.081 0.248 -0.203 0.297 l 0.232 0.398 h -0.184 L 88.925 50.386 z M 88.726 50.236 h 0.243 c 0.095 0 0.172 -0.077 0.172 -0.172 c 0 -0.095 -0.077 -0.172 -0.172 -0.172 h -0.241 L 88.726 50.236 z" style="stroke: none; stroke-width: 1; stroke-dasharray: none; stroke-linecap: butt; stroke-linejoin: miter; stroke-miterlimit: 10; fill: rgb(0,0,0); fill-rule: nonzero; opacity: 1;" transform=" matrix(1 0 0 1 0 0) " stroke-linecap="round"/>
	<path d="M 88.901 49.32 c 0.523 0 0.948 0.423 0.948 0.947 c 0 0.523 -0.423 0.948 -0.947 0.948 c -0.523 0 -0.948 -0.423 -0.948 -0.947 c 0 0 0 0 0 -0.001 C 87.955 49.745 88.378 49.321 88.901 49.32 M 88.901 49.17 c -0.607 0 -1.099 0.492 -1.099 1.099 c 0 0.607 0.492 1.099 1.099 1.099 c 0.607 0 1.099 -0.492 1.099 -1.099 S 89.508 49.17 88.901 49.17 L 88.901 49.17 z" style="stroke: none; stroke-width: 1; stroke-dasharray: none; stroke-linecap: butt; stroke-linejoin: miter; stroke-miterlimit: 10; fill: rgb(0,0,0); fill-rule: nonzero; opacity: 1;" transform=" matrix(1 0 0 1 0 0) " stroke-linecap="round"/>
</g>
</svg>