<svg version="1.1" xmlns="http://www.w3.org/2000/svg" width="280" height="280">
<path d="M0 0 C2.21907137 3.65935659 2.67244116 7.45995846 3.21875 11.625 C3.37386047 12.73911255 3.37386047 12.73911255 3.53210449 13.87573242 C3.86137739 16.24962968 4.18107291 18.62469277 4.5 21 C4.92442553 24.10453467 5.3526055 27.20854539 5.78125 30.3125 C5.93509155 31.43398438 5.93509155 31.43398438 6.09204102 32.578125 C6.94433023 38.7390555 7.92491645 44.87382558 9 51 C9.60360352 50.99476318 10.20720703 50.98952637 10.82910156 50.98413086 C32.32047033 50.8223106 32.32047033 50.8223106 43 52 C43.03665771 51.29141846 43.07331543 50.58283691 43.11108398 49.8527832 C43.7664569 39.51830577 45.39666513 29.39853968 47.0625 19.1875 C47.34748869 17.41609334 47.63199726 15.64460937 47.91601562 13.87304688 C48.60515455 9.58112136 49.30074956 5.29028922 50 1 C50.66 1 51.32 1 52 1 C59.12899944 13.79898271 66.04106666 26.61066874 72 40 C72.30196289 40.67659668 72.60392578 41.35319336 72.91503906 42.05029297 C78 53.50653991 78 53.50653991 78 56 C78.66644531 56.10957031 79.33289063 56.21914062 80.01953125 56.33203125 C80.94121094 56.49058594 81.86289063 56.64914063 82.8125 56.8125 C83.70582031 56.96332031 84.59914062 57.11414063 85.51953125 57.26953125 C88.63042234 57.92243432 91.65420529 58.70227392 94.7175293 59.5456543 C95.707061 59.81750046 96.69659271 60.08934662 97.71611023 60.36943054 C98.46979385 60.57751846 99.22347748 60.78560638 100 61 C100.44524077 77.07256686 100.77954085 93.14311454 100.98443127 109.22037029 C101.08212885 116.68686045 101.21510471 124.14950551 101.43334961 131.61352539 C101.62364919 138.12495382 101.74550692 144.63359832 101.7876814 151.14773017 C101.8123206 154.59400336 101.86947308 158.03231946 102.00887108 161.47601891 C102.76310126 182.42420095 102.76310126 182.42420095 98.1360817 188.41214371 C93.66049421 192.51581382 88.67673622 195.32880211 83.21087074 197.90914345 C80.32280363 199.33413265 77.84565554 201.14716953 75.3125 203.125 C70.93948889 206.34865049 66.48470812 209.43507646 62 212.5 C54.98439537 217.29730922 48.07847038 222.22669082 41.25585938 227.29589844 C39.38451595 228.68421971 37.50523713 230.06125659 35.625 231.4375 C35.04153809 231.87521729 34.45807617 232.31293457 33.85693359 232.76391602 C30.6494591 235.09851708 28.03715543 236.95359591 24 237 C21.67578125 235.8125 21.67578125 235.8125 19.3125 234 C17.99378906 233.01580078 17.99378906 233.01580078 16.6484375 232.01171875 C15.77445312 231.34785156 14.90046875 230.68398437 14 230 C12.48456161 228.92981928 10.96369053 227.86729038 9.4375 226.8125 C2.68977542 222.0890928 -4.03471643 217.33272031 -10.76220703 212.58056641 C-13.63905831 210.54862934 -16.51646115 208.51747459 -19.39404297 206.48657227 C-20.79300451 205.49906046 -22.19176901 204.51126948 -23.59033203 203.52319336 C-27.31507463 200.89215568 -31.04359163 198.26667729 -34.77734375 195.6484375 C-35.55722656 195.10058594 -36.33710937 194.55273438 -37.140625 193.98828125 C-38.64079788 192.9345884 -40.14205402 191.88243568 -41.64453125 190.83203125 C-42.65386719 190.12240234 -42.65386719 190.12240234 -43.68359375 189.3984375 C-44.27712646 188.98255371 -44.87065918 188.56666992 -45.48217773 188.13818359 C-47 187 -47 187 -49 185 C-49.24609566 182.83296776 -49.24609566 182.83296776 -49.24050903 180.0899353 C-49.24325836 179.05224503 -49.24600769 178.01455475 -49.24884033 176.94541931 C-49.24164978 175.80246902 -49.23445923 174.65951874 -49.22705078 173.48193359 C-49.22734283 172.28195236 -49.22763489 171.08197113 -49.22793579 169.84562683 C-49.22677912 166.55029814 -49.21673146 163.25521837 -49.20278788 159.95993376 C-49.19030657 156.51794381 -49.18911208 153.07595074 -49.18673706 149.63394165 C-49.18051462 143.11389656 -49.16409353 136.59391834 -49.14403808 130.07390273 C-49.12170279 122.65199971 -49.11069163 115.23009355 -49.10064721 107.80816531 C-49.07972792 92.53873811 -49.04453717 77.26937767 -49 62 C-44.58901036 60.07418986 -40.44682173 58.45057603 -35.75 57.3125 C-34.73421875 57.06113281 -33.7184375 56.80976562 -32.671875 56.55078125 C-30 56 -30 56 -27 56 C-26.62875 54.80375 -26.2575 53.6075 -25.875 52.375 C-19.63937284 33.86926777 -9.81247539 16.80180842 0 0 Z " fill="#39385B" transform="translate(114,19)"/>
<path d="M0 0 C2.21907137 3.65935659 2.67244116 7.45995846 3.21875 11.625 C3.37386047 12.73911255 3.37386047 12.73911255 3.53210449 13.87573242 C3.86137739 16.24962968 4.18107291 18.62469277 4.5 21 C4.92442553 24.10453467 5.3526055 27.20854539 5.78125 30.3125 C5.93509155 31.43398438 5.93509155 31.43398438 6.09204102 32.578125 C6.94433023 38.7390555 7.92491645 44.87382558 9 51 C9.60360352 50.99476318 10.20720703 50.98952637 10.82910156 50.98413086 C32.32047033 50.8223106 32.32047033 50.8223106 43 52 C43.03665771 51.29141846 43.07331543 50.58283691 43.11108398 49.8527832 C43.7664569 39.51830577 45.39666513 29.39853968 47.0625 19.1875 C47.34748869 17.41609334 47.63199726 15.64460937 47.91601562 13.87304688 C48.60515455 9.58112136 49.30074956 5.29028922 50 1 C50.66 1 51.32 1 52 1 C59.12899944 13.79898271 66.04106666 26.61066874 72 40 C72.30196289 40.67659668 72.60392578 41.35319336 72.91503906 42.05029297 C78 53.50653991 78 53.50653991 78 56 C78.66644531 56.10957031 79.33289063 56.21914062 80.01953125 56.33203125 C80.94121094 56.49058594 81.86289063 56.64914063 82.8125 56.8125 C83.70582031 56.96332031 84.59914062 57.11414063 85.51953125 57.26953125 C88.63042234 57.92243432 91.65420529 58.70227392 94.7175293 59.5456543 C95.707061 59.81750046 96.69659271 60.08934662 97.71611023 60.36943054 C98.46979385 60.57751846 99.22347748 60.78560638 100 61 C100.44524077 77.07256686 100.77954085 93.14311454 100.98443127 109.22037029 C101.08212885 116.68686045 101.21510471 124.14950551 101.43334961 131.61352539 C101.62364919 138.12495382 101.74550692 144.63359832 101.7876814 151.14773017 C101.8123206 154.59400336 101.86947308 158.03231946 102.00887108 161.47601891 C102.76310126 182.42420095 102.76310126 182.42420095 98.1360817 188.41214371 C93.66049421 192.51581382 88.67673622 195.32880211 83.21087074 197.90914345 C80.32280363 199.33413265 77.84565554 201.14716953 75.3125 203.125 C70.93948889 206.34865049 66.48470812 209.43507646 62 212.5 C54.98439537 217.29730922 48.07847038 222.22669082 41.25585938 227.29589844 C39.38451595 228.68421971 37.50523713 230.06125659 35.625 231.4375 C35.04153809 231.87521729 34.45807617 232.31293457 33.85693359 232.76391602 C30.6494591 235.09851708 28.03715543 236.95359591 24 237 C21.67578125 235.8125 21.67578125 235.8125 19.3125 234 C17.99378906 233.01580078 17.99378906 233.01580078 16.6484375 232.01171875 C15.77445312 231.34785156 14.90046875 230.68398437 14 230 C12.48456161 228.92981928 10.96369053 227.86729038 9.4375 226.8125 C2.68977542 222.0890928 -4.03471643 217.33272031 -10.76220703 212.58056641 C-13.63905831 210.54862934 -16.51646115 208.51747459 -19.39404297 206.48657227 C-20.79300451 205.49906046 -22.19176901 204.51126948 -23.59033203 203.52319336 C-27.31507463 200.89215568 -31.04359163 198.26667729 -34.77734375 195.6484375 C-35.55722656 195.10058594 -36.33710937 194.55273438 -37.140625 193.98828125 C-38.64079788 192.9345884 -40.14205402 191.88243568 -41.64453125 190.83203125 C-42.65386719 190.12240234 -42.65386719 190.12240234 -43.68359375 189.3984375 C-44.27712646 188.98255371 -44.87065918 188.56666992 -45.48217773 188.13818359 C-47 187 -47 187 -49 185 C-49.24609566 182.83296776 -49.24609566 182.83296776 -49.24050903 180.0899353 C-49.24325836 179.05224503 -49.24600769 178.01455475 -49.24884033 176.94541931 C-49.24164978 175.80246902 -49.23445923 174.65951874 -49.22705078 173.48193359 C-49.22734283 172.28195236 -49.22763489 171.08197113 -49.22793579 169.84562683 C-49.22677912 166.55029814 -49.21673146 163.25521837 -49.20278788 159.95993376 C-49.19030657 156.51794381 -49.18911208 153.07595074 -49.18673706 149.63394165 C-49.18051462 143.11389656 -49.16409353 136.59391834 -49.14403808 130.07390273 C-49.12170279 122.65199971 -49.11069163 115.23009355 -49.10064721 107.80816531 C-49.07972792 92.53873811 -49.04453717 77.26937767 -49 62 C-44.58901036 60.07418986 -40.44682173 58.45057603 -35.75 57.3125 C-34.73421875 57.06113281 -33.7184375 56.80976562 -32.671875 56.55078125 C-30 56 -30 56 -27 56 C-26.62875 54.80375 -26.2575 53.6075 -25.875 52.375 C-19.63937284 33.86926777 -9.81247539 16.80180842 0 0 Z M53 15 C51.32035318 22.7887654 50.14745317 30.60903968 49.0625 38.5 C46.70354687 55.26596754 46.70354687 55.26596754 45.375 63.5 C45.26422119 64.21607422 45.15344238 64.93214844 45.03930664 65.66992188 C44.47283847 69.09652786 43.78963901 72.00197225 42 75 C40.515 74.7525 40.515 74.7525 39 74.5 C29.01949737 73.27245155 18.69737522 73.22932137 9 76 C7.26505983 72.10656191 6.457504 68.45776027 5.81640625 64.25 C5.71632263 63.60286041 5.61623901 62.95572083 5.51312256 62.28897095 C5.19061203 60.19346586 4.87661941 58.09677765 4.5625 56 C4.34125283 54.55770102 4.11948893 53.11548122 3.8972168 51.67333984 C2.90760471 45.21847217 1.95419075 38.76045313 1.078125 32.2890625 C0.94591553 31.31839844 0.81370605 30.34773438 0.67749023 29.34765625 C0.43954632 27.57270608 0.2095025 25.79667348 -0.01147461 24.01953125 C-0.47210354 19.55046819 -0.47210354 19.55046819 -3 16 C-21.26684555 44.4441485 -21.26684555 44.4441485 -27 76 C-26.04085011 78.34211019 -25.0458265 80.63565785 -24 82.9375 C-18.97996303 94.23799116 -20.65618661 105.98226301 -21.7578125 118 C-23.00510286 132.37938197 -23.00510286 132.37938197 -17 145 C-16.31647461 145.7439502 -15.63294922 146.48790039 -14.92871094 147.25439453 C-12.65949729 150.48472069 -12.52955923 151.96301264 -12.65625 155.859375 C-12.69234375 157.00341797 -12.7284375 158.14746094 -12.765625 159.32617188 C-13.1693911 165.65520543 -13.79625032 171.94795335 -14.5 178.25 C-15.04216194 183.16364782 -15.54123272 188.07792241 -16 193 C-16.11577393 193.90032959 -16.23154785 194.80065918 -16.35083008 195.72827148 C-16.60984466 198.76718615 -16.69517141 201.16942218 -14.67138672 203.58740234 C-12.75568125 205.10791167 -10.80242019 206.33484808 -8.6875 207.5625 C-7.20491617 208.4974099 -5.72314707 209.43361303 -4.2421875 210.37109375 C-3.51354492 210.8182373 -2.78490234 211.26538086 -2.03417969 211.72607422 C0.63777221 213.39941136 3.16159873 215.23994312 5.6875 217.125 C6.53957031 217.74503906 7.39164063 218.36507812 8.26953125 219.00390625 C9.73260207 220.07347591 11.19421876 221.14513114 12.64599609 222.22998047 C14.37905852 223.52163457 16.12567061 224.79299654 17.875 226.0625 C19.44894531 227.22458984 19.44894531 227.22458984 21.0546875 228.41015625 C23.82682041 230.2200241 23.82682041 230.2200241 26.62109375 229.94140625 C29.25237643 228.9001269 31.01870366 227.68979018 33.1875 225.875 C37.07922874 222.71937127 41.06410895 219.81040899 45.18359375 216.9609375 C49.15204772 214.19788078 53.0774679 211.37554893 57.00268555 208.55151367 C60.62059535 205.95690355 64.28258185 203.45011651 68 201 C67.5077471 194.8857008 66.84459444 188.82603763 66 182.75 C65.741293 180.64165405 65.49897188 178.53236724 65.26708984 176.42089844 C65.07712238 174.69903614 64.87571436 172.97841937 64.66650391 171.25878906 C62.45228694 152.0128798 62.45228694 152.0128798 67.15551758 145.42626953 C68.00839669 144.35265862 68.86499967 143.2819952 69.7253418 142.21435547 C75.318517 134.80187393 73.71804938 125.79519364 73 117 C72.91167327 115.65380047 72.82554007 114.30745417 72.7421875 112.9609375 C72.32347436 106.73230643 72.32347436 106.73230643 71.72265625 100.51953125 C71.26616096 93.87251445 73.37727427 88.39475358 75.86547852 82.3269043 C79.32881461 73.56004552 78.40296841 66.56884624 75 57.9375 C74.68530762 57.11459473 74.37061523 56.29168945 74.04638672 55.44384766 C70.8802623 47.35471935 67.06944099 39.66501819 63 32 C62.16372907 30.40902938 61.32780353 28.81787718 60.4921875 27.2265625 C58.34251732 23.14327359 56.17574527 19.06944948 54 15 C53.67 15 53.34 15 53 15 Z " fill="#FBFAFB" transform="translate(114,19)"/>
<path d="M0 0 C0.66 1.32 1.32 2.64 2 4 C3.65 3.34 5.3 2.68 7 2 C7.33 2.66 7.66 3.32 8 4 C7.34 4 6.68 4 6 4 C5.75378906 4.79019531 5.50757812 5.58039062 5.25390625 6.39453125 C3.68115106 10.91681486 1.81965387 15.28682897 -0.0625 19.6875 C-0.78355834 21.37847752 -1.50365234 23.06986666 -2.22265625 24.76171875 C-2.53984619 25.50381592 -2.85703613 26.24591309 -3.18383789 27.01049805 C-4.91369278 31.22724573 -5.30922265 34.43896592 -5 39 C-4.0502472 41.02434424 -3.05630485 43.02915753 -2 45 C-1.59007813 44.10796875 -1.18015625 43.2159375 -0.7578125 42.296875 C-0.21898438 41.12640625 0.31984375 39.9559375 0.875 38.75 C1.40867187 37.58984375 1.94234375 36.4296875 2.4921875 35.234375 C3.6263719 32.80146131 4.78088096 30.39089364 6 28 C6.33060115 33.17941803 5.54329603 37.01992433 3.75390625 41.88671875 C2.36754256 45.77284701 1.89742677 48.00317203 3 52 C2.67 52.33 2.34 52.66 2 53 C1.76938186 55.11213625 1.60385742 57.23142584 1.46484375 59.3515625 C1.42186661 60.00264984 1.37888947 60.65373718 1.33460999 61.32455444 C1.24412833 62.71491971 1.15602374 64.10544132 1.07006836 65.49609375 C0.94103516 67.56822909 0.80221091 69.63952506 0.66210938 71.7109375 C-0.96127899 87.53323037 -0.96127899 87.53323037 1 103 C1.66 103 2.32 103 3 103 C4.74703334 105.26051949 6.38790421 107.52134015 8 109.875 C11.2294917 114.65503106 11.2294917 114.65503106 15 119 C15.22974877 121.32656986 15.35977057 123.66340634 15.4375 126 C15.8036436 133.43779303 16.54513264 140.31769896 20.75 146.625 C24.0409896 148.63616031 26.21520296 148.53119958 30 148 C32.9901643 146.59121904 32.9901643 146.59121904 35 144 C35.89055736 140.35817665 35.89055736 140.35817665 36 137 C34.35 137.33 32.7 137.66 31 138 C28.9375 135.75 28.9375 135.75 27 133 C27.1875 130.875 27.1875 130.875 28 129 C28.33 128.01 28.66 127.02 29 126 C34.28 126 39.56 126 45 126 C45.66 124.35 46.32 122.7 47 121 C47.33 121 47.66 121 48 121 C50.58064516 130.51612903 50.58064516 130.51612903 50 134 C48.25 136.3125 48.25 136.3125 46 138 C44.68 138 43.36 138 42 138 C42.27165123 142.87635568 42.27165123 142.87635568 44.6875 146.9375 C47.65226656 148.29969004 49.76471762 148.26960686 53 148 C53.7425 147.938125 54.485 147.87625 55.25 147.8125 C57.2364647 147.11106446 57.2364647 147.11106446 58.125 144.75 C58.41375 143.8425 58.7025 142.935 59 142 C59.33128906 141.31292969 59.66257812 140.62585938 60.00390625 139.91796875 C61.64398643 135.11349856 61.67797694 130.0833452 61.94726562 125.03710938 C62.42145981 119.09794458 63.6238112 116.12152544 68 112 C68.66 112 69.32 112 70 112 C70.226875 111.195625 70.45375 110.39125 70.6875 109.5625 C72 107 72 107 74.375 106.125 C76.86654217 106.00635513 78.64823293 106.21607764 81 107 C79.87548273 109.9719385 78.77706209 112.33440687 77 115 C76.76727664 117.17455942 76.76727664 117.17455942 76.91796875 119.5859375 C76.95414307 120.50705322 76.99031738 121.42816895 77.02758789 122.37719727 C77.08035889 123.36647217 77.13312988 124.35574707 77.1875 125.375 C77.23575928 126.39198975 77.28401855 127.40897949 77.33374023 128.45678711 C77.77374469 136.43549349 78.711545 144.28489982 79.9831543 152.17138672 C81.53083614 161.78209951 81.53083614 161.78209951 81 165 C78.6484375 167.203125 78.6484375 167.203125 75.375 169.25 C74.17610704 170.02322792 72.97822396 170.79802348 71.78125 171.57421875 C71.15734375 171.97044434 70.5334375 172.36666992 69.890625 172.77490234 C66.81271037 174.76934651 63.84784056 176.91588389 60.875 179.0625 C59.70964064 179.89714271 58.54427611 180.73177821 57.37890625 181.56640625 C53.3076024 184.49378438 49.25400696 187.44534424 45.20703125 190.40625 C40.23039216 194 40.23039216 194 37.8125 194 C34.38637604 192.78182259 32.05840649 190.9611686 29.21484375 188.7265625 C26.98291989 186.98668535 24.70089688 185.36170523 22.375 183.75 C17.54945736 180.39602377 12.7678702 176.98361754 7.99755859 173.55175781 C7.43633301 173.14924805 6.87510742 172.74673828 6.296875 172.33203125 C5.75224609 171.93113281 5.20761719 171.53023437 4.64648438 171.1171875 C2.770105 169.78996623 2.770105 169.78996623 -0.421875 168.30078125 C-3 166 -3 166 -3.40722656 164.01000977 C-3.44030989 161.4292436 -3.25786841 158.94308365 -3 156.375 C-2.93111572 155.44365234 -2.86223145 154.51230469 -2.79125977 153.55273438 C-2.3191651 147.52058456 -1.63591909 141.5095314 -0.9375 135.5 C1.42378118 121.9115299 1.42378118 121.9115299 -2.8125 109.5625 C-3.33457031 109.00691406 -3.85664062 108.45132813 -4.39453125 107.87890625 C-8.42947949 103.15674055 -9.37980503 98.9888171 -9.25 92.875 C-9.23904297 92.21540283 -9.22808594 91.55580566 -9.21679688 90.8762207 C-9.1297972 86.96265381 -8.8694643 83.08317506 -8.5 79.1875 C-7.42695835 66.90530023 -6.72894318 56.48974461 -11.84130859 45.0559082 C-15.33035519 37.22835413 -14.75782147 32.61360396 -11.8125 24.6875 C-10.88647924 22.45354032 -9.94885215 20.22435831 -9 18 C-8.56945312 16.91460937 -8.13890625 15.82921875 -7.6953125 14.7109375 C-5.57062956 9.39263176 -3.44212315 4.58949753 0 0 Z " fill="#38375A" transform="translate(101,55)"/>
<path d="M0 0 C3.67882073 3.28466137 5.75150101 6.66360908 8 11 C8 11.66 8 12.32 8 13 C8.68964844 12.71125 9.37929687 12.4225 10.08984375 12.125 C11.02957031 11.75375 11.96929687 11.3825 12.9375 11 C13.85402344 10.62875 14.77054688 10.2575 15.71484375 9.875 C19 9 19 9 28 9 C28.33 35.4 28.66 61.8 29 89 C25.37 89 21.74 89 18 89 C16.89595555 93.81418141 16.89595555 93.81418141 18.125 98.4375 C19.94054955 100.25030957 19.94054955 100.25030957 22.6875 100.25 C23.450625 100.1675 24.21375 100.085 25 100 C25.375 103.1875 25.375 103.1875 25 107 C21.81950054 110.6459384 20.21177288 111.74033438 15.5 112.75 C11.21338282 111.83143918 9.78803039 110.47517904 7.21875 107.03125 C4.56296427 102.60494045 4.00724257 98.60241879 3.984375 93.54296875 C3.87443389 84.50031284 2.48209381 79.91413198 -3.87109375 73.3671875 C-6.02789541 70.96898235 -7.00941867 69.04211316 -8 66 C-8.66 66 -9.32 66 -10 66 C-12.26070675 62.39647583 -12.22536973 59.43976448 -12.1640625 55.2421875 C-12.15565338 54.58564178 -12.14724426 53.92909607 -12.13858032 53.25265503 C-12.1060326 51.16790107 -12.05554947 49.08425979 -12 47 C-11.96745117 45.68547852 -11.93490234 44.37095703 -11.90136719 43.01660156 C-11.77275324 39.04920476 -11.58138006 35.08905473 -11.375 31.125 C-11.35260254 30.45662109 -11.33020508 29.78824219 -11.30712891 29.09960938 C-10.99464919 19.9246729 -9.81326734 14.12523678 -4 7 C-2.59265921 4.70204274 -1.30471698 2.35852684 0 0 Z " fill="#525277" transform="translate(112,92)"/>
<path d="M0 0 C-0.15597656 0.58136719 -0.31195313 1.16273437 -0.47265625 1.76171875 C-2.13329942 8.81022644 -0.92937194 13.52182211 2 19.9375 C7.02193817 31.23613976 5.34367111 42.98381519 4.2421875 55 C2.99489714 69.37938197 2.99489714 69.37938197 9 82 C9.68288086 82.74983154 10.36576172 83.49966309 11.06933594 84.2722168 C16.97847071 92.62107401 12.10586287 109.94601375 11 119.8125 C10.80665446 121.58391494 10.61394171 123.35539907 10.421875 125.12695312 C9.95519552 129.4187999 9.48000634 133.70962415 9 138 C2.24244484 133.79986646 -4.30258118 129.45547472 -10.625 124.625 C-11.68267578 123.82642578 -11.68267578 123.82642578 -12.76171875 123.01171875 C-17.8139881 119.1860119 -17.8139881 119.1860119 -19 118 C-19.09568576 116.51983606 -19.12188268 115.03511727 -19.12025452 113.55186462 C-19.12162918 112.5912764 -19.12300385 111.63068817 -19.12442017 110.64099121 C-19.12082489 109.57860229 -19.11722961 108.51621338 -19.11352539 107.42163086 C-19.11367142 106.30957779 -19.11381744 105.19752472 -19.1139679 104.05177307 C-19.11326821 100.35611049 -19.1054732 96.66049759 -19.09765625 92.96484375 C-19.09579227 90.41036507 -19.09436827 87.85588603 -19.09336853 85.30140686 C-19.08993344 79.2523829 -19.08204264 73.20338045 -19.07201904 67.15436512 C-19.06085683 60.26934846 -19.05534718 53.38433096 -19.05032361 46.49930751 C-19.03986 32.3328617 -19.02226123 18.16643183 -19 4 C-17.40618803 3.34722432 -15.810836 2.69820801 -14.21484375 2.05078125 C-13.32659912 1.68895752 -12.43835449 1.32713379 -11.52319336 0.9543457 C-7.31997557 -0.6354345 -4.2933268 -1.43110893 0 0 Z " fill="#DADADB" transform="translate(89,82)"/>
<path d="M0 0 C15.75 1.75 15.75 1.75 19 5 C19.12161702 6.45899833 19.17508136 7.92374441 19.20100403 9.38757324 C19.21972061 10.33515503 19.23843719 11.28273682 19.25772095 12.2590332 C19.28060684 13.83140747 19.28060684 13.83140747 19.30395508 15.43554688 C19.32337662 16.53314331 19.34279816 17.63073975 19.36280823 18.76159668 C19.53171345 28.90935153 19.62986856 39.05822829 19.70387745 49.20708466 C19.75969949 56.70583724 19.85424781 64.20199866 19.99953538 71.6995616 C20.11022491 77.61164771 20.15482643 83.52318541 20.17746544 89.43629456 C20.19708794 91.94666818 20.23752322 94.45697009 20.29932594 96.96665955 C20.78551619 117.67631044 20.78551619 117.67631044 16.45736694 122.43603516 C13.38975355 124.76549435 10.47362896 126.36023421 7 128 C4.97249499 129.4412347 2.96801967 130.9160426 1 132.4375 C-1.91741388 134.5864879 -4.70586789 136.48256414 -8 138 C-10.57078091 124.58052366 -12.01797885 111.16390865 -12.84326172 97.52490234 C-12.96504488 95.56309324 -13.138254 93.60444784 -13.33203125 91.6484375 C-12.94393514 88.55280027 -11.72098782 86.91788413 -9.79833984 84.51171875 C-2.43052619 75.22367385 -3.07327373 66.35122079 -4 55 C-4.08832673 53.65380047 -4.17445993 52.30745417 -4.2578125 50.9609375 C-4.67652564 44.73230643 -4.67652564 44.73230643 -5.27734375 38.51953125 C-5.73383904 31.87251445 -3.62272573 26.39475358 -1.13452148 20.3269043 C1.54199309 13.55175322 1.82875789 7.08643684 0 0 Z " fill="#C5C5C5" transform="translate(190,81)"/>
<path d="M0 0 C0.66 1.32 1.32 2.64 2 4 C3.65 3.34 5.3 2.68 7 2 C7.33 2.66 7.66 3.32 8 4 C7.34 4 6.68 4 6 4 C5.75378906 4.79019531 5.50757812 5.58039062 5.25390625 6.39453125 C3.68115106 10.91681486 1.81965387 15.28682897 -0.0625 19.6875 C-0.78355834 21.37847752 -1.50365234 23.06986666 -2.22265625 24.76171875 C-2.53984619 25.50381592 -2.85703613 26.24591309 -3.18383789 27.01049805 C-4.91369278 31.22724573 -5.30922265 34.43896592 -5 39 C-4.0502472 41.02434424 -3.05630485 43.02915753 -2 45 C-1.59007813 44.10796875 -1.18015625 43.2159375 -0.7578125 42.296875 C-0.21898438 41.12640625 0.31984375 39.9559375 0.875 38.75 C1.40867187 37.58984375 1.94234375 36.4296875 2.4921875 35.234375 C3.6263719 32.80146131 4.78088096 30.39089364 6 28 C6.33060115 33.17941803 5.54329603 37.01992433 3.75390625 41.88671875 C2.36754256 45.77284701 1.89742677 48.00317203 3 52 C2.67 52.33 2.34 52.66 2 53 C1.76938186 55.11213625 1.60385742 57.23142584 1.46484375 59.3515625 C1.42186661 60.00264984 1.37888947 60.65373718 1.33460999 61.32455444 C1.24412833 62.71491971 1.15602374 64.10544132 1.07006836 65.49609375 C0.94103516 67.56822909 0.80221091 69.63952506 0.66210938 71.7109375 C-0.96127899 87.53323037 -0.96127899 87.53323037 1 103 C1.66 103 2.32 103 3 103 C4.74703334 105.26051949 6.38790421 107.52134015 8 109.875 C11.2294917 114.65503106 11.2294917 114.65503106 15 119 C15.22974877 121.32656986 15.35977057 123.66340634 15.4375 126 C15.90516594 135.13093216 16.9940189 142.86425513 23.4375 149.7265625 C25.52804095 151.43035338 27.32223071 151.92124208 30 152 C29 155 29 155 27 156 C27 157.65 27 159.3 27 161 C27.763125 161.144375 28.52625 161.28875 29.3125 161.4375 C32 162 32 162 35 163 C37.16564325 163.06976943 39.33334445 163.08445935 41.5 163.0625 C42.6446875 163.05347656 43.789375 163.04445312 44.96875 163.03515625 C45.9690625 163.02355469 46.969375 163.01195312 48 163 C48.99 163 49.98 163 51 163 C50.01 163.99 49.02 164.98 48 166 C48.66 166.33 49.32 166.66 50 167 C50 167.66 50 168.32 50 169 C43.23855196 171.54633256 37.09375011 173.12581437 30 171 C26.19024068 168.80843277 23.0955712 166.0955712 20 163 C19.5859375 160.8359375 19.5859375 160.8359375 19.375 158.375 C19.30023438 157.55773437 19.22546875 156.74046875 19.1484375 155.8984375 C19.09945312 155.27195313 19.05046875 154.64546875 19 154 C18.38253906 153.87625 17.76507813 153.7525 17.12890625 153.625 C13.81057924 152.65081225 12.85873849 150.87804669 11 148 C10.42110014 146.45136347 9.88242958 144.88725852 9.37890625 143.3125 C9.11795166 142.50425781 8.85699707 141.69601563 8.58813477 140.86328125 C8.39405029 140.24839844 8.19996582 139.63351563 8 139 C7.91435791 139.76666992 7.82871582 140.53333984 7.74047852 141.32324219 C7.35061058 144.79914784 6.95660181 148.27457195 6.5625 151.75 C6.42779297 152.9565625 6.29308594 154.163125 6.15429688 155.40625 C6.02216797 156.56640625 5.89003906 157.7265625 5.75390625 158.921875 C5.57323608 160.52434082 5.57323608 160.52434082 5.38891602 162.15917969 C5.06675889 164.51236254 4.63833394 166.71645066 4 169 C1.03824877 168.38722388 -0.38058783 167.74627478 -3 166 C-3.28051758 164.13085938 -3.28051758 164.13085938 -3.14453125 161.84375 C-3.09997803 160.99490234 -3.0554248 160.14605469 -3.00952148 159.27148438 C-2.94450439 158.35689453 -2.8794873 157.44230469 -2.8125 156.5 C-2.75715088 155.55962891 -2.70180176 154.61925781 -2.64477539 153.65039062 C-2.25976121 147.57606331 -1.65883883 141.5424434 -0.9375 135.5 C1.42455892 121.91141606 1.42455892 121.91141606 -2.8125 109.5625 C-3.33457031 109.00691406 -3.85664062 108.45132813 -4.39453125 107.87890625 C-8.42947949 103.15674055 -9.37980503 98.9888171 -9.25 92.875 C-9.23904297 92.21540283 -9.22808594 91.55580566 -9.21679688 90.8762207 C-9.1297972 86.96265381 -8.8694643 83.08317506 -8.5 79.1875 C-7.42695835 66.90530023 -6.72894318 56.48974461 -11.84130859 45.0559082 C-15.33035519 37.22835413 -14.75782147 32.61360396 -11.8125 24.6875 C-10.88647924 22.45354032 -9.94885215 20.22435831 -9 18 C-8.56945312 16.91460937 -8.13890625 15.82921875 -7.6953125 14.7109375 C-5.57062956 9.39263176 -3.44212315 4.58949753 0 0 Z " fill="#373553" transform="translate(101,55)"/>
<path d="M0 0 C2.24151134 2.24151134 2.88195135 3.93138755 4 6.875 C4.65452744 8.58802103 5.32077148 10.29662223 6 12 C6.28875 12.74507812 6.5775 13.49015625 6.875 14.2578125 C7.87780364 16.20047761 7.87780364 16.20047761 10.125 16.75 C10.74375 16.8325 11.3625 16.915 12 17 C12.07476562 17.59167969 12.14953125 18.18335938 12.2265625 18.79296875 C12.93799737 23.06855285 13.49644288 26.10268372 16.9375 28.9375 C22.24271951 32.51040294 24.14521037 33.28630259 31 35 C31 42.26 31 49.52 31 57 C26.23988524 54.27993442 21.83320733 51.58129569 17.4375 48.375 C16.22533485 47.49989689 15.01309279 46.6249003 13.80078125 45.75 C13.18154785 45.30140625 12.56231445 44.8528125 11.92431641 44.390625 C8.66823748 42.03758953 5.39580202 39.70750199 2.125 37.375 C0.94003051 36.52874896 -0.24487229 35.68240453 -1.4296875 34.8359375 C-2.70199219 33.92714844 -2.70199219 33.92714844 -4 33 C-3.52116639 28.99996006 -3.04187274 24.99997536 -2.5625 21 C-2.42779297 19.87464844 -2.29308594 18.74929687 -2.15429688 17.58984375 C-1.45115377 11.72460122 -0.7397746 5.86073857 0 0 Z " fill="#545378" transform="translate(108,192)"/>
<path d="M0 0 C2.97885862 3.64815913 5.0741817 7.6600187 7.25 11.8125 C7.64477539 12.56370117 8.03955078 13.31490234 8.44628906 14.08886719 C12.20020393 21.29068772 15.72060156 28.57049436 19 36 C19.50917969 37.14597656 20.01835937 38.29195312 20.54296875 39.47265625 C23.17290989 45.77125479 25.59622134 52.10964455 24 59 C22.59375 60.7734375 22.59375 60.7734375 21 62 C20.34 62 19.68 62 19 62 C18.67 62.99 18.34 63.98 18 65 C17 62 17 62 17.56152344 60.16552734 C18.18795214 57.07175086 17.20420553 55.25115055 16.015625 52.3515625 C15.57476562 51.26359375 15.13390625 50.175625 14.6796875 49.0546875 C13.97199219 47.35699219 13.97199219 47.35699219 13.25 45.625 C12.79367188 44.5009375 12.33734375 43.376875 11.8671875 42.21875 C9.74955396 37.04095238 7.54465131 31.98474058 5 27 C3.40783874 36.22686224 4.86149986 44.04729601 7 53 C3.125 49.25 3.125 49.25 2 47 C1.01 47 0.02 47 -1 47 C-1.66 47 -2.32 47 -3 47 C-4.38232443 48.62626404 -5.71937515 50.2925002 -7 52 C-7.25512982 44.99243419 -6.26293044 38.40481545 -5.125 31.5 C-3.70061145 22.6071113 -2.40042853 13.73091556 -1.39453125 4.78125 C-1 2 -1 2 0 0 Z " fill="#393753" transform="translate(167,34)"/>
<path d="M0 0 C5.64166991 -0.04940499 11.28321413 -0.08572193 16.92504883 -0.10986328 C18.84466749 -0.11992639 20.76427081 -0.13357816 22.68383789 -0.15087891 C25.44160752 -0.17511364 28.19917464 -0.18647992 30.95703125 -0.1953125 C32.24623222 -0.21079636 32.24623222 -0.21079636 33.56147766 -0.22659302 C34.36208115 -0.22674408 35.16268463 -0.22689514 35.98754883 -0.22705078 C36.6914827 -0.231492 37.39541656 -0.23593323 38.12068176 -0.24050903 C40 0 40 0 43 2 C42.74273307 3.89772191 42.46856661 5.79315677 42.1875 7.6875 C42.03667969 8.74324219 41.88585937 9.79898438 41.73046875 10.88671875 C40.97608241 14.10193753 39.84125013 16.28100323 38 19 C37.01 18.835 36.02 18.67 35 18.5 C25.13986647 17.26968031 14.81448848 17.59793022 5 19 C2.17248011 14.9485126 1.40494362 11.56376668 0.8125 6.6875 C0.57466797 4.80611328 0.57466797 4.80611328 0.33203125 2.88671875 C0.22246094 1.93410156 0.11289063 0.98148437 0 0 Z " fill="#DAD9DB" transform="translate(118,76)"/>
<path d="M0 0 C0.33 0 0.66 0 1 0 C1.77402426 7.69877702 2.10721642 15.3288649 2.125 23.0625 C2.12951172 23.88339111 2.13402344 24.70428223 2.13867188 25.55004883 C2.13673828 26.32888428 2.13480469 27.10771973 2.1328125 27.91015625 C2.13168457 28.60246338 2.13055664 29.29477051 2.12939453 30.00805664 C2 32 2 32 1.42138672 34.11499023 C0.76456485 36.12122755 0.76456485 36.12122755 2.125 38.25 C3.90323888 40.26734801 3.90323888 40.26734801 6.6875 40.25 C7.450625 40.1675 8.21375 40.085 9 40 C9.375 43.1875 9.375 43.1875 9 47 C5.81950054 50.6459384 4.21177288 51.74033438 -0.5 52.75 C-4.78661718 51.83143918 -6.21196961 50.47517904 -8.78125 47.03125 C-12.15557589 41.40737352 -12.04115167 35.8793672 -12.25 29.5 C-12.59770793 22.6753797 -14.06520024 18.72352393 -19 14 C-17.081875 13.5978125 -17.081875 13.5978125 -15.125 13.1875 C-9.14577808 11.27035265 -5.87127066 6.94405815 -1.96875 2.30078125 C-1.3190625 1.54152344 -0.669375 0.78226563 0 0 Z " fill="#D3B5A1" transform="translate(128,152)"/>
<path d="M0 0 C0.66 0 1.32 0 2 0 C3.39584674 1.73816856 4.74177189 3.51658928 6.0625 5.3125 C10.18124719 10.51442421 13.45444482 12.93228532 20 14 C16.125 19.875 16.125 19.875 15 21 C14.80554235 23.11155646 14.61620725 25.22373674 14.45556641 27.33813477 C13.15807583 43.74476439 13.15807583 43.74476439 8 50 C4.57719305 52.11309384 2.01803227 52.49200395 -2 52 C-4.8125 50.4375 -4.8125 50.4375 -7 48 C-7.8125 44.25 -7.8125 44.25 -8 41 C-7.05125 40.71125 -6.1025 40.4225 -5.125 40.125 C-1.94788422 39.23174891 -1.94788422 39.23174891 0 37 C0.17525055 34.20315203 0.23143189 31.5067192 0.1953125 28.7109375 C0.19106766 27.48330185 0.19106766 27.48330185 0.18673706 26.23086548 C0.17552532 23.61209607 0.15041929 20.99366636 0.125 18.375 C0.11497147 16.60156743 0.1058454 14.82812951 0.09765625 13.0546875 C0.07558278 8.70299374 0.04104644 4.3515545 0 0 Z " fill="#BF987F" transform="translate(150,152)"/>
<path d="M0 0 C2.69082872 0.17635452 5.32851446 0.61835921 8 1 C7.34206835 2.67013418 6.67276716 4.3357865 6 6 C5.54625 7.2375 5.0925 8.475 4.625 9.75 C3 13 3 13 0.8125 13.9375 C0.214375 13.958125 -0.38375 13.97875 -1 14 C-1.495 11.525 -1.495 11.525 -2 9 C-6.79935391 13.43243083 -8.66908326 16.83951821 -9.0078125 23.375 C-9.00254034 25.14644578 -8.95462356 26.91820554 -8.8671875 28.6875 C-8.56370977 35.48540126 -8.56370977 35.48540126 -11.4375 38.875 C-12.283125 39.57625 -13.12875 40.2775 -14 41 C-14.86119134 43.17346568 -14.86119134 43.17346568 -15 45 C-19.65244084 46.0212675 -23.31909798 45.72013877 -28 45 C-28.99 45.495 -28.99 45.495 -30 46 C-30.28875 45.071875 -30.5775 44.14375 -30.875 43.1875 C-31.8875 39.90208333 -31.8875 39.90208333 -34 37 C-35.32 38.32 -36.64 39.64 -38 41 C-37.67 37.7 -37.34 34.4 -37 31 C-38.65 31.33 -40.3 31.66 -42 32 C-44.0625 29.75 -44.0625 29.75 -46 27 C-45.8125 24.875 -45.8125 24.875 -45 23 C-44.67 22.01 -44.34 21.02 -44 20 C-38.72 20 -33.44 20 -28 20 C-27.34 18.35 -26.68 16.7 -26 15 C-25.67 15 -25.34 15 -25 15 C-22.41935484 24.51612903 -22.41935484 24.51612903 -23 28 C-24.75 30.3125 -24.75 30.3125 -27 32 C-28.32 32 -29.64 32 -31 32 C-30.72834877 36.87635568 -30.72834877 36.87635568 -28.3125 40.9375 C-25.34773344 42.29969004 -23.23528238 42.26960686 -20 42 C-19.2575 41.938125 -18.515 41.87625 -17.75 41.8125 C-15.7635353 41.11106446 -15.7635353 41.11106446 -14.875 38.75 C-14.441875 37.38875 -14.441875 37.38875 -14 36 C-13.66871094 35.31292969 -13.33742187 34.62585938 -12.99609375 33.91796875 C-11.35601357 29.11349856 -11.32202306 24.0833452 -11.05273438 19.03710938 C-10.57854019 13.09794458 -9.3761888 10.12152544 -5 6 C-4.34 6 -3.68 6 -3 6 C-2.690625 5.195625 -2.38125 4.39125 -2.0625 3.5625 C-1 1 -1 1 0 0 Z " fill="#3A334D" transform="translate(174,161)"/>
<path d="M0 0 C0.33 0 0.66 0 1 0 C1.28875 1.051875 1.5775 2.10375 1.875 3.1875 C2.77225193 6.22818711 3.76423419 9.08712344 5 12 C5.99 11.67 6.98 11.34 8 11 C8.66 11.33 9.32 11.66 10 12 C10 12.66 10 13.32 10 14 C10.66 14.33 11.32 14.66 12 15 C12.36488688 21.44633484 12.36488688 21.44633484 10.875 23.70703125 C6.72370825 26.56969285 0.81027647 25.41360446 -4 25 C-7.22251119 24.37488129 -9.07537718 23.63103965 -12 22 C-13 19.3125 -13 19.3125 -13 17 C-12.01 16.67 -11.02 16.34 -10 16 C-10 15.01 -10 14.02 -10 13 C-11.65 13 -13.3 13 -15 13 C-15 12.34 -15 11.68 -15 11 C-15.66 10.67 -16.32 10.34 -17 10 C-16.31292969 9.87882813 -15.62585938 9.75765625 -14.91796875 9.6328125 C-14.01691406 9.46523437 -13.11585937 9.29765625 -12.1875 9.125 C-11.29417969 8.96257812 -10.40085938 8.80015625 -9.48046875 8.6328125 C-6.77272154 8.08811551 -6.77272154 8.08811551 -4 6 C-3.67 6.33 -3.34 6.66 -3 7 C-2.01 4.69 -1.02 2.38 0 0 Z " fill="#343250" transform="translate(140,194)"/>
<path d="M0 0 C6.93 0 13.86 0 21 0 C19.375 12.375 19.375 12.375 16 18 C9.4 17.34 2.8 16.68 -4 16 C-2.68 15.67 -1.36 15.34 0 15 C0 10.05 0 5.1 0 0 Z " fill="#C4C4C6" transform="translate(140,77)"/>
<path d="M0 0 C2.85772673 2.85772673 2.33417955 4.88276046 2.375 8.875 C2.32050598 20.85938266 -2.44583356 30.55816709 -8 41 C-11.03510298 37.96489702 -11.88608113 35.20230591 -12.2890625 30.94921875 C-11.91225251 25.80117951 -10.23844475 21.72431909 -8.25 17 C-7.90195313 16.13632813 -7.55390625 15.27265625 -7.1953125 14.3828125 C-5.12856608 9.34607493 -2.81202173 4.66136935 0 0 Z " fill="#CFB3A1" transform="translate(107,60)"/>
<path d="M0 0 C3.29923614 3.82670022 5.0666585 8.29085942 7.0625 12.875 C7.41376953 13.66519531 7.76503906 14.45539063 8.12695312 15.26953125 C14.83184497 30.50446509 14.83184497 30.50446509 12 39 C11.67 39.66 11.34 40.32 11 41 C8 40 8 40 6.5 37.296875 C1.1689603 24.69118738 -1.88080817 13.84546738 0 0 Z " fill="#BB9882" transform="translate(171,59)"/>
<path d="M0 0 C0.66 0.66 1.32 1.32 2 2 C1.67 2.66 1.34 3.32 1 4 C1.721875 4.061875 2.44375 4.12375 3.1875 4.1875 C6.88399074 5.2553751 8.53138868 7.10819816 11 10 C11 10.66 11 11.32 11 12 C10.01 12 9.02 12 8 12 C7.731875 13.11375 7.46375 14.2275 7.1875 15.375 C6 19 6 19 3 21 C0.248286 20.79362145 -1.50200666 20.3262715 -3.8125 18.8125 C-5.51208117 16.21840242 -5.13190622 14.03384314 -5 11 C-5.33 10.67 -5.66 10.34 -6 10 C-6.14115161 7.32941149 -6.04247107 4.67567762 -6 2 C-4.02 1.34 -2.04 0.68 0 0 Z " fill="#555372" transform="translate(119,124)"/>
<path d="M0 0 C2.7465149 0.86262381 5.33420523 1.89691251 8 3 C7.00449135 5.6245228 6.06036546 6.95028727 3.875 8.75 C-1.20804632 10.96002014 -5.32941835 10.61873395 -10.375 8.75 C-13.03368909 6.97754061 -13.97386916 5.97577944 -15 3 C-13.88625 3.0928125 -13.88625 3.0928125 -12.75 3.1875 C-9.95582122 3.25345112 -9.95582122 3.25345112 -8.0625 1.5 C-5.16601676 -0.60653326 -3.53659109 -0.4080682 0 0 Z " fill="#A78B7F" transform="translate(143,209)"/>
<path d="M0 0 C3.96 0 7.92 0 12 0 C13 4 13 4 11.9375 6.6875 C10 9 10 9 7.0625 10.0625 C4 10 4 10 1.625 8.4375 C0 6 0 6 0 0 Z " fill="#3D3A60" transform="translate(152,135)"/>
<path d="M0 0 C0.99 0 1.98 0 3 0 C4.175625 1.2684375 4.175625 1.2684375 5.375 2.5625 C7.73145013 5.29098712 7.73145013 5.29098712 10.6875 5.0625 C13.14252396 4.1877298 13.14252396 4.1877298 14.3125 1.9375 C14.539375 1.298125 14.76625 0.65875 15 0 C16.65 0 18.3 0 20 0 C17.93744334 7.13961922 17.93744334 7.13961922 15 9 C8.22080679 10.53078556 8.22080679 10.53078556 4.125 8.75 C2 7 2 7 0 4 C0 2.68 0 1.36 0 0 Z " fill="#363554" transform="translate(111,139)"/>
<path d="M0 0 C0.99 0 1.98 0 3 0 C3.309375 0.9590625 3.309375 0.9590625 3.625 1.9375 C4.88742026 4.30710527 4.88742026 4.30710527 7.9375 4.875 C11.17537932 5.30787112 11.17537932 5.30787112 14 3 C14.66 2.01 15.32 1.02 16 0 C16.99 0.33 17.98 0.66 19 1 C17.76207433 4.71377701 16.04477312 7.54644496 13 10 C10.23053534 10.80006757 7.91581001 10.90115898 5 11 C4.87625 10.071875 4.87625 10.071875 4.75 9.125 C4.18741541 6.81562433 4.18741541 6.81562433 1.9375 5.75 C1.298125 5.5025 0.65875 5.255 0 5 C0 3.35 0 1.7 0 0 Z " fill="#333351" transform="translate(149,139)"/>
<path d="M0 0 C2.64 0.33 5.28 0.66 8 1 C7.34206835 2.67013418 6.67276716 4.3357865 6 6 C5.54625 7.2375 5.0925 8.475 4.625 9.75 C3 13 3 13 0.8984375 13.703125 C-0.04128906 13.85007813 -0.04128906 13.85007813 -1 14 C-3.43326039 5.96498906 -3.43326039 5.96498906 -1.625 1.9375 C-1.08875 1.298125 -0.5525 0.65875 0 0 Z " fill="#343350" transform="translate(174,161)"/>
<path d="M0 0 C0.93423645 3.01031744 1.04449911 3.86650268 0 7 C-4.95 7 -9.9 7 -15 7 C-7.65217391 -0.34782609 -7.65217391 -0.34782609 0 0 Z " fill="#B1958C" transform="translate(164,127)"/>
<path d="M0 0 C5.86181863 0.40426335 9.2823519 1.2028686 14 5 C14.33 5.66 14.66 6.32 15 7 C12.70890403 7.08075665 10.41700733 7.13907731 8.125 7.1875 C6.21074219 7.23970703 6.21074219 7.23970703 4.2578125 7.29296875 C3.18273437 7.19628906 2.10765625 7.09960938 1 7 C-1 4 -1 4 -0.625 1.8125 C-0.41875 1.214375 -0.2125 0.61625 0 0 Z " fill="#CBB2A7" transform="translate(115,127)"/>
<path d="M0 0 C0.66 0 1.32 0 2 0 C3.5078125 1.53125 3.5078125 1.53125 5.125 3.5 C5.66382813 4.1496875 6.20265625 4.799375 6.7578125 5.46875 C7.16773438 5.9740625 7.57765625 6.479375 8 7 C7.67 7.66 7.34 8.32 7 9 C5.35 7.68 3.7 6.36 2 5 C2.00523682 5.98919434 2.01047363 6.97838867 2.01586914 7.99755859 C2.03394523 11.66144916 2.04544158 15.32533577 2.05493164 18.98925781 C2.05996588 20.57617861 2.06679369 22.16309477 2.07543945 23.75 C2.08754482 26.02865749 2.09323733 28.30725376 2.09765625 30.5859375 C2.10281754 31.29744965 2.10797882 32.00896179 2.11329651 32.74203491 C2.11387171 37.77225659 2.11387171 37.77225659 1 40 C0.34 40 -0.32 40 -1 40 C-1.33 40.99 -1.66 41.98 -2 43 C-2.495 41.515 -2.495 41.515 -3 40 C-2.51104248 39.67797607 -2.02208496 39.35595215 -1.51831055 39.02416992 C0.8623976 35.85027521 0.36725319 32.42178997 0.29296875 28.61328125 C0.28872391 27.79627243 0.28447906 26.97926361 0.28010559 26.13749695 C0.26331691 23.52882893 0.22566519 20.92093438 0.1875 18.3125 C0.17245337 16.54363095 0.15876492 14.77474979 0.14648438 13.00585938 C0.11341286 8.67027504 0.0616299 4.33526864 0 0 Z " fill="#B5978C" transform="translate(150,152)"/>
<path d="M0 0 C2.875 1.5 2.875 1.5 5 3 C3.207335 5.28928166 2.33081505 5.94918203 -0.59375 6.3984375 C-1.5528125 6.39070312 -2.511875 6.38296875 -3.5 6.375 C-4.4590625 6.38273438 -5.418125 6.39046875 -6.40625 6.3984375 C-9.33081505 5.94918203 -10.207335 5.28928166 -12 3 C-7.62378405 0.81189202 -5.02697719 -0.39427272 0 0 Z " fill="#3E364C" transform="translate(143,209)"/>
<path d="M0 0 C0.36717663 7.4659249 0.36717663 7.4659249 -1.375 10 C-3 11 -3 11 -5 11 C-5.33 11.99 -5.66 12.98 -6 14 C-7 11 -7 11 -6.5 9.25 C-5.78474282 6.03134267 -6.44316161 3.21728845 -7 0 C-4.3333581 -1.33332095 -2.83319697 -0.67102033 0 0 Z " fill="#32314D" transform="translate(191,85)"/>
<path d="M0 0 C1.43509221 2.87018441 1.11158506 5.33543723 1.09765625 8.5390625 C1.09443359 9.84101563 1.09121094 11.14296875 1.08789062 12.484375 C1.07953466 13.86458399 1.07106971 15.24479232 1.0625 16.625 C1.05748501 18.01301926 1.0529221 19.40104022 1.04882812 20.7890625 C1.03700976 24.19275132 1.02053434 27.59635439 1 31 C0.67 31 0.34 31 0 31 C-0.66 21.76 -1.32 12.52 -2 3 C-3.65 4.65 -5.3 6.3 -7 8 C-7.66 8 -8.32 8 -9 8 C-8.67 6.68 -8.34 5.36 -8 4 C-7.01 4 -6.02 4 -5 4 C-4.67 3.01 -4.34 2.02 -4 1 C-2 0 -2 0 0 0 Z " fill="#5D556D" transform="translate(130,150)"/>
<path d="M0 0 C1.32 0 2.64 0 4 0 C4.33 4.95 4.66 9.9 5 15 C6.65 15.33 8.3 15.66 10 16 C10.66 16.66 11.32 17.32 12 18 C10.87926138 18.83905565 9.75325453 19.67107831 8.625 20.5 C7.99851563 20.9640625 7.37203125 21.428125 6.7265625 21.90625 C5 23 5 23 3 23 C3 15.74 3 8.48 3 1 C2.01 0.67 1.02 0.34 0 0 Z " fill="#454567" transform="translate(136,226)"/>
<path d="M0 0 C4.55737263 0.43820891 7.57653445 0.85041169 11 4 C9.60667426 7.36720387 8.0210714 8.9859524 5 11 C4.34 10.67 3.68 10.34 3 10 C3.33 9.34 3.66 8.68 4 8 C0.37 7.67 -3.26 7.34 -7 7 C-7 6.67 -7 6.34 -7 6 C-0.565 5.505 -0.565 5.505 6 5 C5.01 4.360625 4.02 3.72125 3 3.0625 C2.01 2.381875 1.02 1.70125 0 1 C0 0.67 0 0.34 0 0 Z " fill="#5F5A73" transform="translate(123,128)"/>
<path d="M0 0 C2.65103353 2.65103353 3.59260306 5.56787856 5 9.00390625 C5.83411484 11.16679652 5.83411484 11.16679652 8 12 C8.66 8.37 9.32 4.74 10 1 C12 4 12 4 11.69140625 5.921875 C11.46324219 6.60765625 11.23507813 7.2934375 11 8 C10.82339844 8.70640625 10.64679688 9.4128125 10.46484375 10.140625 C9.9765625 12.09375 9.48828125 14.046875 9 16 C5.16982558 14.54322426 4.00162963 12.76882213 2.25 9.125 C1.82203125 8.26132813 1.3940625 7.39765625 0.953125 6.5078125 C0 4 0 4 0 0 Z " fill="#473A4B" transform="translate(174,88)"/>
<path d="M0 0 C3.27275026 0 5.846632 0.29925156 9 1 C7.68 2.32 6.36 3.64 5 5 C9.29 5.33 13.58 5.66 18 6 C18 6.33 18 6.66 18 7 C13.38 7.33 8.76 7.66 4 8 C3.67 6.68 3.34 5.36 3 4 C2.01 3.67 1.02 3.34 0 3 C0 2.01 0 1.02 0 0 Z " fill="#4B4160" transform="translate(145,128)"/>
<path d="M0 0 C1.65 0 3.3 0 5 0 C5 1.32 5 2.64 5 4 C5.99 3.67 6.98 3.34 8 3 C8.33 2.01 8.66 1.02 9 0 C9.99 0 10.98 0 12 0 C11.6875 1.875 11.6875 1.875 11 4 C8 6 8 6 4.9375 5.9375 C2 5 2 5 0.625 2.4375 C0.41875 1.633125 0.2125 0.82875 0 0 Z " fill="#D8D7E2" transform="translate(152,139)"/>
<path d="M0 0 C0.33 0 0.66 0 1 0 C1.16682272 4.92127034 1.24828052 8.50343896 -1 13 C-1.99 12.67 -2.98 12.34 -4 12 C-5.1875 9.4375 -5.1875 9.4375 -6 7 C-2.125 5 -2.125 5 -1 5 C-0.67 3.35 -0.34 1.7 0 0 Z " fill="#B79681" transform="translate(183,87)"/>
<path d="M0 0 C1.65 0 3.3 0 5 0 C4.67 1.32 4.34 2.64 4 4 C5.32 4 6.64 4 8 4 C8 2.68 8 1.36 8 0 C8.99 0 9.98 0 11 0 C10.6875 1.875 10.6875 1.875 10 4 C7 6 7 6 4.4375 5.75 C2 5 2 5 0 3 C0 2.01 0 1.02 0 0 Z " fill="#DFDDE8" transform="translate(115,139)"/>
<path d="M0 0 C0.99 0 1.98 0 3 0 C4.35439668 2.70879335 4.06501451 5.00933268 4 8 C2.02 8.33 0.04 8.66 -2 9 C-2.25 3.375 -2.25 3.375 0 0 Z " fill="#C19A7E" transform="translate(179,85)"/>
<path d="M0 0 C1.32 0 2.64 0 4 0 C3.95875 0.7425 3.9175 1.485 3.875 2.25 C4.00398134 5.08758952 4.57051222 6.58773938 6 9 C4.02 9.99 4.02 9.99 2 11 C1.20046862 7.71303767 0.90341064 6.28976808 2 3 C1.01 3.33 0.02 3.66 -1 4 C-0.67 2.68 -0.34 1.36 0 0 Z " fill="#313051" transform="translate(178,63)"/>
<path d="M0 0 C2.16874252 0.50603992 3.99967627 0.99983813 6 2 C7.53668865 2.22467831 9.07968054 2.40796805 10.625 2.5625 C11.44226563 2.64628906 12.25953125 2.73007813 13.1015625 2.81640625 C13.72804687 2.87699219 14.35453125 2.93757812 15 3 C15 3.33 15 3.66 15 4 C11.67182526 5.01460861 8.48514006 5.84037526 5 6 C1.875 3.6875 1.875 3.6875 0 1 C0 0.67 0 0.34 0 0 Z " fill="#9E857C" transform="translate(128,212)"/>
<path d="M0 0 C0.66 0 1.32 0 2 0 C3.5078125 1.53125 3.5078125 1.53125 5.125 3.5 C5.66382813 4.1496875 6.20265625 4.799375 6.7578125 5.46875 C7.16773438 5.9740625 7.57765625 6.479375 8 7 C7.67 7.66 7.34 8.32 7 9 C5.35 7.68 3.7 6.36 2 5 C1.67 7.31 1.34 9.62 1 12 C0.67 12 0.34 12 0 12 C0 8.04 0 4.08 0 0 Z " fill="#9E8683" transform="translate(150,152)"/>
<path d="M0 0 C0.33 0 0.66 0 1 0 C1.3459973 5.65128923 0.68154755 9.11575268 -2 14 C-4.109375 15.19921875 -4.109375 15.19921875 -6 16 C-5.73445313 15.34773438 -5.46890625 14.69546875 -5.1953125 14.0234375 C-3.32172003 9.38732183 -1.50684994 4.77169146 0 0 Z " fill="#483B4F" transform="translate(106,83)"/>
<path d="M0 0 C1.32 0 2.64 0 4 0 C4 1.65 4 3.3 4 5 C1.03 5 -1.94 5 -5 5 C-4 3 -4 3 -1 2 C-0.67 1.34 -0.34 0.68 0 0 Z " fill="#C3997E" transform="translate(158,128)"/>
<path d="M0 0 C3 3.75 3 3.75 3 6 C2.34 6 1.68 6 1 6 C1 9.96 1 13.92 1 18 C0.67 18 0.34 18 0 18 C-0.73030908 11.78675502 -1.23180249 6.15901243 0 0 Z " fill="#A58E88" transform="translate(171,59)"/>
<path d="M0 0 C0 2.31 0 4.62 0 7 C-0.99 7.495 -0.99 7.495 -2 8 C-2.33 7.01 -2.66 6.02 -3 5 C-3.99 4.67 -4.98 4.34 -6 4 C-6.33 3.01 -6.66 2.02 -7 1 C-2.25 0 -2.25 0 0 0 Z " fill="#C3AAA2" transform="translate(137,192)"/>
<path d="M0 0 C2 2 2 2 2.1953125 5.4765625 C2.18201493 6.85950968 2.15816232 8.24238654 2.125 9.625 C2.11597656 10.33140625 2.10695313 11.0378125 2.09765625 11.765625 C2.07407603 13.51056098 2.03820461 15.25532295 2 17 C1.67 17 1.34 17 1 17 C1 12.71 1 8.42 1 4 C0.34 4 -0.32 4 -1 4 C-1 4.99 -1 5.98 -1 7 C-1.66 7 -2.32 7 -3 7 C-1.125 1.125 -1.125 1.125 0 0 Z " fill="#AE9C9E" transform="translate(107,60)"/>
<path d="M0 0 C2 2 2 2 2 6 C1.01 6.33 0.02 6.66 -1 7 C-1.33 6.67 -1.66 6.34 -2 6 C-2.99 7.32 -3.98 8.64 -5 10 C-5.3125 7.8125 -5.3125 7.8125 -5 5 C-2.5 2.1875 -2.5 2.1875 0 0 Z " fill="#30314D" transform="translate(100,61)"/>
<path d="M0 0 C0.61488281 0.08378906 1.22976562 0.16757813 1.86328125 0.25390625 C3.07564453 0.40666016 3.07564453 0.40666016 4.3125 0.5625 C5.11300781 0.66691406 5.91351563 0.77132812 6.73828125 0.87890625 C9.16817116 1.14755178 9.16817116 1.14755178 12 0 C11.67 1.65 11.34 3.3 11 5 C9.53890937 4.74445946 8.08111904 4.46999628 6.625 4.1875 C5.81289062 4.03667969 5.00078125 3.88585937 4.1640625 3.73046875 C2 3 2 3 0 0 Z " fill="#50425A" transform="translate(159,161)"/>
<path d="M0 0 C3.96 0 7.92 0 12 0 C11.01 0.33 10.02 0.66 9 1 C8.26676204 3.01508358 8.26676204 3.01508358 8 5 C7.01 5 6.02 5 5 5 C5 3.68 5 2.36 5 1 C3.35 1 1.7 1 0 1 C0 0.67 0 0.34 0 0 Z " fill="#58566D" transform="translate(152,138)"/>
<path d="M0 0 C0.99 0 1.98 0 3 0 C3.36190476 5.42857143 3.36190476 5.42857143 1.8125 7.875 C-0.56036279 9.34781139 -2.25913944 9.22223194 -5 9 C-4.21625 8.401875 -3.4325 7.80375 -2.625 7.1875 C0.14574323 5.08914751 0.14574323 5.08914751 2 2 C1.01 1.67 0.02 1.34 -1 1 C-0.67 0.67 -0.34 0.34 0 0 Z " fill="#3D3348" transform="translate(149,210)"/>
<path d="M0 0 C0.99 0.33 1.98 0.66 3 1 C2.01 1.495 2.01 1.495 1 2 C0.67 2.99 0.34 3.98 0 5 C-1 8 -1 8 -3 9 C-3.1875 5.625 -3.1875 5.625 -3 2 C-2.01 1.34 -1.02 0.68 0 0 Z " fill="#39304B" transform="translate(106,57)"/>
<path d="M0 0 C0.33 1.32 0.66 2.64 1 4 C-2.50776784 5.60355101 -5.14354879 6.22036864 -9 6 C-9.33 6.99 -9.66 7.98 -10 9 C-10.66 8.01 -11.32 7.02 -12 6 C-11.07767578 5.72736328 -11.07767578 5.72736328 -10.13671875 5.44921875 C-8.92435547 5.07216797 -8.92435547 5.07216797 -7.6875 4.6875 C-6.48673828 4.32205078 -6.48673828 4.32205078 -5.26171875 3.94921875 C-2.90035427 2.95817977 -1.66120007 1.91925057 0 0 Z " fill="#C7B1B0" transform="translate(121,160)"/>
<path d="M0 0 C0.33 0 0.66 0 1 0 C1.99 4.95 2.98 9.9 4 15 C0 11 0 11 -0.390625 8.203125 C-0.34421875 7.22859375 -0.2978125 6.2540625 -0.25 5.25 C-0.21390625 4.26515625 -0.1778125 3.2803125 -0.140625 2.265625 C-0.09421875 1.51796875 -0.0478125 0.7703125 0 0 Z " fill="#4B3D4C" transform="translate(170,72)"/>
<path d="M0 0 C0 1.98 0 3.96 0 6 C-1.32 5.67 -2.64 5.34 -4 5 C-4.33 5.99 -4.66 6.98 -5 8 C-5.66 8 -6.32 8 -7 8 C-5.84316054 5.30070793 -3.38550714 0 0 0 Z " fill="#BFAEAC" transform="translate(129,152)"/>
<path d="M0 0 C1 2 2 4 3 6 C3.99 6 4.98 6 6 6 C5.625 8.4375 5.625 8.4375 5 11 C4.01 11.495 4.01 11.495 3 12 C-0.42857143 4.71428571 -0.42857143 4.71428571 0 0 Z " fill="#C6B3AF" transform="translate(95,89)"/>
<path d="M0 0 C0.66 0 1.32 0 2 0 C1 4 1 4 0 8 C-1.32 7.34 -2.64 6.68 -4 6 C-4 5.01 -4 4.02 -4 3 C-3.01 2.67 -2.02 2.34 -1 2 C-0.67 1.34 -0.34 0.68 0 0 Z " fill="#3E3A66" transform="translate(158,149)"/>
<path d="M0 0 C2.5654594 2.5654594 2.54046087 4.47686668 3 8 C2.01 8.33 1.02 8.66 0 9 C-0.87890625 2.84765625 -0.87890625 2.84765625 -1 1 C-0.67 0.67 -0.34 0.34 0 0 Z " fill="#D7B7A6" transform="translate(98,82)"/>
<path d="M0 0 C0 0.99 0 1.98 0 3 C-2.875 3.125 -2.875 3.125 -6 3 C-6.66 2.34 -7.32 1.68 -8 1 C-5.29120665 -0.35439668 -2.99066732 -0.06501451 0 0 Z " fill="#EAEBEF" transform="translate(143,209)"/>
<path d="M0 0 C0.66 0.33 1.32 0.66 2 1 C1.67 2.32 1.34 3.64 1 5 C-1.8125 5.625 -1.8125 5.625 -5 6 C-5.99 5.34 -6.98 4.68 -8 4 C-7.05125 3.896875 -6.1025 3.79375 -5.125 3.6875 C-1.70892499 3.31460705 -1.70892499 3.31460705 0 0 Z " fill="#342F49" transform="translate(158,201)"/>
<path d="M0 0 C0 0.66 0 1.32 0 2 C-2.64 2.33 -5.28 2.66 -8 3 C-8 2.34 -8 1.68 -8 1 C-8.66 0.67 -9.32 0.34 -10 0 C-2.25 -1.125 -2.25 -1.125 0 0 Z " fill="#3F3848" transform="translate(133,204)"/>
<path d="M0 0 C0.33 0.66 0.66 1.32 1 2 C1.66 2.33 2.32 2.66 3 3 C3 4.65 3 6.3 3 8 C2.34 8 1.68 8 1 8 C0.67 8.99 0.34 9.98 0 11 C0 9.68 0 8.36 0 7 C-0.185625 5.948125 -0.37125 4.89625 -0.5625 3.8125 C-0.706875 2.884375 -0.85125 1.95625 -1 1 C-0.67 0.67 -0.34 0.34 0 0 Z " fill="#2F2F4B" transform="translate(102,159)"/>
<path d="M0 0 C2.475 0.99 2.475 0.99 5 2 C3.68 3.32 2.36 4.64 1 6 C0.34 5.01 -0.32 4.02 -1 3 C-0.67 2.01 -0.34 1.02 0 0 Z " fill="#464568" transform="translate(162,227)"/>
<path d="M0 0 C0.33 0.66 0.66 1.32 1 2 C3.01669827 3.13350534 3.01669827 3.13350534 5 4 C4.67 4.99 4.34 5.98 4 7 C3.01 6.67 2.02 6.34 1 6 C-0.1875 3.4375 -0.1875 3.4375 -1 1 C-0.67 0.67 -0.34 0.34 0 0 Z " fill="#AA9587" transform="translate(178,93)"/>
<path d="M0 0 C1.98 0.99 3.96 1.98 6 3 C6 3.66 6 4.32 6 5 C1.25 5.125 1.25 5.125 -1 4 C-0.67 2.68 -0.34 1.36 0 0 Z " fill="#B69686" transform="translate(158,161)"/>
<path d="M0 0 C1.98 0 3.96 0 6 0 C6.33 1.32 6.66 2.64 7 4 C6.01 4.33 5.02 4.66 4 5 C4 3.68 4 2.36 4 1 C2.68 0.67 1.36 0.34 0 0 Z " fill="#A58C8E" transform="translate(158,127)"/>
</svg>
