<svg viewBox="0 0 52 52" fill="none" xmlns="http://www.w3.org/2000/svg">
<path d="M26.5109 0C15.1811 0 6 9.94412 6 22.2434C5.99838 25.095 6.50561 27.9239 7.49762 30.5956C11.4044 41.4993 22.3436 52.4029 26.5109 51.9886C30.6781 52.3157 41.7041 41.4338 45.5024 30.5956C46.4944 27.9239 47.0016 25.095 47 22.2434C47 9.94412 37.819 0 26.5109 0ZM7.97512 23.312C7.97512 23.312 24.6008 20.9568 24.6008 37.4649C24.6008 37.4213 7.97512 38.5771 7.97512 23.312ZM28.3992 37.4649C28.3992 20.9568 45.0466 23.312 45.0466 23.312C45.0466 38.5771 28.3992 37.4213 28.3992 37.4213V37.4649Z" fill="black"/>
</svg>
