
<svg version="1.1" id="Layer_1" xmlns="http://www.w3.org/2000/svg" xmlns:xlink="http://www.w3.org/1999/xlink" x="0px" y="0px"
	 width="100%" viewBox="0 0 266 195" enable-background="new 0 0 266 195" xml:space="preserve">
<path fill="#FFFFFF" opacity="0.000000" stroke="none" 
	d="
M1.000000,104.000000 
	C1.000000,69.736015 1.000000,35.472027 1.000000,1.000000 
	C38.687305,1.000000 76.374992,1.000000 114.397903,1.328039 
	C107.114571,4.886461 103.639626,10.382337 103.890381,18.898102 
	C104.297150,32.712593 103.845551,46.551018 104.132462,60.371532 
	C104.188652,63.078197 105.260345,66.442139 107.092041,68.276077 
	C109.905258,71.092766 113.782753,72.846497 117.378868,75.160843 
	C116.275894,79.830055 115.027451,85.115089 113.574356,91.266487 
	C119.549805,87.764191 124.726784,84.960304 129.663971,81.783745 
	C137.658249,76.640274 145.677933,73.142548 155.819138,73.753311 
	C171.421417,74.692970 187.122131,74.031906 202.780899,73.987755 
	C211.856140,73.962166 215.999588,69.741829 215.999893,60.709206 
	C216.000351,46.549568 215.574142,32.372108 216.165634,18.237223 
	C216.500534,10.234076 214.077606,4.613551 207.000000,1.000000 
	C226.962051,1.000000 246.924118,1.000000 267.000000,1.000000 
	C267.000000,57.687511 267.000000,114.375099 266.578033,171.531342 
	C262.817841,172.000031 259.453461,172.261887 256.148224,171.931564 
	C252.312927,171.548279 250.384674,173.465027 249.151505,176.639893 
	C246.013397,184.719177 250.012573,190.141434 259.110046,190.111816 
	C259.429443,190.418930 259.566559,190.531799 259.440704,190.936172 
	C256.178314,191.227661 253.178955,191.227661 250.000000,191.227661 
	C250.000000,193.104538 250.000000,194.552277 250.000000,196.000000 
	C166.999985,196.000000 83.999962,196.000000 1.000000,196.000000 
	C1.000000,184.568985 1.000000,173.253143 1.468472,161.468658 
	C7.866188,161.000000 13.795432,161.000000 20.270412,161.000000 
	C20.270412,152.417938 20.270412,144.461929 20.270412,135.667694 
	C24.457684,142.046417 28.080091,147.564651 32.244946,153.909225 
	C36.560207,147.382217 40.493095,141.433578 45.184677,134.337372 
	C45.184677,144.058578 45.184677,152.322922 45.184677,160.705505 
	C51.558537,160.705505 57.612907,160.705505 63.671181,160.705505 
	C63.671181,141.693893 63.671181,122.978668 63.671181,104.000580 
	C57.868706,104.000580 52.383747,103.828323 46.923256,104.117744 
	C45.500278,104.193169 43.697231,105.392212 42.850975,106.616081 
	C39.217525,111.870781 35.875774,117.327179 32.262901,122.967422 
	C31.417068,121.575867 30.738752,120.475639 30.075682,119.366302 
	C27.242659,114.626556 25.469841,108.082382 21.294851,105.636116 
	C16.888844,103.054512 10.193819,104.368172 4.496879,104.010544 
	C3.335608,103.937653 2.165847,104.000000 1.000000,104.000000 
M120.946587,139.446472 
	C124.022751,140.461639 127.098915,141.476807 130.175079,142.491974 
	C130.120010,142.956467 130.064957,143.420944 130.009888,143.885437 
	C128.856079,144.255875 127.586479,145.140472 126.567780,144.911041 
	C121.090210,143.677368 115.682236,142.138062 110.234024,140.768723 
	C108.547058,140.344711 105.944588,139.254730 105.241257,139.955383 
	C101.800407,143.382996 98.859520,147.312500 95.612000,151.220917 
	C106.224571,159.574402 118.139542,162.017380 130.636368,160.798355 
	C138.382767,160.042725 146.063690,157.003250 148.821228,148.755661 
	C152.732635,137.056946 148.658203,129.107910 134.932205,125.033089 
	C129.626358,123.457947 124.221291,122.216942 117.712509,120.525078 
	C122.349602,116.753799 125.933517,117.870193 129.456085,119.019524 
	C132.920502,120.149864 136.875259,123.103035 139.621429,122.208061 
	C142.586151,121.241867 144.263458,116.621635 146.755356,113.820412 
	C149.006638,111.289665 149.106918,109.700775 145.849503,107.912369 
	C134.381714,101.616211 122.464874,99.957130 110.127808,104.578758 
	C98.552094,108.915169 93.829887,125.801109 105.704865,133.875488 
	C109.815659,136.670609 115.332642,137.397659 120.946587,139.446472 
M168.506790,103.000572 
	C164.080780,103.000572 159.654770,103.000572 155.386993,103.000572 
	C155.386993,122.408333 155.386993,141.132172 155.386993,159.762009 
	C162.053299,159.762009 168.330261,159.762009 175.086136,159.762009 
	C175.086136,154.798965 175.086136,150.053818 175.086136,145.498428 
	C179.971771,144.961166 184.472595,144.947067 188.720261,143.903015 
	C198.809082,141.423264 205.695572,136.570541 205.959641,123.459961 
	C206.159332,113.543961 198.926117,105.304230 188.764603,104.082687 
	C182.392578,103.316696 175.926346,103.334465 168.506790,103.000572 
M174.500000,78.999908 
	C163.732758,78.999908 152.965515,78.999908 142.253067,78.999908 
	C141.731216,87.501945 146.882126,92.961227 154.954819,92.985420 
	C171.453781,93.034859 187.954071,92.907921 204.450912,93.101685 
	C206.895493,93.130394 209.511765,94.157478 211.723892,95.333481 
	C217.577988,98.445633 223.253983,101.892822 229.904770,105.727913 
	C229.089355,102.785233 228.514694,100.969727 228.093658,99.119270 
	C227.672165,97.266907 227.404129,95.379631 227.073044,93.531235 
	C235.718689,91.492653 236.593384,87.978180 236.866852,80.268181 
	C237.345078,66.785881 237.163544,53.271618 236.936646,39.776161 
	C236.807098,32.070259 233.637283,26.485609 223.190292,28.512152 
	C223.130936,29.400011 223.011414,30.364693 223.010315,31.329512 
	C222.996948,43.162193 223.028458,54.994976 222.990784,66.827553 
	C222.965500,74.771416 218.756348,78.999306 210.998093,78.999779 
	C199.165390,79.000504 187.332703,78.999931 174.500000,78.999908 
M79.577148,161.000000 
	C83.662399,161.000000 87.747650,161.000000 91.760071,161.000000 
	C91.760071,141.652802 91.760071,123.047882 91.760071,104.287567 
	C85.460899,104.287567 79.404221,104.287567 73.334000,104.287567 
	C73.334000,123.299606 73.334000,142.022110 73.334000,161.000000 
	C75.313393,161.000000 76.960289,161.000000 79.577148,161.000000 
M152.571243,172.781723 
	C152.726639,171.021957 152.882034,169.262207 153.030975,167.575623 
	C151.749313,167.103806 150.850006,166.486450 149.956009,166.494049 
	C146.405563,166.524277 142.515793,165.922089 139.427582,167.194519 
	C137.378082,168.038956 135.374756,171.681152 135.400375,174.048798 
	C135.421860,176.036514 138.175858,178.275177 140.143845,179.884506 
	C142.219681,181.582062 146.521484,180.137772 147.146225,185.442078 
	C143.223541,184.746735 139.789062,184.137939 136.381638,183.533920 
	C135.601669,189.431290 135.999359,189.926208 141.922729,189.996414 
	C143.753235,190.018127 145.584671,190.024231 147.414917,189.992691 
	C151.303894,189.925705 153.487717,187.876205 153.977112,184.082809 
	C154.468262,180.275909 153.509644,177.232956 149.372787,175.982437 
	C146.861893,175.223434 144.387390,174.344009 141.342758,173.335190 
	C145.347107,169.165268 148.539719,171.933029 152.571243,172.781723 
M37.000000,184.573853 
	C37.001621,183.411041 36.678528,182.117447 37.081680,181.116348 
	C37.672520,179.649200 38.783333,178.391464 39.672577,177.044495 
	C40.448246,178.440338 41.701958,179.773117 41.896164,181.245651 
	C42.256924,183.981049 41.999580,186.797974 41.999580,189.734772 
	C44.183147,189.734772 45.902817,189.734772 48.000000,189.734772 
	C48.000000,186.856995 48.240833,184.199951 47.936897,181.606781 
	C47.584831,178.602966 47.678059,174.664062 45.862350,172.971115 
	C44.157955,171.381927 40.216015,172.192490 36.905273,171.917786 
	C36.905273,170.000320 36.905273,167.727203 36.905273,165.247498 
	C34.523769,165.247498 32.467903,165.247498 30.264027,165.247498 
	C30.264027,173.544357 30.264027,181.593414 30.264027,189.699539 
	C32.585323,189.699539 34.638172,189.699539 36.999969,189.699539 
	C36.999969,188.106552 36.999969,186.800797 37.000000,184.573853 
M174.387665,189.978577 
	C174.925110,186.992416 175.630234,184.025024 175.967041,181.016403 
	C176.812881,173.460587 174.510391,170.703278 165.342255,172.500916 
	C164.494797,164.346283 164.494797,164.346283 158.342743,165.644531 
	C158.342743,173.722183 158.342743,181.779572 158.342743,189.792419 
	C160.631973,189.792419 162.576675,189.792419 165.003998,189.792419 
	C165.003998,186.487335 164.801254,183.350510 165.109970,180.264847 
	C165.223572,179.129501 166.545135,178.115005 167.315704,177.045395 
	C168.209366,178.157928 169.621872,179.162857 169.879929,180.407211 
	C170.309723,182.479614 170.176285,184.723495 169.957764,186.862244 
	C169.665741,189.720413 171.083206,190.313568 174.387665,189.978577 
M89.030472,173.397354 
	C89.030472,174.771362 89.030472,176.145386 89.030472,177.130829 
	C92.474518,176.828537 95.422943,176.569748 98.371368,176.310974 
	C98.382477,176.743805 98.393593,177.176636 98.404709,177.609482 
	C95.861900,178.099899 93.208885,178.285110 90.802773,179.154037 
	C87.406342,180.380585 87.501045,183.643524 88.184090,186.292709 
	C88.560921,187.754288 90.559227,189.684006 91.983437,189.825668 
	C96.533676,190.278290 101.157257,189.993607 105.997421,189.993607 
	C105.997421,185.714340 106.066231,182.085083 105.977898,178.459671 
	C105.891060,174.895798 104.034523,172.376038 100.489876,172.120193 
	C96.751350,171.850357 92.956787,172.356857 89.030472,173.397354 
M197.000000,181.660492 
	C196.984772,173.230209 195.759796,171.999634 187.383118,172.000015 
	C186.223007,172.000076 185.060638,171.953705 183.903168,172.009048 
	C179.678787,172.211044 179.134415,173.395813 181.098297,177.246460 
	C183.927277,176.929062 186.604141,176.628723 189.280991,176.328384 
	C189.285782,176.748856 189.290558,177.169327 189.295334,177.589783 
	C187.083511,178.057037 184.875458,178.543198 182.658997,178.987305 
	C178.929459,179.734573 178.696503,182.516998 179.053818,185.444092 
	C179.422791,188.466553 181.337387,189.980179 184.382553,189.992676 
	C188.476501,190.009476 192.570572,189.996841 197.000000,189.996841 
	C197.000000,187.177414 197.000000,184.883545 197.000000,181.660492 
M76.753387,185.925125 
	C75.818100,185.277573 74.882812,184.630020 73.947525,183.982468 
	C74.066673,183.654984 74.185829,183.327484 74.304985,183.000000 
	C76.238716,183.000000 78.172447,183.000000 80.106178,183.000000 
	C82.021271,183.000000 83.936356,183.000000 85.828056,183.000000 
	C85.994896,174.510040 83.444427,171.891968 75.782784,172.000046 
	C69.196716,172.092957 66.539810,175.495377 67.000854,183.246155 
	C67.306465,188.383942 72.032600,190.659378 80.633469,190.026443 
	C84.591698,189.735153 85.836426,187.913116 84.555573,184.046188 
	C82.185890,184.700272 79.875328,185.338058 76.753387,185.925125 
M12.376572,172.021561 
	C12.917664,173.339249 13.868604,174.639572 13.925370,175.977798 
	C14.119619,180.557129 13.999847,185.149796 13.999847,189.657501 
	C16.657169,189.657501 18.706425,189.657501 21.220961,189.657501 
	C21.220961,183.598923 21.220961,177.872269 21.220961,171.878113 
	C23.975121,171.878113 26.253735,171.878113 28.760592,171.878113 
	C28.760592,169.861679 28.760592,168.141846 28.760592,166.247986 
	C21.475826,166.247986 14.425356,166.247986 7.282127,166.247986 
	C7.282127,168.222763 7.282127,169.946320 7.282127,172.002899 
	C8.856449,172.002899 10.154534,172.002899 12.376572,172.021561 
M245.000000,179.738785 
	C244.888947,172.710419 243.617081,171.560333 236.947128,171.972412 
	C233.798264,172.166946 230.627426,172.005768 227.245941,172.005768 
	C227.245941,178.122009 227.245941,183.859650 227.245941,189.714691 
	C229.550186,189.714691 231.605118,189.714691 234.005203,189.714691 
	C234.005203,186.300781 233.791489,183.144058 234.121674,180.045288 
	C234.236526,178.967484 235.696732,178.033035 236.542496,177.033096 
	C237.360077,178.061462 238.774796,179.031158 238.882660,180.129242 
	C239.198914,183.349060 238.995255,186.619949 238.995255,189.767563 
	C241.349411,189.767563 242.960678,189.767563 245.000000,189.767563 
	C245.000000,186.586487 245.000000,183.626999 245.000000,179.738785 
M122.230309,172.117874 
	C120.612251,172.014389 118.994194,171.910904 117.174942,171.794556 
	C117.041634,170.138657 116.927956,168.726593 116.812042,167.286789 
	C114.731743,167.286789 112.994873,167.286789 111.258011,167.286789 
	C110.845932,169.572525 109.451424,170.799683 108.609650,172.330734 
	C108.038696,173.369232 107.809250,175.801102 108.167702,175.962234 
	C112.769691,178.030899 110.252022,182.102524 111.067551,185.198975 
	C111.490257,186.803925 112.348564,189.255173 113.452736,189.527161 
	C116.056976,190.168686 118.926590,189.732956 121.972206,189.732956 
	C121.889664,188.058548 121.820770,186.661011 121.753357,185.293472 
	C120.006294,185.053452 118.602867,184.860641 117.353645,184.689011 
	C117.353645,181.929306 117.353645,179.532288 117.353645,177.171936 
	C119.332947,177.028336 120.954292,176.910721 122.875008,176.771378 
	C122.875008,175.306595 122.875008,174.020798 122.230309,172.117874 
M201.000000,177.624741 
	C201.000000,181.705139 201.000000,185.785522 201.000000,189.783737 
	C203.651230,189.783737 205.594559,189.783737 208.014648,189.783737 
	C208.014648,186.640259 207.697083,183.650131 208.091995,180.757248 
	C208.631241,176.807144 211.582291,176.396606 215.078873,177.569489 
	C214.954956,175.435242 214.862427,173.841522 214.774353,172.324402 
	C210.117630,172.324402 205.813339,172.324402 201.215729,172.324402 
	C201.144730,173.753433 201.072357,175.210037 201.000000,177.624741 
M61.013470,172.045242 
	C58.505657,172.045242 55.997849,172.045242 53.244858,172.045242 
	C53.244858,178.039856 53.244858,183.784470 53.244858,189.753983 
	C55.148315,189.753983 56.870270,189.753983 58.562630,189.753983 
	C60.151611,176.549377 60.151611,176.549377 65.844467,177.407990 
	C65.844467,175.768524 65.844467,174.143463 65.844467,172.189270 
	C64.428360,172.124191 63.146454,172.065277 61.013470,172.045242 
M222.896469,172.883011 
	C221.120773,172.509537 219.345062,172.136078 217.229721,171.691162 
	C217.229721,178.128143 217.229721,183.825714 217.229721,189.760056 
	C219.133163,189.760056 220.845123,189.760056 222.986404,189.760056 
	C222.986404,184.314697 222.986404,179.068298 222.896469,172.883011 
M217.017685,169.339951 
	C218.788254,170.054642 220.558838,170.769333 222.717606,171.640701 
	C222.717606,168.740921 222.717606,167.027618 222.717606,165.023499 
	C220.074539,165.403717 216.450653,163.302109 217.017685,169.339951 
z"/>
<path fill="#2FA1DB" opacity="1.000000" stroke="none" 
	d="
M206.531342,1.000000 
	C214.077606,4.613551 216.500534,10.234076 216.165634,18.237223 
	C215.574142,32.372108 216.000351,46.549568 215.999893,60.709206 
	C215.999588,69.741829 211.856140,73.962166 202.780899,73.987755 
	C187.122131,74.031906 171.421417,74.692970 155.819138,73.753311 
	C145.677933,73.142548 137.658249,76.640274 129.663971,81.783745 
	C124.726784,84.960304 119.549805,87.764191 113.574356,91.266487 
	C115.027451,85.115089 116.275894,79.830055 117.378868,75.160843 
	C113.782753,72.846497 109.905258,71.092766 107.092041,68.276077 
	C105.260345,66.442139 104.188652,63.078197 104.132462,60.371532 
	C103.845551,46.551018 104.297150,32.712593 103.890381,18.898102 
	C103.639626,10.382337 107.114571,4.886461 114.866562,1.328039 
	C145.354233,1.000000 175.708450,1.000000 206.531342,1.000000 
M139.341156,34.882275 
	C137.657700,32.927017 136.244247,29.810440 134.215851,29.338835 
	C132.132843,28.854528 128.620087,30.329807 127.277969,32.111378 
	C126.103531,33.670357 126.179878,37.473270 127.345284,39.130482 
	C128.532181,40.818249 132.238174,42.367451 133.913315,41.688404 
	C136.304718,40.719025 137.851288,37.665516 139.341156,34.882275 
M155.443817,31.045776 
	C152.977402,34.663715 152.773392,38.618763 156.652466,40.737534 
	C158.769867,41.894066 162.891754,41.485870 164.977631,40.090782 
	C167.943909,38.106861 167.956467,34.139545 165.566971,31.382305 
	C162.964615,28.379444 159.501099,27.695190 155.443817,31.045776 
M185.268814,41.704609 
	C186.250717,41.802578 187.237762,42.019218 188.213608,41.977100 
	C191.654572,41.828606 195.392242,37.816582 194.919800,34.864216 
	C194.369598,31.425856 189.637299,27.862604 186.504974,29.189653 
	C184.489487,30.043552 181.919510,32.306335 181.759064,34.127972 
	C181.561844,36.367107 183.615677,38.804512 185.268814,41.704609 
z"/>
<path fill="#5F6062" opacity="1.000000" stroke="none" 
	d="
M1.000000,104.468658 
	C2.165847,104.000000 3.335608,103.937653 4.496879,104.010544 
	C10.193819,104.368172 16.888844,103.054512 21.294851,105.636116 
	C25.469841,108.082382 27.242659,114.626556 30.075682,119.366302 
	C30.738752,120.475639 31.417068,121.575867 32.262901,122.967422 
	C35.875774,117.327179 39.217525,111.870781 42.850975,106.616081 
	C43.697231,105.392212 45.500278,104.193169 46.923256,104.117744 
	C52.383747,103.828323 57.868706,104.000580 63.671181,104.000580 
	C63.671181,122.978668 63.671181,141.693893 63.671181,160.705505 
	C57.612907,160.705505 51.558537,160.705505 45.184677,160.705505 
	C45.184677,152.322922 45.184677,144.058578 45.184677,134.337372 
	C40.493095,141.433578 36.560207,147.382217 32.244946,153.909225 
	C28.080091,147.564651 24.457684,142.046417 20.270412,135.667694 
	C20.270412,144.461929 20.270412,152.417938 20.270412,161.000000 
	C13.795432,161.000000 7.866188,161.000000 1.468472,161.000000 
	C1.000000,142.312439 1.000000,123.624878 1.000000,104.468658 
z"/>
<path fill="#5F6062" opacity="1.000000" stroke="none" 
	d="
M258.927765,189.917542 
	C250.012573,190.141434 246.013397,184.719177 249.151505,176.639893 
	C250.384674,173.465027 252.312927,171.548279 256.148224,171.931564 
	C259.453461,172.261887 262.817841,172.000031 266.578033,172.000000 
	C267.000000,179.912903 267.000000,187.825806 267.000000,196.000000 
	C261.649780,196.000000 256.295349,196.000000 250.470459,196.000000 
	C250.000000,194.552277 250.000000,193.104538 250.000000,191.227661 
	C253.178955,191.227661 256.178314,191.227661 259.655823,190.752167 
	C260.239502,189.910172 260.345123,189.543671 260.450714,189.177155 
	C259.943085,189.423965 259.435425,189.670761 258.927765,189.917542 
M260.674988,182.800842 
	C260.762787,181.837402 261.222931,180.685074 260.852173,179.954254 
	C260.278381,178.823181 259.277527,177.483963 258.190887,177.176697 
	C257.369568,176.944458 255.227371,178.215637 255.245041,178.767410 
	C255.302185,180.553131 255.939377,182.386353 256.734161,184.015381 
	C256.862244,184.277893 258.936676,183.590790 260.674988,182.800842 
z"/>
<path fill="#5F6062" opacity="1.000000" stroke="none" 
	d="
M120.576950,139.257904 
	C115.332642,137.397659 109.815659,136.670609 105.704865,133.875488 
	C93.829887,125.801109 98.552094,108.915169 110.127808,104.578758 
	C122.464874,99.957130 134.381714,101.616211 145.849503,107.912369 
	C149.106918,109.700775 149.006638,111.289665 146.755356,113.820412 
	C144.263458,116.621635 142.586151,121.241867 139.621429,122.208061 
	C136.875259,123.103035 132.920502,120.149864 129.456085,119.019524 
	C125.933517,117.870193 122.349602,116.753799 117.712509,120.525078 
	C124.221291,122.216942 129.626358,123.457947 134.932205,125.033089 
	C148.658203,129.107910 152.732635,137.056946 148.821228,148.755661 
	C146.063690,157.003250 138.382767,160.042725 130.636368,160.798355 
	C118.139542,162.017380 106.224571,159.574402 95.612000,151.220917 
	C98.859520,147.312500 101.800407,143.382996 105.241257,139.955383 
	C105.944588,139.254730 108.547058,140.344711 110.234024,140.768723 
	C115.682236,142.138062 121.090210,143.677368 126.567780,144.911041 
	C127.586479,145.140472 128.856079,144.255875 130.009888,143.885437 
	C130.064957,143.420944 130.120010,142.956467 130.175079,142.491974 
	C127.098915,141.476807 124.022751,140.461639 120.576950,139.257904 
z"/>
<path fill="#5F6062" opacity="1.000000" stroke="none" 
	d="
M169.004578,103.000580 
	C175.926346,103.334465 182.392578,103.316696 188.764603,104.082687 
	C198.926117,105.304230 206.159332,113.543961 205.959641,123.459961 
	C205.695572,136.570541 198.809082,141.423264 188.720261,143.903015 
	C184.472595,144.947067 179.971771,144.961166 175.086136,145.498428 
	C175.086136,150.053818 175.086136,154.798965 175.086136,159.762009 
	C168.330261,159.762009 162.053299,159.762009 155.386993,159.762009 
	C155.386993,141.132172 155.386993,122.408333 155.386993,103.000572 
	C159.654770,103.000572 164.080780,103.000572 169.004578,103.000580 
M175.000336,123.582077 
	C175.000336,126.003632 175.000336,128.425186 175.000336,131.563507 
	C178.566772,130.542816 181.717026,130.293915 183.981766,128.747864 
	C185.336716,127.822884 186.340775,123.553062 185.713165,123.058792 
	C183.354660,121.201347 180.309631,120.125511 177.383667,119.187912 
	C176.999359,119.064758 175.814575,121.439659 175.000336,123.582077 
z"/>
<path fill="#2FA1DB" opacity="1.000000" stroke="none" 
	d="
M175.000000,78.999908 
	C187.332703,78.999931 199.165390,79.000504 210.998093,78.999779 
	C218.756348,78.999306 222.965500,74.771416 222.990784,66.827553 
	C223.028458,54.994976 222.996948,43.162193 223.010315,31.329512 
	C223.011414,30.364693 223.130936,29.400011 223.190292,28.512152 
	C233.637283,26.485609 236.807098,32.070259 236.936646,39.776161 
	C237.163544,53.271618 237.345078,66.785881 236.866852,80.268181 
	C236.593384,87.978180 235.718689,91.492653 227.073044,93.531235 
	C227.404129,95.379631 227.672165,97.266907 228.093658,99.119270 
	C228.514694,100.969727 229.089355,102.785233 229.904770,105.727913 
	C223.253983,101.892822 217.577988,98.445633 211.723892,95.333481 
	C209.511765,94.157478 206.895493,93.130394 204.450912,93.101685 
	C187.954071,92.907921 171.453781,93.034859 154.954819,92.985420 
	C146.882126,92.961227 141.731216,87.501945 142.253067,78.999908 
	C152.965515,78.999908 163.732758,78.999908 175.000000,78.999908 
z"/>
<path fill="#5F6062" opacity="1.000000" stroke="none" 
	d="
M79.092163,161.000000 
	C76.960289,161.000000 75.313393,161.000000 73.334000,161.000000 
	C73.334000,142.022110 73.334000,123.299606 73.334000,104.287567 
	C79.404221,104.287567 85.460899,104.287567 91.760071,104.287567 
	C91.760071,123.047882 91.760071,141.652802 91.760071,161.000000 
	C87.747650,161.000000 83.662399,161.000000 79.092163,161.000000 
z"/>
<path fill="#5F6062" opacity="1.000000" stroke="none" 
	d="
M152.154755,172.837860 
	C148.539719,171.933029 145.347107,169.165268 141.342758,173.335190 
	C144.387390,174.344009 146.861893,175.223434 149.372787,175.982437 
	C153.509644,177.232956 154.468262,180.275909 153.977112,184.082809 
	C153.487717,187.876205 151.303894,189.925705 147.414917,189.992691 
	C145.584671,190.024231 143.753235,190.018127 141.922729,189.996414 
	C135.999359,189.926208 135.601669,189.431290 136.381638,183.533920 
	C139.789062,184.137939 143.223541,184.746735 147.146225,185.442078 
	C146.521484,180.137772 142.219681,181.582062 140.143845,179.884506 
	C138.175858,178.275177 135.421860,176.036514 135.400375,174.048798 
	C135.374756,171.681152 137.378082,168.038956 139.427582,167.194519 
	C142.515793,165.922089 146.405563,166.524277 149.956009,166.494049 
	C150.850006,166.486450 151.749313,167.103806 153.030975,167.575623 
	C152.882034,169.262207 152.726639,171.021957 152.154755,172.837860 
z"/>
<path fill="#5F6062" opacity="1.000000" stroke="none" 
	d="
M36.999985,185.034439 
	C36.999969,186.800797 36.999969,188.106552 36.999969,189.699539 
	C34.638172,189.699539 32.585323,189.699539 30.264027,189.699539 
	C30.264027,181.593414 30.264027,173.544357 30.264027,165.247498 
	C32.467903,165.247498 34.523769,165.247498 36.905273,165.247498 
	C36.905273,167.727203 36.905273,170.000320 36.905273,171.917786 
	C40.216015,172.192490 44.157955,171.381927 45.862350,172.971115 
	C47.678059,174.664062 47.584831,178.602966 47.936897,181.606781 
	C48.240833,184.199951 48.000000,186.856995 48.000000,189.734772 
	C45.902817,189.734772 44.183147,189.734772 41.999580,189.734772 
	C41.999580,186.797974 42.256924,183.981049 41.896164,181.245651 
	C41.701958,179.773117 40.448246,178.440338 39.672573,177.044495 
	C38.783333,178.391464 37.672520,179.649200 37.081680,181.116348 
	C36.678528,182.117447 37.001621,183.411041 36.999985,185.034439 
z"/>
<path fill="#5F6062" opacity="1.000000" stroke="none" 
	d="
M173.927277,189.987640 
	C171.083206,190.313568 169.665741,189.720413 169.957764,186.862244 
	C170.176285,184.723495 170.309723,182.479614 169.879929,180.407211 
	C169.621872,179.162857 168.209366,178.157928 167.315704,177.045395 
	C166.545135,178.115005 165.223572,179.129501 165.109970,180.264847 
	C164.801254,183.350510 165.003998,186.487335 165.003998,189.792419 
	C162.576675,189.792419 160.631973,189.792419 158.342743,189.792419 
	C158.342743,181.779572 158.342743,173.722183 158.342743,165.644531 
	C164.494797,164.346283 164.494797,164.346283 165.342255,172.500916 
	C174.510391,170.703278 176.812881,173.460587 175.967041,181.016403 
	C175.630234,184.025024 174.925110,186.992416 173.927277,189.987640 
z"/>
<path fill="#5F6062" opacity="1.000000" stroke="none" 
	d="
M89.108589,172.960770 
	C92.956787,172.356857 96.751350,171.850357 100.489876,172.120193 
	C104.034523,172.376038 105.891060,174.895798 105.977898,178.459671 
	C106.066231,182.085083 105.997421,185.714340 105.997421,189.993607 
	C101.157257,189.993607 96.533676,190.278290 91.983437,189.825668 
	C90.559227,189.684006 88.560921,187.754288 88.184090,186.292709 
	C87.501045,183.643524 87.406342,180.380585 90.802773,179.154037 
	C93.208885,178.285110 95.861900,178.099899 98.404709,177.609482 
	C98.393593,177.176636 98.382477,176.743805 98.371368,176.310974 
	C95.422943,176.569748 92.474518,176.828537 89.030472,177.130829 
	C89.030472,176.145386 89.030472,174.771362 89.108589,172.960770 
z"/>
<path fill="#5F6062" opacity="1.000000" stroke="none" 
	d="
M197.000000,182.125076 
	C197.000000,184.883545 197.000000,187.177414 197.000000,189.996841 
	C192.570572,189.996841 188.476501,190.009476 184.382553,189.992676 
	C181.337387,189.980179 179.422791,188.466553 179.053818,185.444092 
	C178.696503,182.516998 178.929459,179.734573 182.658997,178.987305 
	C184.875458,178.543198 187.083511,178.057037 189.295334,177.589783 
	C189.290558,177.169327 189.285782,176.748856 189.280991,176.328384 
	C186.604141,176.628723 183.927277,176.929062 181.098297,177.246460 
	C179.134415,173.395813 179.678787,172.211044 183.903168,172.009048 
	C185.060638,171.953705 186.223007,172.000076 187.383118,172.000015 
	C195.759796,171.999634 196.984772,173.230209 197.000000,182.125076 
z"/>
<path fill="#5F6062" opacity="1.000000" stroke="none" 
	d="
M77.159073,185.950470 
	C79.875328,185.338058 82.185890,184.700272 84.555573,184.046188 
	C85.836426,187.913116 84.591698,189.735153 80.633469,190.026443 
	C72.032600,190.659378 67.306465,188.383942 67.000854,183.246155 
	C66.539810,175.495377 69.196716,172.092957 75.782784,172.000046 
	C83.444427,171.891968 85.994896,174.510040 85.828056,183.000000 
	C83.936356,183.000000 82.021271,183.000000 80.106178,183.000000 
	C78.172447,183.000000 76.238716,183.000000 74.304985,183.000000 
	C74.185829,183.327484 74.066673,183.654984 73.947525,183.982468 
	C74.882812,184.630020 75.818100,185.277573 77.159073,185.950470 
z"/>
<path fill="#5F6062" opacity="1.000000" stroke="none" 
	d="
M11.914596,172.012238 
	C10.154534,172.002899 8.856449,172.002899 7.282127,172.002899 
	C7.282127,169.946320 7.282127,168.222763 7.282127,166.247986 
	C14.425356,166.247986 21.475826,166.247986 28.760592,166.247986 
	C28.760592,168.141846 28.760592,169.861679 28.760592,171.878113 
	C26.253735,171.878113 23.975121,171.878113 21.220961,171.878113 
	C21.220961,177.872269 21.220961,183.598923 21.220961,189.657501 
	C18.706425,189.657501 16.657169,189.657501 13.999847,189.657501 
	C13.999847,185.149796 14.119619,180.557129 13.925370,175.977798 
	C13.868604,174.639572 12.917664,173.339249 11.914596,172.012238 
z"/>
<path fill="#5F6062" opacity="1.000000" stroke="none" 
	d="
M245.000000,180.203156 
	C245.000000,183.626999 245.000000,186.586487 245.000000,189.767563 
	C242.960678,189.767563 241.349411,189.767563 238.995255,189.767563 
	C238.995255,186.619949 239.198914,183.349060 238.882660,180.129242 
	C238.774796,179.031158 237.360077,178.061462 236.542496,177.033096 
	C235.696732,178.033035 234.236526,178.967484 234.121674,180.045288 
	C233.791489,183.144058 234.005203,186.300781 234.005203,189.714691 
	C231.605118,189.714691 229.550186,189.714691 227.245941,189.714691 
	C227.245941,183.859650 227.245941,178.122009 227.245941,172.005768 
	C230.627426,172.005768 233.798264,172.166946 236.947128,171.972412 
	C243.617081,171.560333 244.888947,172.710419 245.000000,180.203156 
z"/>
<path fill="#5F6062" opacity="1.000000" stroke="none" 
	d="
M122.552658,172.426453 
	C122.875008,174.020798 122.875008,175.306595 122.875008,176.771378 
	C120.954292,176.910721 119.332947,177.028336 117.353645,177.171936 
	C117.353645,179.532288 117.353645,181.929306 117.353645,184.689011 
	C118.602867,184.860641 120.006294,185.053452 121.753357,185.293472 
	C121.820770,186.661011 121.889664,188.058548 121.972206,189.732956 
	C118.926590,189.732956 116.056976,190.168686 113.452736,189.527161 
	C112.348564,189.255173 111.490257,186.803925 111.067551,185.198975 
	C110.252022,182.102524 112.769691,178.030899 108.167702,175.962234 
	C107.809250,175.801102 108.038696,173.369232 108.609650,172.330734 
	C109.451424,170.799683 110.845932,169.572525 111.258011,167.286789 
	C112.994873,167.286789 114.731743,167.286789 116.812042,167.286789 
	C116.927956,168.726593 117.041634,170.138657 117.174942,171.794556 
	C118.994194,171.910904 120.612251,172.014389 122.552658,172.426453 
z"/>
<path fill="#5F6062" opacity="1.000000" stroke="none" 
	d="
M201.000000,177.145691 
	C201.072357,175.210037 201.144730,173.753433 201.215729,172.324402 
	C205.813339,172.324402 210.117630,172.324402 214.774353,172.324402 
	C214.862427,173.841522 214.954956,175.435242 215.078873,177.569489 
	C211.582291,176.396606 208.631241,176.807144 208.091995,180.757248 
	C207.697083,183.650131 208.014648,186.640259 208.014648,189.783737 
	C205.594559,189.783737 203.651230,189.783737 201.000000,189.783737 
	C201.000000,185.785522 201.000000,181.705139 201.000000,177.145691 
z"/>
<path fill="#5F6062" opacity="1.000000" stroke="none" 
	d="
M61.439011,172.025818 
	C63.146454,172.065277 64.428360,172.124191 65.844467,172.189270 
	C65.844467,174.143463 65.844467,175.768524 65.844467,177.407990 
	C60.151611,176.549377 60.151611,176.549377 58.562630,189.753983 
	C56.870270,189.753983 55.148315,189.753983 53.244858,189.753983 
	C53.244858,183.784470 53.244858,178.039856 53.244858,172.045242 
	C55.997849,172.045242 58.505657,172.045242 61.439011,172.025818 
z"/>
<path fill="#5F6062" opacity="1.000000" stroke="none" 
	d="
M222.941437,173.352463 
	C222.986404,179.068298 222.986404,184.314697 222.986404,189.760056 
	C220.845123,189.760056 219.133163,189.760056 217.229721,189.760056 
	C217.229721,183.825714 217.229721,178.128143 217.229721,171.691162 
	C219.345062,172.136078 221.120773,172.509537 222.941437,173.352463 
z"/>
<path fill="#5F6062" opacity="1.000000" stroke="none" 
	d="
M217.010254,168.895035 
	C216.450653,163.302109 220.074539,165.403717 222.717606,165.023499 
	C222.717606,167.027618 222.717606,168.740921 222.717606,171.640701 
	C220.558838,170.769333 218.788254,170.054642 217.010254,168.895035 
z"/>
<path fill="#FFFFFF" opacity="0.000000" stroke="none" 
	d="
M139.549927,35.192207 
	C137.851288,37.665516 136.304718,40.719025 133.913315,41.688404 
	C132.238174,42.367451 128.532181,40.818249 127.345284,39.130482 
	C126.179878,37.473270 126.103531,33.670357 127.277969,32.111378 
	C128.620087,30.329807 132.132843,28.854528 134.215851,29.338835 
	C136.244247,29.810440 137.657700,32.927017 139.549927,35.192207 
z"/>
<path fill="#FFFFFF" opacity="0.000000" stroke="none" 
	d="
M155.734741,30.756863 
	C159.501099,27.695190 162.964615,28.379444 165.566971,31.382305 
	C167.956467,34.139545 167.943909,38.106861 164.977631,40.090782 
	C162.891754,41.485870 158.769867,41.894066 156.652466,40.737534 
	C152.773392,38.618763 152.977402,34.663715 155.734741,30.756863 
z"/>
<path fill="#FFFFFF" opacity="0.000000" stroke="none" 
	d="
M184.982666,41.430412 
	C183.615677,38.804512 181.561844,36.367107 181.759064,34.127972 
	C181.919510,32.306335 184.489487,30.043552 186.504974,29.189653 
	C189.637299,27.862604 194.369598,31.425856 194.919800,34.864216 
	C195.392242,37.816582 191.654572,41.828606 188.213608,41.977100 
	C187.237762,42.019218 186.250717,41.802578 184.982666,41.430412 
z"/>
<path fill="#FFFFFF" opacity="0.000000" stroke="none" 
	d="
M260.393188,183.071747 
	C258.936676,183.590790 256.862244,184.277893 256.734161,184.015381 
	C255.939377,182.386353 255.302185,180.553131 255.245041,178.767410 
	C255.227371,178.215637 257.369568,176.944458 258.190887,177.176697 
	C259.277527,177.483963 260.278381,178.823181 260.852173,179.954254 
	C261.222931,180.685074 260.762787,181.837402 260.393188,183.071747 
z"/>
<path fill="#FFFFFF" opacity="0.000000" stroke="none" 
	d="
M259.110046,190.111816 
	C259.435425,189.670761 259.943085,189.423965 260.450714,189.177155 
	C260.345123,189.543671 260.239502,189.910172 259.918823,190.460693 
	C259.566559,190.531799 259.429443,190.418930 259.110046,190.111816 
z"/>
<path fill="#FFFFFF" opacity="0.000000" stroke="none" 
	d="
M175.000427,123.119820 
	C175.814575,121.439659 176.999359,119.064758 177.383667,119.187912 
	C180.309631,120.125511 183.354660,121.201347 185.713165,123.058792 
	C186.340775,123.553062 185.336716,127.822884 183.981766,128.747864 
	C181.717026,130.293915 178.566772,130.542816 175.000336,131.563507 
	C175.000336,128.425186 175.000336,126.003632 175.000427,123.119820 
z"/>
</svg>