<svg xmlns="http://www.w3.org/2000/svg" viewBox="0 0 242.03 232.02" fill="#fff"><title>Recorded Future</title><path d="M83.35,118.92q0,35.24,0,70.47c0,6.46-2.81,11.29-8.75,13.88-5.57,2.42-10.8,1.32-15.29-2.72-3.76-3.37-4.62-7.85-4.61-12.71q.07-54,0-108c0-10.33,0-20.66,0-31,.05-9.46,5.78-15.94,14.1-16.09,8.53-.15,14.51,6.45,14.52,16.14Q83.38,83.93,83.35,118.92Z"/><path d="M159.16,118.33c0-23.49-.07-47,0-70.48,0-10.23,8-16.64,17.52-14.36,6.41,1.54,10.55,7.1,10.57,14.5.05,16.83,0,33.66,0,50.49q0,45.49,0,91c0,5.82-2.34,10.31-7.51,13.13a13.26,13.26,0,0,1-14.22-.54c-4.79-3-6.48-7.64-6.46-13.23C159.21,165.32,159.16,141.83,159.16,118.33Z"/><path d="M135.39,192.24c0,8.15.07,16.31,0,24.46-.09,8.36-5.88,14.53-13.71,14.78-8.21.26-14.65-5.58-14.78-14.18-.24-16.8-.21-33.61,0-50.41.1-8.74,6.22-14.59,14.44-14.51s14,6.23,14.06,14.91C135.45,175.6,135.39,183.92,135.39,192.24Z"/><path d="M135.28,43.71c0,8.16,0,16.32,0,24.47-.06,9.07-5.89,15.26-14.24,15.23-8.16,0-13.93-6-14-14.92q-.19-24.47,0-48.94c.07-9.14,6.06-15.19,14.43-15,8,.17,13.74,6.38,13.8,15.19C135.32,27.72,135.28,35.71,135.28,43.71Z"/><path d="M224.84,135.46a17.19,17.19,0,1,1,17.35-17A17.23,17.23,0,0,1,224.84,135.46Z"/><path d="M17.12,135.59A17.14,17.14,0,0,1,0,118a17.3,17.3,0,0,1,34.6.43A17,17,0,0,1,17.12,135.59Z"/><path d="M138.57,118.2a17.12,17.12,0,1,1-34.24,0,17.12,17.12,0,1,1,34.24,0Z"/></svg>
