<svg version="1.1" viewBox="0 0 200 200" xmlns="http://www.w3.org/2000/svg">
 <g fill="#f5893a">
  <path d="m28.72 15.414-25.17 123.17-2.67-18.67s-6.5-45.83 15.83-94.17c0.01 0.01 2.01-5.66 12.01-10.33z"/>
  <path d="m193.22 53.254s-12.83 2.17-21.33 14.67c0 0-7.33 12.83-10.83 25 0 0-21.33 58.5-40.5 72.33 0 0-5 5-11.83 4.33 0 0-1.83 0.33-1.33-4.5 0 0-0.15-2.94 2.23-6.16l23.06-37.2s5.37-8.98 0.21-12.31c0 0-12.17-10.83-30-5.83 0 0-6.17 0.5-9 14.83 0 0-9.17 33.62-28.67 51.23 0 0-8.5 11.61-19.83-3.56 0 0-13-13-1.83-49l30-71.5 16.5-38.67s1.83-4.33 1.17-6.83c0 0 38.17-2.17 78.33 15.5 0 0 12.76 3.33 17.5 20.67z"/>
  <path d="m200.39 89.084s-31 77.67-71.17 98.5c0 0-25.17 15.33-44.17 1.67 0 0-9.5 7.67-16.33 7.67 0 0 36.67 9 79.17-4.17 0 0 14.13-4.77 18.75-6.67 4.34-1.78 13.98-5.52 19.56-18.38 0 0 9.86-21.49 14.19-78.62z"/>
 </g>
</svg>
