<svg version="1.1" id="Layer_1" xmlns="http://www.w3.org/2000/svg" xmlns:xlink="http://www.w3.org/1999/xlink" x="0px" y="0px"
	 width="100%" viewBox="0 0 240 240" enable-background="new 0 0 240 240" xml:space="preserve">
<path fill="#00C292" opacity="1.000000" stroke="none" 
	d="
M199.739777,123.430710 
	C201.271622,131.500809 203.822647,139.228683 203.686172,146.908798 
	C203.493301,157.761963 198.822235,167.240494 188.879547,172.973633 
	C176.877121,179.894440 158.422806,178.760620 148.395187,167.872375 
	C143.152557,162.179810 139.906616,155.551514 139.950378,147.555267 
	C139.994003,139.582977 132.074997,129.847443 125.038353,129.009293 
	C112.774750,127.548523 103.273102,133.207672 101.007698,143.535294 
	C98.845901,153.390610 101.444923,162.764114 105.361115,171.547424 
	C113.848106,190.582214 128.482162,202.895660 148.406509,209.112503 
	C150.858017,209.877441 154.149933,211.872971 154.734299,213.950333 
	C156.381317,219.805389 152.297760,222.584030 145.470459,220.736008 
	C135.067108,217.920029 125.733665,212.897049 117.581291,205.962402 
	C104.761971,195.057938 95.198105,181.880585 91.595932,165.097595 
	C89.683159,156.185760 88.260460,147.231308 90.869865,138.088669 
	C93.636147,128.396408 106.840881,118.284019 118.397438,117.850883 
	C136.090698,117.187767 146.871033,127.855583 150.205612,137.703720 
	C151.134415,140.446823 152.078461,143.455307 151.877457,146.260483 
	C151.234589,155.231812 159.135834,163.951370 168.427963,165.088913 
	C178.402512,166.310028 188.174957,162.292572 190.260620,153.892944 
	C191.654221,148.280396 191.612411,141.819458 190.387817,136.131104 
	C183.926620,106.118111 164.441803,88.399635 135.303741,81.387047 
	C120.151321,77.740364 104.934807,79.637901 90.516624,86.139984 
	C69.858040,95.456268 55.945908,110.572739 50.592220,132.885315 
	C47.324139,146.505722 49.014572,159.971603 52.682289,173.273453 
	C53.499977,176.238983 54.550446,179.143570 55.570690,182.049194 
	C56.847439,185.685333 56.046124,188.969543 52.652740,190.530579 
	C49.193855,192.121719 46.362766,189.975555 45.384346,186.655273 
	C43.041607,178.705124 40.524128,170.727554 39.183426,162.579041 
	C37.031334,149.499130 37.362823,136.369415 41.751915,123.637062 
	C51.562599,95.177200 72.066452,78.369987 100.583527,71.146873 
	C119.960335,66.238899 139.190857,68.271301 157.277679,76.838585 
	C177.521545,86.427605 191.948029,101.728958 199.739777,123.430710 
z"/>
<path fill="#00C292" opacity="1.000000" stroke="none" 
	d="
M77.654015,169.252411 
	C81.441849,183.037125 88.688828,194.346405 98.008469,204.457764 
	C98.572655,205.069855 99.184776,205.637665 99.772873,206.227798 
	C104.357796,210.828644 105.308304,215.495758 102.214561,218.213791 
	C99.654152,220.463257 94.004456,218.651154 90.747208,214.162704 
	C85.185547,206.498764 78.919395,199.147858 74.658676,190.793594 
	C70.360107,182.365082 67.046806,173.077820 65.334389,163.791962 
	C63.782990,155.379196 64.055878,146.343552 65.156815,137.792725 
	C66.979637,123.635231 75.024620,112.724869 86.352242,104.326042 
	C96.960556,96.460533 109.185776,92.740150 122.213493,93.124504 
	C148.204041,93.891296 172.830048,111.091812 177.034470,138.742401 
	C177.452301,141.490311 177.834457,144.259903 177.961548,147.031906 
	C178.148788,151.115646 175.999863,153.125244 171.935303,152.984833 
	C167.924805,152.846283 166.019577,150.715897 165.969376,146.692581 
	C165.703796,125.409546 148.670822,108.859688 128.966339,104.931129 
	C105.708450,100.294106 80.030960,116.033417 75.567719,140.016663 
	C73.768387,149.685364 75.111916,159.383667 77.654015,169.252411 
z"/>
<path fill="#00C292" opacity="1.000000" stroke="none" 
	d="
M128.726898,56.001312 
	C109.205925,55.020618 90.924118,58.056889 73.965546,67.061066 
	C61.237659,73.818962 50.160667,82.630043 41.698662,94.533218 
	C39.844711,97.141106 37.652981,100.922379 33.399879,97.703514 
	C29.672180,94.882278 30.401855,91.732849 32.888657,88.311478 
	C41.421062,76.572479 51.958969,67.199524 64.461403,59.777824 
	C84.665527,47.784252 106.674110,43.563057 129.659882,45.177277 
	C151.708344,46.725674 172.304733,53.437645 189.445160,68.094490 
	C196.184647,73.857452 202.235413,80.457321 208.332642,86.927834 
	C211.854584,90.665398 212.034378,94.801445 209.471115,96.990997 
	C206.752884,99.312943 201.515335,98.208954 198.793488,94.247841 
	C191.872025,84.174980 182.802948,76.442345 172.525192,70.154518 
	C160.859268,63.017422 148.194870,58.436581 134.498230,56.974602 
	C132.718002,56.784584 130.965714,56.332886 128.726898,56.001312 
z"/>
<path fill="#00C292" opacity="1.000000" stroke="none" 
	d="
M142.327515,33.673790 
	C115.964264,28.879688 91.163025,32.097500 67.747459,44.639561 
	C64.551041,46.351658 61.024986,47.458729 58.458248,43.794109 
	C56.324665,40.747925 58.495625,36.962486 62.925140,34.521454 
	C85.362961,22.156364 109.694901,19.316689 134.628708,21.177555 
	C151.203796,22.414589 166.789917,27.941404 181.527924,35.769379 
	C185.089020,37.660835 184.886856,40.429634 183.818832,43.103531 
	C182.320465,46.854851 179.011032,46.608860 175.857880,45.354343 
	C168.436996,42.401871 161.130188,39.149017 153.639664,36.391350 
	C150.160019,35.110313 146.359970,34.699596 142.327515,33.673790 
z"/>
<path fill="#00C292" opacity="1.000000" stroke="none" 
	d="
M161.701035,200.343872 
	C148.241699,199.241180 136.949142,193.857285 128.792953,184.009369 
	C120.303474,173.759033 114.644264,161.778137 114.942513,147.788086 
	C115.020912,144.110703 116.280357,141.324036 119.945251,141.143494 
	C123.767319,140.955215 125.998436,143.627136 125.947609,147.449707 
	C125.817421,157.240219 129.457260,165.403152 135.416916,173.039688 
	C141.887329,181.330704 150.053528,186.523758 160.293961,187.850540 
	C166.373245,188.638214 172.645859,188.222229 178.813477,187.945175 
	C183.435333,187.737534 186.959564,189.756485 186.918610,193.692261 
	C186.875534,197.832687 184.342468,199.856476 180.276031,199.994278 
	C174.214584,200.199661 168.152420,200.384018 161.701035,200.343872 
z"/>
</svg>