<?xml version="1.0" encoding="UTF-8"?>
<svg id="Orca_Security" data-name="Orca Security" xmlns="http://www.w3.org/2000/svg" viewBox="0 0 212.74 81.25">
  <defs>
    <style>
      .cls-1 { fill: #fff; }
    </style>
  </defs>
  <g id="Orca_Security-2" data-name="Orca Security">
    <g id="Security">
      <path id="Y" class="cls-1" d="M200.79,75.49l-8.48-10.26h4.04s6.05,7.48,6.05,7.48h.27s6.16-7.48,6.16-7.48h3.9s-8.5,10.22-8.5,10.22v5.45s-3.44,0-3.44,0v-5.4Z"/>
      <path id="T" class="cls-1" d="M181.36,68.03h-6.64s0-2.8,0-2.8h13.9s1.97,2.8,1.97,2.8h-5.79s0,13.05,0,13.05h-3.44s0-13.05,0-13.05Z"/>
      <path id="I" class="cls-1" d="M166.85,65.22h3.44s0,15.67,0,15.67h-3.44s0-15.67,0-15.67Z"/>
      <path id="R" class="cls-1" d="M145.8,65.2h9.82c4.71,0,7.02,1.88,7.02,5.27,0,2.58-1.48,4.33-4.31,4.98l5.01,5.45h-4.06s-4.36-4.93-4.36-4.93h-5.68s0,4.93,0,4.93h-3.44s0-15.69,0-15.69ZM155.51,73.43c2.66,0,3.63-1.23,3.63-2.83s-.97-2.8-3.63-2.8h-6.27s0,5.63,0,5.63h6.27Z"/>
      <path id="U" class="cls-1" d="M122.98,74.86v-9.64s3.44,0,3.44,0v9.5c0,2.92,2.48,3.88,5.41,3.88s5.41-.94,5.41-3.79v-9.59s3.44,0,3.44,0v9.55c0,4.73-3.85,6.48-8.91,6.48-5.06,0-8.8-1.75-8.8-6.39Z"/>
      <path id="C" class="cls-1" d="M101,73.11c0-4.42,3.69-8.25,10.55-8.25,3.07,0,5.52.94,7,1.88v2.94s-.03,0-.03,0c-1.99-1.14-4.06-2.22-7.05-2.22-4.36,0-6.92,2.42-6.92,5.63,0,3.16,2.4,5.54,6.86,5.54,2.96,0,5.14-.92,7.1-2.15h.03s0,2.94,0,2.94c-1.43.87-4.01,1.82-7.35,1.82-7.02,0-10.2-3.72-10.2-8.12Z"/>
      <path id="E" class="cls-1" d="M82.81,65.22h15.47s.11,2.58.11,2.58h-12.16s0,3.68,0,3.68h9.9s0,2.58,0,2.58h-9.9s0,4.24,0,4.24h12.6s-.13,2.6-.13,2.6h-15.88s0-15.67,0-15.67Z"/>
      <path id="S" class="cls-1" d="M62.23,79.59v-2.94s.03,0,.03,0c2.64,1.23,5.73,1.97,8.45,1.97,2.91,0,4.44-.81,4.44-2.11s-1.18-1.7-5.68-2.35c-3.74-.56-7.08-1.43-7.08-4.37,0-2.6,2.64-4.96,8.21-4.96,2.4,0,5.09.54,7.11,1.5v2.94s-.03,0-.03,0c-2.18-1.17-4.9-1.82-7.35-1.82-2.91,0-4.33.83-4.33,2.04,0,1.46,2.21,1.73,5.6,2.26,3.77.56,7.16,1.39,7.16,4.57,0,2.02-1.53,4.91-8.07,4.91-3.53,0-6.24-.72-8.45-1.66Z"/>
    </g>
    <g id="Orca">
      <rect id="dot" class="cls-1" x="15.4" y="69.26" width="25.01" height="7.57"/>
      <path id="a" class="cls-1" d="M203.34,1.52c-3.11,0-5.83,2.06-6.71,5.04C193.05,2.48,187.73.04,180.49.04c-13.97,0-25.51,12.26-25.51,28.14,0,15.88,11.53,28.14,25.51,28.14,7.24,0,12.56-2.42,16.16-6.52.88,2.98,3.6,5.04,6.71,5.04h9.05s0-53.33,0-53.33h-9.07ZM183.34,40.76c-6.94,0-12.26-5.02-12.26-12.58s5.32-12.56,12.26-12.56c6.94,0,12.28,5.02,12.28,12.56,0,7.54-5.34,12.58-12.28,12.58Z"/>
      <path id="c" class="cls-1" d="M137.78,34.8c-2.08,3.73-5.98,5.96-10.61,5.96-6.94,0-12.28-5.02-12.28-12.58,0-7.57,5.34-12.58,12.28-12.58,4.57,0,8.47,2.19,10.57,5.87l13.7-7.93C146.5,5.35,137.5,0,127.17,0c-15.69,0-28.27,12.28-28.27,28.16,0,15.88,12.58,28.16,28.27,28.16,10.4,0,19.44-5.38,24.35-13.7l-13.74-7.84Z"/>
      <path id="r" class="cls-1" d="M94.5.37v18.13c-6.6-1.07-16.01,1.61-16.01,12.17v24.09s-15.99,0-15.99,0V1.44s9.05,0,9.05,0c3.11,0,5.83,2.06,6.69,5.06,4.05-3.92,9.82-5.94,15.45-6.11h.04c.26-.02.51-.02.77-.02Z"/>
      <g id="o">
        <path id="o-dark-space" class="cls-1" d="M28.65,0c-2.99,0-5.88.46-8.6,1.31,1.04.96,2.03,2.02,2.95,3.15,1.23,1.52,2.35,3.2,3.33,4.97.98,1.79,1.82,3.7,2.5,5.68.06.17.12.35.18.53,6.57.27,11.77,5.76,11.71,12.5-.06,6.67-5.26,12.12-11.74,12.49-.05.14-.09.28-.14.42-.68,1.98-1.52,3.89-2.5,5.68-.97,1.78-2.09,3.45-3.33,4.97-.98,1.21-2.04,2.34-3.17,3.35,2.62.79,5.4,1.22,8.29,1.22,15.68,0,28.5-12.6,28.65-28.14.15-15.54-12.44-28.14-28.12-28.14Z"/>
        <g id="o-blue-rings">
          <path id="o-sonar-ring3-B" class="cls-1" d="M17.94,34.87c-.35,1.42-.81,2.82-1.37,4.17-.7,1.67-1.56,3.28-2.56,4.78-.99,1.49-2.14,2.89-3.39,4.17-.41.41-.83.81-1.26,1.2,2.05,1.82,4.36,3.34,6.89,4.5.18-.15.37-.29.55-.44,1.29-1.07,2.5-2.3,3.6-3.66,1.11-1.37,2.11-2.87,2.99-4.47.83-1.51,1.55-3.12,2.14-4.79-3.19-.74-5.89-2.74-7.57-5.46Z"/>
          <path id="o-sonar-ring3-A" class="cls-1" d="M10.61,8.18c1.26,1.27,2.4,2.68,3.39,4.17,1,1.51,1.87,3.11,2.56,4.78.59,1.42,1.07,2.89,1.42,4.39,1.7-2.72,4.41-4.75,7.57-5.53-.6-1.72-1.34-3.38-2.19-4.94-.88-1.6-1.88-3.11-2.99-4.47-1.1-1.36-2.31-2.59-3.6-3.66-.09-.08-.19-.16-.28-.23-2.52,1.18-4.84,2.71-6.89,4.52.34.31.68.64,1,.97Z"/>
          <path id="o-sonar-ring2" class="cls-1" d="M8.22,45.63c1.11-1.12,2.11-2.36,2.99-3.67.88-1.33,1.64-2.74,2.26-4.21.62-1.5,1.1-3.06,1.43-4.66.33-1.64.5-3.32.5-5s-.17-3.37-.5-5c-.32-1.59-.8-3.16-1.43-4.66-.61-1.47-1.37-2.89-2.26-4.21-.88-1.31-1.88-2.55-2.99-3.67-.32-.33-.66-.65-1-.96-1.69,1.89-3.14,4.01-4.28,6.31.3.35.58.71.85,1.07.81,1.09,1.5,2.25,2.06,3.45.57,1.23,1.01,2.52,1.3,3.83.3,1.34.45,2.73.44,4.11,0,1.38-.17,2.77-.48,4.11-.3,1.31-.75,2.59-1.33,3.82-.57,1.2-1.27,2.36-2.09,3.44-.26.34-.53.68-.82,1.01,1.09,2.21,2.48,4.25,4.09,6.08.43-.38.85-.77,1.25-1.18Z"/>
          <path id="o-sonar-ring1" class="cls-1" d="M1.4,37.14c.51-.74.96-1.51,1.33-2.3.48-1.01.85-2.06,1.09-3.13.25-1.1.39-2.23.39-3.36,0-1.13-.12-2.27-.36-3.37-.24-1.07-.6-2.13-1.07-3.14-.38-.81-.82-1.6-1.34-2.35C.54,22.21.03,25.12,0,28.14c-.03,3.15.46,6.18,1.4,9Z"/>
        </g>
      </g>
    </g>
  </g>
</svg>
