<?xml version="1.0" encoding="UTF-8"?>
<svg version="1.1" xmlns="http://www.w3.org/2000/svg" width="442" height="103">
<path d="M0 0 C1.55633148 0.01061211 1.55633148 0.01061211 3.144104 0.0214386 C6.45617948 0.04941484 9.76656099 0.11216196 13.078125 0.17578125 C15.32419433 0.20085982 17.57029017 0.22367376 19.81640625 0.24414063 C25.32088992 0.29925185 30.82438645 0.38291064 36.328125 0.48828125 C33.84978381 2.14050871 31.79513901 3.1845255 29.078125 4.30078125 C20.43768488 8.1462381 20.43768488 8.1462381 15.140625 15.67578125 C13.93961874 20.31916214 14.6216869 23.4687403 16.640625 27.765625 C19.81959333 32.89465493 23.87202025 37.28817023 27.85693359 41.79296875 C37.95124123 53.42504181 45.82901359 64.14587259 45.17578125 80.2421875 C44.27226661 88.76964472 42.59475029 97.22165596 36.328125 103.48828125 C34.30331421 103.72879028 34.30331421 103.72879028 31.78662109 103.71533203 C30.84579681 103.71518097 29.90497253 103.71502991 28.93563843 103.71487427 C27.91789337 103.7045517 26.90014832 103.69422913 25.8515625 103.68359375 C24.81117828 103.68076385 23.77079407 103.67793396 22.69888306 103.67501831 C19.36684806 103.66379829 16.03507914 103.6386904 12.703125 103.61328125 C10.44792054 103.60325381 8.19271188 103.59412755 5.9375 103.5859375 C0.40095046 103.56385303 -5.13544327 103.53035764 -10.671875 103.48828125 C-8.39379568 102.34099211 -6.11177808 101.22877982 -3.796875 100.15625 C-2.25 99.42341797 -2.25 99.42341797 -0.671875 98.67578125 C0.359375 98.19496094 1.390625 97.71414062 2.453125 97.21875 C6.68203595 94.67335931 8.74859533 91.71978181 10.828125 87.30078125 C11.62133762 81.25253503 9.79301272 76.82996924 6.17919922 71.93066406 C3.47046694 68.5311897 0.59392229 65.2835318 -2.29980469 62.04150391 C-11.95653851 51.10980629 -19.07492147 41.76777875 -19.046875 26.80078125 C-19.04526367 25.91318115 -19.04365234 25.02558105 -19.04199219 24.11108398 C-18.91648201 17.38336948 -18.09159572 11.40946435 -14.671875 5.48828125 C-14.20587891 4.6281543 -13.73988281 3.76802734 -13.25976562 2.88183594 C-9.23693434 -0.83890349 -5.2855544 -0.1353963 0 0 Z " fill="#2474AC" transform="translate(18.671875,-0.48828125000000006)"/>
<path d="M0 0 C2.58025792 0.01849205 5.16016061 0.02050763 7.74047852 0.02026367 C9.37785144 0.02517134 11.01522192 0.03099635 12.65258789 0.0378418 C13.42538589 0.03895462 14.1981839 0.04006744 14.99440002 0.04121399 C20.37630347 0.08968237 20.37630347 0.08968237 21.49243164 1.20581055 C21.53336101 3.53878488 21.53484887 5.87286279 21.49243164 8.20581055 C20.25565674 8.2308667 19.01888184 8.25592285 17.74462891 8.28173828 C13.17306451 8.37563308 8.60165846 8.47589684 4.03027344 8.578125 C2.04854018 8.62154198 0.06676786 8.66321191 -1.91503906 8.703125 C-4.75720005 8.76066438 -7.59916319 8.82440499 -10.44116211 8.8894043 C-11.77865761 8.91447304 -11.77865761 8.91447304 -13.14317322 8.94004822 C-17.1470523 8.64239755 -17.1470523 8.64239755 -20.50756836 10.20581055 C-20.54837619 12.20539418 -20.55011192 14.20626309 -20.50756836 16.20581055 C-16.94121867 17.39459378 -13.66627528 17.37869721 -9.95288086 17.41674805 C-8.43594299 17.44481689 -6.91901605 17.47348136 -5.40209961 17.50268555 C-3.01684886 17.54392059 -0.63180207 17.58081901 1.75366211 17.60717773 C4.06023974 17.63485857 6.36589818 17.68072541 8.67211914 17.72924805 C9.38061005 17.73250092 10.08910095 17.73575378 10.81906128 17.73910522 C15.20027994 17.84733138 17.98557143 18.55325374 21.49243164 21.20581055 C24.93108265 25.99274721 24.18482062 32.62515538 23.49243164 38.20581055 C22.13940118 41.06799036 20.98358598 42.12019296 18.49243164 44.20581055 C15.66231037 45.1491843 13.94943246 45.32753884 11.02099609 45.31933594 C9.66993523 45.31922264 9.66993523 45.31922264 8.2915802 45.31910706 C7.32274399 45.31394577 6.35390778 45.30878448 5.35571289 45.3034668 C3.86384712 45.30134438 3.86384712 45.30134438 2.34184265 45.29917908 C-0.83715818 45.29357815 -4.01608878 45.28102551 -7.19506836 45.26831055 C-9.34936422 45.26329567 -11.50366118 45.25873274 -13.65795898 45.25463867 C-18.9411861 45.24360843 -24.22437221 45.22686941 -29.50756836 45.20581055 C-29.50756836 42.89581055 -29.50756836 40.58581055 -29.50756836 38.20581055 C-15.31756836 37.87581055 -1.12756836 37.54581055 13.49243164 37.20581055 C13.49243164 33.57581055 13.49243164 29.94581055 13.49243164 26.20581055 C12.43330566 26.19122803 11.37417969 26.17664551 10.28295898 26.16162109 C6.33535822 26.10343727 2.38831593 26.02620648 -1.55883789 25.94335938 C-3.26382348 25.91020418 -4.96891634 25.88214317 -6.67407227 25.859375 C-9.1320547 25.82565487 -11.58906242 25.77333261 -14.04663086 25.7175293 C-14.8031192 25.71113937 -15.55960754 25.70474945 -16.33901978 25.69816589 C-21.07853577 25.56792082 -24.40677587 24.82076953 -28.50756836 22.20581055 C-31.63227203 17.51875505 -31.07076226 12.68954062 -30.50756836 7.20581055 C-29.13256836 4.08081055 -29.13256836 4.08081055 -26.50756836 2.20581055 C-18.09038123 -0.70805396 -8.77616427 -0.06533546 0 0 Z " fill="#2474AB" transform="translate(100.507568359375,30.794189453125)"/>
<path d="M0 0 C8.99599384 0 8.99599384 0 12.2265625 2.7109375 C12.94142822 3.29157959 13.65629395 3.87222168 14.39282227 4.47045898 C15.12944092 5.09895752 15.86605957 5.72745605 16.625 6.375 C18.20775898 7.66766553 19.79241516 8.95801138 21.37890625 10.24609375 C22.54703857 11.20491455 22.54703857 11.20491455 23.73876953 12.18310547 C26.91966942 14.73895269 30.21676195 17.10380796 33.5625 19.4375 C38.87047716 23.14181864 43.86398701 27.00532323 49 31 C49.33 20.77 49.66 10.54 50 0 C52.64 0 55.28 0 58 0 C58 14.85 58 29.7 58 45 C50.12905079 43.87557868 50.12905079 43.87557868 47.44921875 41.734375 C46.53849609 41.02692139 46.53849609 41.02692139 45.609375 40.30517578 C44.97515625 39.79196777 44.3409375 39.27875977 43.6875 38.75 C42.28653985 37.65707829 40.88413868 36.56600178 39.48046875 35.4765625 C38.38871338 34.62239746 38.38871338 34.62239746 37.27490234 33.75097656 C33.41767122 30.78209251 29.45791816 27.95744576 25.5 25.125 C24.05155813 24.08666975 22.60362358 23.04763136 21.15625 22.0078125 C20.54587891 21.57098145 19.93550781 21.13415039 19.30664062 20.68408203 C15.84565015 18.15720732 12.42821711 15.57116283 9 13 C8.67 23.56 8.34 34.12 8 45 C5.36 45 2.72 45 0 45 C0 30.15 0 15.3 0 0 Z " fill="#2474AC" transform="translate(325,31)"/>
<path d="M0 0 C3.83586516 -0.64642076 7.18306241 -0.84000863 11 0 C14.27436117 2.92917249 16.16456388 6.48014049 18.25 10.3125 C18.80945313 11.26962891 19.36890625 12.22675781 19.9453125 13.21289062 C21.07440302 15.14457199 22.19101095 17.08360454 23.29492188 19.02978516 C25.07592452 22.13225913 26.91146638 25.19032047 28.796875 28.23046875 C29.36245117 29.14594482 29.92802734 30.0614209 30.51074219 31.00463867 C31.00219727 31.66310791 31.49365234 32.32157715 32 33 C32.66 33 33.32 33 34 33 C35.27490341 31.4212191 35.27490341 31.4212191 36.50390625 29.3359375 C36.99262207 28.54936768 37.48133789 27.76279785 37.98486328 26.95239258 C38.5054834 26.10185303 39.02610352 25.25131348 39.5625 24.375 C40.10116699 23.51865967 40.63983398 22.66231934 41.19482422 21.7800293 C43.70869731 17.77641218 46.1600751 13.76207 48.44140625 9.62109375 C53.63815361 0.41947167 53.63815361 0.41947167 57.77734375 -0.85546875 C60.34882357 -0.87350157 62.51893181 -0.65264007 65 0 C64.36625674 3.18104398 63.25973112 5.48015039 61.53491211 8.21777344 C61.02024887 9.03832214 60.50558563 9.85887085 59.97532654 10.70428467 C57.60215506 14.41514952 55.22555473 18.12343342 52.82836914 21.81884766 C51.56818604 23.77233485 50.32008398 25.73366874 49.08422852 27.70263672 C47.30039324 30.5439381 45.48120885 33.35940735 43.65234375 36.171875 C43.10617905 37.05615173 42.56001434 37.94042847 41.99729919 38.85150146 C38.29880148 44.41886978 38.29880148 44.41886978 35.05593872 45.86984253 C32.59166244 46.1926059 31.27733206 46.01096002 29 45 C26.05451576 42.25721793 24.02334633 39.04859813 21.875 35.6640625 C21.24263428 34.71437592 20.61026855 33.76468933 19.95874023 32.78622437 C17.94615497 29.748925 15.97372392 26.68765848 14 23.625 C12.64175657 21.56870293 11.28110626 19.51399351 9.91796875 17.4609375 C7.44290975 13.70781907 4.9707738 9.95317562 2.53515625 6.17431641 C2.044104 5.41486725 1.55305176 4.65541809 1.04711914 3.87295532 C0 2 0 2 0 0 Z " fill="#2474AC" transform="translate(175,31)"/>
<path d="M0 0 C3.8125 0.59765625 3.8125 0.59765625 5.36328125 2.10595703 C6.97558354 4.3956653 8.40427594 6.73941119 9.8125 9.16015625 C10.92959857 10.9826242 12.04815076 12.80420174 13.16796875 14.625 C13.75239746 15.59163574 14.33682617 16.55827148 14.93896484 17.55419922 C18.84102875 23.89289204 23.02241468 30.05526747 27.13867188 36.25610352 C27.74904297 37.18608154 28.35941406 38.11605957 28.98828125 39.07421875 C29.80679565 40.31292725 29.80679565 40.31292725 30.6418457 41.57666016 C31.8125 43.59765625 31.8125 43.59765625 31.8125 45.59765625 C28.16242365 46.64608243 25.44580805 46.78383913 21.8125 45.59765625 C18.27766308 41.72643079 15.75851548 37.40196635 13.14501953 32.875 C10.81699578 28.89628883 8.30721617 25.03557516 5.8125 21.16015625 C5.10879272 20.03299194 5.10879272 20.03299194 4.39086914 18.88305664 C3.25116143 17.08646171 2.03844893 15.33654562 0.8125 13.59765625 C0.1525 13.59765625 -0.5075 13.59765625 -1.1875 13.59765625 C-2.9421138 16.08640534 -4.57676904 18.58016525 -6.1875 21.16015625 C-6.67661865 21.91997803 -7.1657373 22.6797998 -7.66967773 23.46264648 C-10.12806982 27.2848297 -12.51293982 31.13058713 -14.78515625 35.06640625 C-20.75361251 45.12952837 -20.75361251 45.12952837 -25.03515625 46.52734375 C-27.60289841 46.53456665 -29.72574665 46.30475562 -32.1875 45.59765625 C-30.48097393 40.38418301 -27.37762864 36.12206577 -24.33984375 31.61328125 C-23.76794815 30.75708191 -23.19605255 29.90088257 -22.60682678 29.01873779 C-21.40108142 27.2153199 -20.19314165 25.41336748 -18.9831543 23.61279297 C-17.12418768 20.84644743 -15.27147311 18.07600043 -13.41992188 15.3046875 C-12.24775435 13.55314544 -11.07524037 11.80183517 -9.90234375 10.05078125 C-9.34506088 9.21855042 -8.78777802 8.38631958 -8.21360779 7.52886963 C-7.69959915 6.76427429 -7.18559052 5.99967896 -6.65600586 5.21191406 C-6.20237167 4.53638489 -5.74873749 3.86085571 -5.28135681 3.16485596 C-3.45909386 0.5540481 -3.46224952 0.64917179 0 0 Z " fill="#2474AC" transform="translate(156.1875,30.40234375)"/>
<path d="M0 0 C10.31383964 -1.06694893 10.31383964 -1.06694893 14.07421875 1.3125 C15.82012647 3.1357323 17.39667552 5.05093493 19 7 C20.35173398 8.23430535 21.72733329 9.44295845 23.125 10.625 C26.22717719 13.29866633 29.14959264 16.06051741 32 19 C35.48654476 17.5158627 37.64191072 15.53785948 40.25 12.8125 C44.32172683 8.63965413 48.57633525 4.79171264 53 1 C53.33 0.67 53.66 0.34 54 0 C55.85287502 -0.07226502 57.70833878 -0.0838122 59.5625 -0.0625 C60.57441406 -0.05347656 61.58632813 -0.04445313 62.62890625 -0.03515625 C63.80259766 -0.01775391 63.80259766 -0.01775391 65 0 C61.70841201 7.867257 53.38963881 13.8494187 46.984375 19.234375 C46.32953125 19.81703125 45.6746875 20.3996875 45 21 C44.49259277 21.39848145 43.98518555 21.79696289 43.46240234 22.20751953 C40.13419177 25.06465421 38.62918909 27.09274857 38.1953125 31.5234375 C38.1427433 33.13994027 38.11984099 34.7576509 38.125 36.375 C38.104375 37.20644531 38.08375 38.03789063 38.0625 38.89453125 C38.01572471 40.92925655 38.00426679 42.96474159 38 45 C34.7 45 31.4 45 28 45 C28.05542969 43.82824219 28.11085938 42.65648437 28.16796875 41.44921875 C28.51118536 31.98082137 28.51118536 31.98082137 24.765625 23.6015625 C21.97151493 20.84604511 19.10284851 18.39992439 16 16 C14.59752503 14.75745638 13.20082082 13.50833859 11.8125 12.25 C9.79568296 10.51712408 7.76484417 8.80208055 5.73046875 7.08984375 C4.99441406 6.46207031 4.25835937 5.83429687 3.5 5.1875 C2.8296875 4.62417969 2.159375 4.06085937 1.46875 3.48046875 C0 2 0 2 0 0 Z " fill="#2474AC" transform="translate(256,31)"/>
<path d="M0 0 C17.82 0 35.64 0 54 0 C54 2.31 54 4.62 54 7 C46.74 7 39.48 7 32 7 C32 19.21 32 31.42 32 44 C29.03 44 26.06 44 23 44 C23 31.79 23 19.58 23 7 C15.41 7 7.82 7 0 7 C0 4.69 0 2.38 0 0 Z " fill="#2574AC" transform="translate(388,32)"/>
<path d="M0 0 C2.97 0 5.94 0 9 0 C9 14.85 9 29.7 9 45 C6.03 45 3.06 45 0 45 C0 30.15 0 15.3 0 0 Z " fill="#2474AC" transform="translate(244,31)"/>
</svg>
