<?xml version="1.0" standalone="no"?>
<svg version="1.0" xmlns="http://www.w3.org/2000/svg"
 width="200" height="200" viewBox="0 0 200 200"
 preserveAspectRatio="xMidYMid meet" role="img" aria-label="CyberMindr">
<g transform="translate(0,200) scale(0.1,-0.1)" fill="#FFFFFF" stroke="none">
<path d="M0 1000 l0 -1000 1000 0 1000 0 0 1000 0 1000 -1000 0 -1000 0 0
-1000z m1348 697 c25 -26 310 -552 305 -564 -4 -10 -94 -13 -403 -13 l-398 0
-12 -30 c-12 -28 -9 -36 50 -140 57 -99 66 -110 92 -110 23 0 33 -9 58 -52 17
-29 33 -63 36 -74 4 -17 -27 -71 -126 -218 l-131 -197 -122 3 -122 3 -202 355
c-142 249 -202 362 -200 380 2 14 94 170 206 347 155 246 207 322 224 325 12
2 181 2 376 1 288 -2 357 -5 369 -16z m354 -871 c8 -7 22 -38 33 -68 l18 -56
-33 -58 c-18 -33 -71 -123 -117 -201 l-85 -143 -84 0 c-46 0 -84 2 -84 5 0 3
13 26 29 52 174 290 202 343 191 363 -7 13 -21 20 -41 20 -26 0 -29 -3 -23
-24 5 -20 -19 -65 -113 -220 l-118 -196 -83 0 c-76 0 -82 1 -73 18 5 9 55 91
111 182 56 91 106 173 111 182 15 28 -6 58 -41 58 -27 0 -29 -3 -24 -27 4 -22
-9 -51 -63 -138 -37 -60 -91 -147 -118 -192 l-50 -83 -87 0 c-49 0 -88 2 -88
4 0 6 83 138 183 290 l68 105 -36 70 -35 71 319 0 c256 0 322 -3 333 -14z"/>
<path d="M624 1527 c-34 -52 -35 -56 -24 -77 15 -27 21 -25 48 15 l22 35 290
0 c160 0 290 4 290 8 0 5 -10 18 -23 30 -23 22 -30 22 -303 22 l-279 0 -21
-33z"/>
<path d="M722 1308 c-19 -29 -19 -33 -4 -56 l16 -24 19 26 19 26 309 0 310 0
-16 30 -16 30 -308 0 -309 0 -20 -32z"/>
<path d="M471 1291 c-11 -20 6 -54 165 -337 175 -309 178 -314 210 -314 23 0
36 7 48 25 16 25 16 25 -16 25 -33 1 -35 4 -198 290 -91 159 -172 299 -181
311 l-17 22 -11 -22z"/>
<path d="M339 1087 c-11 -23 2 -49 167 -341 l179 -315 34 -1 c21 0 39 7 47 17
20 27 17 33 -15 33 -34 0 -20 -20 -236 355 -176 306 -161 284 -176 252z"/>
</g>
</svg>
