<?xml version="1.0" encoding="UTF-8"?>
<svg version="1.1" xmlns="http://www.w3.org/2000/svg" width="400" height="400">
<path d="M0 0 C132 0 264 0 400 0 C400 132 400 264 400 400 C268 400 136 400 0 400 C0 268 0 136 0 0 Z " fill="#FEFEFE" transform="translate(0,0)"/>
<path d="M0 0 C13.88762772 -0.72039567 22.65668844 1.69581557 33 11 C43.25652189 20.25867845 51.4942554 30.50986071 59.43945312 41.78564453 C60.81694154 43.74024714 62.20802053 45.68357363 63.609375 47.62109375 C67.19957399 52.59386735 70.73005719 57.60700164 74.234375 62.640625 C91.55608217 87.64568395 91.55608217 87.64568395 111 111 C111.4650293 111.51030762 111.93005859 112.02061523 112.40917969 112.54638672 C119.89091305 120.65377938 129.52952009 130.17439626 141.0859375 131.30078125 C151.6573695 131.33844668 157.93033718 128.6597907 166 122 C168.26595342 119.73404658 168.76657678 118.1247968 169.8125 115.125 C171.78725189 109.99952038 174.0569339 107.47153305 179 105 C184.20185538 104.48151441 188.63560371 104.37981987 193.4375 106.5625 C197.76389273 110.67784918 199.71239095 113.98673668 200.5625 119.9375 C200.29920322 124.77087668 198.05720594 128.35325022 195 132 C192.17974383 134.22651803 190.1984861 134.95505975 186.6875 135.75 C182.46936391 137.17987664 180.43510013 139.09356142 177.21875 142.0625 C166.02209243 151.83986295 153.73095351 155.99933703 139.046875 155.37890625 C133.53659112 154.97087919 128.92621964 153.48162944 124 151 C122.57494141 150.30583984 122.57494141 150.30583984 121.12109375 149.59765625 C112.52633944 145.01453433 105.80476924 138.85674579 99 132 C98.48937012 131.48663086 97.97874023 130.97326172 97.45263672 130.44433594 C89.09760856 121.94159754 81.94699008 112.66875006 75 103 C74.52095215 102.33516602 74.0419043 101.67033203 73.54833984 100.98535156 C65.40980366 89.65474653 57.58845569 78.10539504 49.74707031 66.56835938 C35.80072508 46.06590664 21.86830767 25.71866342 5.56640625 6.99609375 C3.6108646 4.71314025 1.7567126 2.43557781 0 0 Z " fill="#0574E6" transform="translate(150,128)"/>
<path d="M0 0 C15.13583787 9.54453268 27.12940541 23.47145721 37.70703125 37.70703125 C38.24295898 38.41988281 38.77888672 39.13273437 39.33105469 39.8671875 C47.59321283 50.85826153 55.480827 62.0728908 63.18408203 73.4609375 C65.99804285 77.61105606 68.84597005 81.73779349 71.69091797 85.86669922 C73.91846373 89.10111825 76.13917813 92.33971225 78.34375 95.58984375 C88.24835353 110.16248892 98.42491648 124.49622719 110.0859375 137.7265625 C117.70703125 146.39257521 117.70703125 146.39257521 117.70703125 147.70703125 C102.71895279 148.81270917 93.67618028 144.86814554 82.16796875 134.9921875 C78.70671206 131.77816343 75.66077678 128.38699318 72.70703125 124.70703125 C71.84271484 123.67255859 71.84271484 123.67255859 70.9609375 122.6171875 C60.77645662 110.2306567 51.77840397 96.84538116 42.55078125 83.7421875 C30.08437337 66.04343566 17.44496541 48.61854165 2.70703125 32.70703125 C2.1346875 32.06894531 1.56234375 31.43085938 0.97265625 30.7734375 C-5.73729584 23.6001792 -14.45720169 17.53114022 -24.37109375 16.3359375 C-32.1769517 16.17251437 -37.7567245 17.33185762 -44.29296875 21.70703125 C-46.54378816 23.68323656 -46.54378816 23.68323656 -47.54296875 27.01953125 C-49.21612001 30.96750886 -51.44101382 33.73663921 -55.29296875 35.70703125 C-59.58219993 37.00026678 -63.38449588 37.46977673 -67.609375 35.78125 C-71.83893563 33.26532351 -75.1964384 30.59788399 -76.98046875 25.89453125 C-77.65970196 21.13989876 -77.90016456 17.85395667 -75.60546875 13.51953125 C-71.9006194 9.01363339 -69.40803811 6.75719806 -63.60546875 5.89453125 C-59.39618927 5.19919305 -56.87960383 3.96325873 -53.48046875 1.39453125 C-36.85087538 -10.94855203 -17.47090071 -10.04271355 0 0 Z " fill="#A835F7" transform="translate(127.29296875,124.29296875)"/>
<path d="M0 0 C5.67507225 2.00296668 9.30675089 5.61350179 12 11 C12.37364646 16.60469691 12.20860998 20.18708503 9 25 C6.0942537 27.84117416 4.0024405 29.72272922 0.0625 30.8125 C-3.8744071 32.33905582 -5.51158749 34.57140853 -8.1484375 37.7890625 C-9.99550708 39.99463503 -11.94285314 41.99050906 -14 44 C-16.59982183 46.55990134 -19.06268398 49.1677954 -21.4375 51.9375 C-24.71130653 55.74824063 -28.23363971 59.25078165 -31.80859375 62.77734375 C-34.42101068 65.4270144 -36.83302621 68.21172803 -39.25390625 71.03515625 C-41.65209001 73.73378361 -44.21611524 76.24314575 -46.8125 78.75 C-49.34760242 81.35753391 -51.71104427 84.08823239 -54.09570312 86.83300781 C-57.24236269 90.41374503 -60.49237159 93.89540893 -63.75 97.375 C-64.40871094 98.08527344 -65.06742187 98.79554688 -65.74609375 99.52734375 C-66.38160156 100.20667969 -67.01710938 100.88601562 -67.671875 101.5859375 C-68.2400293 102.1948584 -68.80818359 102.8037793 -69.39355469 103.43115234 C-71 105 -71 105 -74 107 C-75.79419526 105.06478939 -77.58541329 103.1269646 -79.375 101.1875 C-79.88289063 100.64029297 -80.39078125 100.09308594 -80.9140625 99.52929688 C-83.15216303 97.09977985 -85.16379112 94.75431332 -87 92 C-86.76295964 88.11253802 -84.6106364 86.32798956 -81.875 83.75 C-78.30157237 80.36204439 -75.0530636 76.81054738 -71.83398438 73.09228516 C-68.9087856 69.75509752 -65.86043148 66.53728079 -62.8125 63.3125 C-57.48669304 57.65773441 -52.18852089 51.980101 -46.94458008 46.24926758 C-44.03890732 43.08461662 -41.03745326 40.03745326 -38 37 C-35.77598797 34.58524241 -33.59468423 32.13715188 -31.41796875 29.6796875 C-29.81232339 27.90024854 -28.16861865 26.15439596 -26.48828125 24.4453125 C-21.88514989 19.6865197 -19.50374752 16.67958704 -18.65234375 10.11328125 C-17.35201712 5.90084589 -13.49365533 3.44555873 -10 1 C-6.79610447 -0.60194777 -3.48419843 -0.3516761 0 0 Z " fill="#FB8506" transform="translate(338,121)"/>
<path d="M0 0 C0.66 0 1.32 0 2 0 C3.54091405 1.69588264 5.00923297 3.45821672 6.4375 5.25 C7.21996094 6.22453125 8.00242187 7.1990625 8.80859375 8.203125 C9.53175781 9.12609375 10.25492187 10.0490625 11 11 C11.60972656 11.69609375 12.21945313 12.3921875 12.84765625 13.109375 C14 15 14 15 13.9453125 16.984375 C12.69187072 19.65700294 11.02179584 21.22691782 8.875 23.25 C5.31330542 26.62683154 2.07792984 30.16612357 -1.13037109 33.87207031 C-4.24539529 37.41745434 -7.50142938 40.82737055 -10.75 44.25 C-16.32958367 50.15311222 -21.8664051 56.08804903 -27.33984375 62.08984375 C-29.79096691 64.77132209 -32.25633118 67.43863599 -34.72753906 70.1015625 C-36.26666861 71.76302582 -37.8003593 73.42931827 -39.33203125 75.09765625 C-40.86084945 76.76077766 -42.39600839 78.41822931 -43.94921875 80.05859375 C-47.32712232 83.74280595 -49.17127063 87.36451603 -51.06640625 91.98046875 C-52.27213671 94.58868066 -53.73503197 96.24647636 -56 98 C-61.11169558 99.70389853 -66.55220884 99.48955823 -71.8125 98.4375 C-75.26168137 96.1708951 -77.37388979 93.82069796 -79 90 C-79.88969746 85.10002443 -80.108731 80.41591191 -77.99609375 75.8125 C-74.62510697 71.35626677 -70.6543362 69.95364544 -65.51953125 68.14453125 C-59.03128212 65.19715606 -54.66417384 58.63617503 -50.11328125 53.33203125 C-47.34689332 50.27928893 -44.42876438 47.39611695 -41.5 44.5 C-37.3995557 40.44058903 -33.41715313 36.35514996 -29.671875 31.9609375 C-24.56211082 25.96770942 -19.26652277 20.17456875 -13.6328125 14.671875 C-11.35216178 12.33666326 -9.30321752 9.83003828 -7.26171875 7.28515625 C-6.84535156 6.86105469 -6.42898437 6.43695313 -6 6 C-5.34 6 -4.68 6 -4 6 C-3.71125 5.38125 -3.4225 4.7625 -3.125 4.125 C-2 2 -2 2 0 0 Z " fill="#FCB606" transform="translate(130,174)"/>
<path d="M0 0 C4.48446812 2.5862367 7.11622568 5.02482635 8.73828125 10.09375 C9.33265855 15.54220861 8.36356998 19.29580854 5.73828125 24.09375 C1.26741161 28.23748284 -1.22839022 29.22490932 -7.26171875 29.09375 C-7.47401123 29.63201416 -7.68630371 30.17027832 -7.9050293 30.72485352 C-9.76552722 33.97344292 -12.31809811 36.39585833 -14.96875 38.99609375 C-15.53115891 39.55567276 -16.09356781 40.11525177 -16.67301941 40.69178772 C-18.46876576 42.47637178 -20.27132922 44.25388555 -22.07421875 46.03125 C-23.2758511 47.22284311 -24.47702795 48.41489576 -25.67773438 49.60742188 C-28.3900163 52.29977899 -31.10595131 54.98835207 -33.82878113 57.67004395 C-35.23036894 59.06260216 -36.61084423 60.47630791 -37.99072266 61.89038086 C-41.9918387 65.7723495 -45.74241363 66.39852085 -51.19921875 66.46875 C-56.5581583 66.37635449 -59.40492348 65.84630756 -63.26171875 62.09375 C-64.21875 60.28125 -64.21875 60.28125 -64.26171875 58.09375 C-62.64901639 56.12674182 -61.12635345 54.53965561 -59.26171875 52.84375 C-58.23244245 51.8653102 -57.20509891 50.88483323 -56.1796875 49.90234375 C-55.67614746 49.42394043 -55.17260742 48.94553711 -54.65380859 48.45263672 C-52.85067519 46.69251035 -51.20507367 44.82602094 -49.57421875 42.90625 C-47.24342486 40.17493782 -44.82041134 37.61330389 -42.26171875 35.09375 C-39.02900085 31.90454946 -35.9989834 28.60869111 -33.0546875 25.15234375 C-31.80302403 23.71524865 -30.50993777 22.31365335 -29.1875 20.94140625 C-24.76094031 16.2857455 -22.31400423 12.31409005 -20.19140625 6.265625 C-18.88349419 3.21016657 -17.08888882 1.76105542 -14.26171875 0.09375 C-9.46674457 -1.50457473 -4.7726973 -1.91237612 0 0 Z " fill="#F926A8" transform="translate(341.26171875,179.90625)"/>
<path d="M0 0 C2.49285557 1.30039682 4.39112951 2.52896949 5.734375 5.046875 C5.76953125 7.23828125 5.76953125 7.23828125 3.953125 9.7265625 C3.04691406 10.65855469 2.14070313 11.59054688 1.20703125 12.55078125 C0.18484057 13.61973882 -0.8372921 14.68875187 -1.859375 15.7578125 C-2.4073877 16.32193848 -2.95540039 16.88606445 -3.52001953 17.46728516 C-6.46610226 20.517654 -9.34360866 23.63198481 -12.23046875 26.73828125 C-15.61415042 30.37803535 -19.00051148 34.01106028 -22.4609375 37.578125 C-27.58694268 42.91667993 -30.9949794 47.15923164 -33.23046875 54.23828125 C-37.18811158 59.02911204 -40.44473527 60.87035419 -46.54296875 61.67578125 C-52.3189975 60.9904897 -56.28164265 58.30890898 -60.23046875 54.11328125 C-61.8350988 49.49996986 -61.8748743 45.06070079 -61.23046875 40.23828125 C-59.27167945 36.32070264 -57.13718764 33.30016067 -53.23046875 31.23828125 C-51.85955446 31.05804152 -50.48343873 30.91519753 -49.10546875 30.80078125 C-47.82671875 30.61515625 -46.54796875 30.42953125 -45.23046875 30.23828125 C-44.52043724 28.92752671 -43.86402834 27.58766054 -43.23046875 26.23828125 C-41.52260896 24.32952829 -39.80573909 22.50944392 -37.99609375 20.703125 C-37.48044861 20.18319473 -36.96480347 19.66326447 -36.43353271 19.12757874 C-35.34333033 18.03164657 -34.25051541 16.93830788 -33.15527344 15.84741211 C-31.4912976 14.18658958 -29.84107004 12.51291492 -28.19140625 10.83789062 C-27.1271141 9.77132452 -26.06203482 8.70554316 -24.99609375 7.640625 C-24.50836487 7.14368637 -24.02063599 6.64674774 -23.51812744 6.13475037 C-16.87922094 -0.41683926 -9.05442245 -3.09214077 0 0 Z " fill="#22ABF9" transform="translate(112.23046875,156.76171875)"/>
<path d="M0 0 C0 0.33 0 0.66 0 1 C-1.28777344 1.13277344 -2.57554688 1.26554687 -3.90234375 1.40234375 C-5.58075362 1.58049899 -7.25913773 1.75889692 -8.9375 1.9375 C-9.78763672 2.02451172 -10.63777344 2.11152344 -11.51367188 2.20117188 C-12.32255859 2.28818359 -13.13144531 2.37519531 -13.96484375 2.46484375 C-14.7137085 2.543396 -15.46257324 2.62194824 -16.23413086 2.70288086 C-18.02140013 2.8280738 -18.02140013 2.8280738 -19 4 C-20.66617115 4.04063832 -22.33388095 4.042721 -24 4 C-24.33 4.66 -24.66 5.32 -25 6 C-26.6476038 6.71247732 -28.31763529 7.37400383 -30 8 C-33.27098074 9.40184889 -33.92180103 9.88270155 -36 13 C-38.828125 13.7734375 -38.828125 13.7734375 -42.25 14.375 C-47.94277029 15.56519202 -51.06642452 16.73862657 -55 21 C-57.44433951 25.88867901 -56.05609621 32.85153098 -55 38 C-58.66652597 34.81171654 -58.8739961 32.36084211 -59.3125 27.625 C-58.85163646 22.27898294 -56.47267709 19.55930515 -52.875 15.75 C-50.01872585 14.01139835 -48.53493205 13.66657832 -45.3125 13.1875 C-41.10322052 12.4921618 -38.58663508 11.25622748 -35.1875 8.6875 C-23.97586975 0.36582413 -13.45775307 -0.72526813 0 0 Z " fill="#A24BE0" transform="translate(109,117)"/>
<path d="M0 0 C0.66 0 1.32 0 2 0 C2.66 1.32 3.32 2.64 4 4 C3.1646875 4.0928125 3.1646875 4.0928125 2.3125 4.1875 C-2.13778981 5.75111534 -4.80572246 9.73570553 -7.6875 13.3125 C-8.450625 14.199375 -9.21375 15.08625 -10 16 C-10.66 16 -11.32 16 -12 16 C-12.3403125 17.1446875 -12.3403125 17.1446875 -12.6875 18.3125 C-14.30739008 21.62941778 -15.84967326 22.16841469 -19 24 C-20.81276794 25.91128794 -22.37931355 27.91626028 -24 30 C-24.99 29.67 -25.98 29.34 -27 29 C-22.8335262 24.10439329 -18.51542174 19.46536501 -13.92578125 14.96484375 C-12.04907639 13.05007185 -10.33297668 11.06536353 -8.625 9 C-7.325625 7.515 -7.325625 7.515 -6 6 C-5.34 6 -4.68 6 -4 6 C-3.566875 5.071875 -3.566875 5.071875 -3.125 4.125 C-2 2 -2 2 0 0 Z " fill="#F7BA24" transform="translate(130,174)"/>
<path d="M0 0 C10.55808656 -0.3690205 10.55808656 -0.3690205 15 2 C15 2.99 15 3.98 15 5 C14.34 5 13.68 5 13 5 C13.45822468 8.46941546 13.89131683 11.67395049 15 15 C13.68 14.67 12.36 14.34 11 14 C10 10 10 10 9 6 C8.071875 6.061875 7.14375 6.12375 6.1875 6.1875 C3 6 3 6 1.125 4.6875 C0 3 0 3 0 0 Z " fill="#0274EB" transform="translate(153,129)"/>
<path d="M0 0 C-0.33 0.66 -0.66 1.32 -1 2 C-2.37285156 2.14695313 -2.37285156 2.14695313 -3.7734375 2.296875 C-7.99571087 3.216983 -9.04926249 4.8460218 -11.625 8.25 C-12.35976563 9.20390625 -13.09453125 10.1578125 -13.8515625 11.140625 C-15.27637182 13.03691667 -16.68804114 14.94315751 -18.0859375 16.859375 C-18.71757812 17.56578125 -19.34921875 18.2721875 -20 19 C-20.99 19 -21.98 19 -23 19 C-23.226875 19.7425 -23.45375 20.485 -23.6875 21.25 C-25.24407532 24.51139591 -27.08518854 25.92894975 -30 28 C-30.66 27.67 -31.32 27.34 -32 27 C-31.57589844 26.5875 -31.15179688 26.175 -30.71484375 25.75 C-27.5353697 22.61944093 -24.47139071 19.44726915 -21.5625 16.0625 C-18.44721922 12.43975266 -15.13029621 9.08494309 -11.69921875 5.76171875 C-9.80910864 3.90690694 -9.80910864 3.90690694 -8 1 C-2.54545455 -1.27272727 -2.54545455 -1.27272727 0 0 Z " fill="#FEEECC" transform="translate(343,151)"/>
<path d="M0 0 C0.33 0.66 0.66 1.32 1 2 C0.21072301 3.12667784 -0.58151655 4.25128067 -1.375 5.375 C-1.81585938 6.00148437 -2.25671875 6.62796875 -2.7109375 7.2734375 C-4.29120397 9.39003683 -5.62332004 10.81166002 -8 12 C-8 12.66 -8 13.32 -8 14 C-8.99 14.495 -8.99 14.495 -10 15 C-10.33 15.99 -10.66 16.98 -11 18 C-10.030625 18.309375 -9.06125 18.61875 -8.0625 18.9375 C-5 20 -5 20 -4 21 C-2.48530552 21.23192865 -0.96245438 21.41215238 0.5625 21.5625 C1.38878906 21.64628906 2.21507812 21.73007813 3.06640625 21.81640625 C4.02353516 21.90728516 4.02353516 21.90728516 5 22 C5 22.33 5 22.66 5 23 C-6.81139361 23.68804235 -6.81139361 23.68804235 -10.6875 21.25 C-13 19 -13 19 -13.97265625 17.203125 C-14 15 -14 15 -11.796875 12.34375 C-10.79345878 11.38291909 -9.7771606 10.43540432 -8.75 9.5 C-5.5607983 6.50655492 -2.49424324 3.62177786 0 0 Z " fill="#E43FA4" transform="translate(291,223)"/>
<path d="M0 0 C0.33 0.99 0.66 1.98 1 3 C-2.30277541 6.10199879 -5.10835372 8.65324867 -9.375 10.3125 C-13.91224998 12.4246681 -16.54575688 15.37171892 -19.88671875 19.0390625 C-22.02164786 21.02008729 -23.15945283 21.62809992 -26 22 C-24.57231766 20.3343706 -23.14297396 18.67077848 -21.703125 17.015625 C-20.61221052 15.72454272 -19.55581763 14.40298068 -18.546875 13.046875 C-15.3238716 8.83217825 -13.11802289 7.36695897 -7.8984375 6.45703125 C-4.9513499 5.7475472 -3.13744844 4.07267728 -1 2 C-0.67 1.34 -0.34 0.68 0 0 Z " fill="#FEE1FB" transform="translate(348,201)"/>
<path d="M0 0 C0.99 0.99 1.98 1.98 3 3 C-2.55035203 9.78376359 -8.76442027 15.85522968 -15 22 C-15 19 -15 19 -12.6875 16.5 C-11.19760793 15.11405389 -9.70258904 13.73335569 -8.1875 12.375 C-6.67319006 10.92438937 -6.67319006 10.92438937 -7 8 C-4.625 4.8125 -4.625 4.8125 -2 2 C-1.34 2 -0.68 2 0 2 C0 1.34 0 0.68 0 0 Z " fill="#EC34A6" transform="translate(330,208)"/>
<path d="M0 0 C-1 2 -1 2 -2.890625 2.640625 C-3.66921875 2.84171875 -4.4478125 3.0428125 -5.25 3.25 C-8.89659826 4.45390086 -11.81626491 5.64374 -14.203125 8.83984375 C-16.07674558 13.91882502 -15.32786446 19.68130991 -15 25 C-17.16335785 23.268163 -17.93334004 22.3438543 -18.46875 19.58203125 C-18.54429484 12.88687023 -17.80669886 7.92747019 -13 3 C-8.55490552 0.41376321 -5.11296641 -0.37411949 0 0 Z " fill="#FEF7CA" transform="translate(67,241)"/>
<path d="M0 0 C4.68187876 1.31981745 8.00374921 3.19795672 11.875 6.125 C13.32519531 7.21167969 13.32519531 7.21167969 14.8046875 8.3203125 C15.89136719 9.15175781 15.89136719 9.15175781 17 10 C16.360625 10.12375 15.72125 10.2475 15.0625 10.375 C14.381875 10.58125 13.70125 10.7875 13 11 C12.67 11.66 12.34 12.32 12 13 C10 12 10 12 8 9 C8.33 8.34 8.66 7.68 9 7 C8.34 7 7.68 7 7 7 C6.67 6.34 6.34 5.68 6 5 C5.01 4.67 4.02 4.34 3 4 C3 4.66 3 5.32 3 6 C1.35 5.67 -0.3 5.34 -2 5 C-1.67 4.360625 -1.34 3.72125 -1 3.0625 C0.07271225 1.23205433 0.07271225 1.23205433 0 0 Z " fill="#A33EEA" transform="translate(121,122)"/>
<path d="M0 0 C0 0.66 0 1.32 0 2 C-1.32 2 -2.64 2 -4 2 C-4.33 2.99 -4.66 3.98 -5 5 C-12.65083958 6.24911667 -20.27440986 6.09053426 -28 6 C-28.33 5.34 -28.66 4.68 -29 4 C-27.88882812 3.96261719 -26.77765625 3.92523438 -25.6328125 3.88671875 C-18.04037085 3.57175405 -11.00927427 3.21087191 -3.78515625 0.62109375 C-2 0 -2 0 0 0 Z " fill="#D5F2FE" transform="translate(314,279)"/>
<path d="M0 0 C0 3.14213983 -0.33280556 5.93090555 -1 9 C-1.99 9.495 -1.99 9.495 -3 10 C-3.391875 10.721875 -3.78375 11.44375 -4.1875 12.1875 C-6.24062212 15.37337915 -8.54048671 17.32034697 -11.4765625 19.66796875 C-13.12972374 20.94364001 -13.12972374 20.94364001 -14 23 C-17.0625 23.625 -17.0625 23.625 -20 24 C-19.34 23.484375 -18.68 22.96875 -18 22.4375 C-17.01 21.633125 -16.02 20.82875 -15 20 C-14.34902344 19.51402344 -13.69804687 19.02804688 -13.02734375 18.52734375 C-8.09180151 14.62503652 -5.79757624 11.23726389 -3.88671875 5.234375 C-2.94368163 2.85808764 -1.9180845 1.654818 0 0 Z " fill="#2D7DD1" transform="translate(325,235)"/>
<path d="M0 0 C0.33 0.66 0.66 1.32 1 2 C-1.17508418 6.69360269 -1.17508418 6.69360269 -4.1875 7.8125 C-4.785625 7.874375 -5.38375 7.93625 -6 8 C-6 8.99 -6 9.98 -6 11 C-6.61875 11.061875 -7.2375 11.12375 -7.875 11.1875 C-8.57625 11.455625 -9.2775 11.72375 -10 12 C-10.268125 12.721875 -10.53625 13.44375 -10.8125 14.1875 C-12.52613611 18.24611185 -15.57991248 20.33891586 -19 23 C-19.66 22.67 -20.32 22.34 -21 22 C-20.43152344 21.443125 -19.86304688 20.88625 -19.27734375 20.3125 C-14.85890196 15.94569275 -10.61905057 11.5111312 -6.57421875 6.796875 C-4.48662489 4.41401353 -2.27363401 2.20473601 0 0 Z " fill="#F1983A" transform="translate(285,174)"/>
<path d="M0 0 C0.33 0.99 0.66 1.98 1 3 C-0.328125 4.9375 -0.328125 4.9375 -2.25 7 C-2.87390625 7.680625 -3.4978125 8.36125 -4.140625 9.0625 C-5.28815579 10.25824637 -6.46105153 11.43088928 -7.671875 12.5625 C-9.2545104 14.07766607 -9.2545104 14.07766607 -10 17 C-11.98 17.33 -13.96 17.66 -16 18 C-10.81643758 11.86157082 -5.42287737 5.92658337 0 0 Z " fill="#FEEDCF" transform="translate(310,179)"/>
<path d="M0 0 C1.11177467 0.88637378 2.21406614 1.7846465 3.3125 2.6875 C4.23482422 3.43580078 4.23482422 3.43580078 5.17578125 4.19921875 C7.26715543 6.26372303 8.58142148 8.43782894 10 11 C-0.73623447 11.7920173 -7.65048996 10.84997276 -17 5 C-15 4 -15 4 -11.875 4.9375 C-10.92625 5.288125 -9.9775 5.63875 -9 6 C-9 6.66 -9 7.32 -9 8 C-8.195625 7.979375 -7.39125 7.95875 -6.5625 7.9375 C-4 8 -4 8 -3 9 C-1.31816052 9.23287008 0.3712416 9.41264166 2.0625 9.5625 C2.98160156 9.64628906 3.90070313 9.73007812 4.84765625 9.81640625 C5.55792969 9.87699219 6.26820313 9.93757813 7 10 C6.4946875 9.44570313 5.989375 8.89140625 5.46875 8.3203125 C4.8190625 7.59585937 4.169375 6.87140625 3.5 6.125 C2.8503125 5.40570313 2.200625 4.68640625 1.53125 3.9453125 C0 2 0 2 0 0 Z " fill="#A34BDF" transform="translate(235,261)"/>
<path d="M0 0 C0.33 0.99 0.66 1.98 1 3 C0.360625 3.2475 -0.27875 3.495 -0.9375 3.75 C-3.18741541 4.81562433 -3.18741541 4.81562433 -3.75 7.125 C-3.8325 7.74375 -3.915 8.3625 -4 9 C-4.66 9 -5.32 9 -6 9 C-6 9.99 -6 10.98 -6 12 C-6.99 12 -7.98 12 -9 12 C-9.33 14.64 -9.66 17.28 -10 20 C-11.65 20.66 -13.3 21.32 -15 22 C-14.02365547 20.04731094 -13.04586014 18.09564111 -12.05859375 16.1484375 C-11.22731337 14.46133709 -10.47337707 12.73610497 -9.75 11 C-7.20515943 6.63741617 -3.66827044 3.43301319 0 0 Z " fill="#FDF3C1" transform="translate(91,248)"/>
<path d="M0 0 C5.07241426 0.11272032 7.96509053 0.77472026 11.75 4.375 C15.68646622 9.2493077 16.18191254 13.22024631 15.75 19.375 C15.42 19.375 15.09 19.375 14.75 19.375 C13.55712589 15.49815913 12.75 12.45878077 12.75 8.375 C12.09 8.375 11.43 8.375 10.75 8.375 C10.564375 7.75625 10.37875 7.1375 10.1875 6.5 C8.43285568 3.90617796 6.83044585 3.39988571 3.8359375 2.6796875 C0.14326456 2.14030831 -3.52942817 2.22313993 -7.25 2.375 C-4.68599223 -0.18900777 -3.56217985 0.04866366 0 0 Z " fill="#2577D0" transform="translate(334.25,232.625)"/>
<path d="M0 0 C1.24546405 2.49092811 0.7767578 3.41080733 0 6 C-1.32 6 -2.64 6 -4 6 C-4.0825 6.556875 -4.165 7.11375 -4.25 7.6875 C-5.22610013 10.69714206 -6.95188814 12.62154752 -9 15 C-10.32 14.34 -11.64 13.68 -13 13 C-8.71 8.71 -4.42 4.42 0 0 Z " fill="#37AEF2" transform="translate(84,168)"/>
<path d="M0 0 C15.20588235 12.61764706 15.20588235 12.61764706 17 18 C16.34 18 15.68 18 15 18 C14.67 17.34 14.34 16.68 14 16 C11.97536745 15.34786708 11.97536745 15.34786708 10 15 C10 14.01 10 13.02 10 12 C8.68 11.67 7.36 11.34 6 11 C6.66 11 7.32 11 8 11 C5.96196629 7.93801079 5.96196629 7.93801079 2.875 6.0625 C1 5 1 5 0.25 2.375 C0.1675 1.59125 0.085 0.8075 0 0 Z " fill="#A445E7" transform="translate(138,133)"/>
<path d="M0 0 C0.33 0.99 0.66 1.98 1 3 C0.01 3.33 -0.98 3.66 -2 4 C-2 5.98 -2 7.96 -2 10 C-3.423125 10.4021875 -3.423125 10.4021875 -4.875 10.8125 C-8.25267273 11.74986588 -8.25267273 11.74986588 -10 15 C-10.99 14.67 -11.98 14.34 -13 14 C-12.39671875 13.40832031 -11.7934375 12.81664062 -11.171875 12.20703125 C-5.26989543 6.38766162 -5.26989543 6.38766162 0 0 Z " fill="#F4BE30" transform="translate(79,228)"/>
<path d="M0 0 C3.66612063 1.58865227 5.19842851 3.2250917 6.875 6.9375 C8.22953708 9.42081799 9.97537408 11.03864364 12 13 C14 16 14 16 15 19 C14.67 19.66 14.34 20.32 14 21 C11.84791077 18.06703659 9.7044305 15.12788836 7.5625 12.1875 C6.95083984 11.35412109 6.33917969 10.52074219 5.70898438 9.66210938 C5.12568359 8.85966797 4.54238281 8.05722656 3.94140625 7.23046875 C3.40201416 6.49207764 2.86262207 5.75368652 2.30688477 4.99291992 C1 3 1 3 0 0 Z " fill="#1E78D2" transform="translate(176,159)"/>
<path d="M0 0 C4.66666667 4.66666667 9.33333333 9.33333333 14 14 C10.25 15.125 10.25 15.125 8 14 C7.690625 13.175 7.38125 12.35 7.0625 11.5 C6.711875 10.675 6.36125 9.85 6 9 C5.01 8.67 4.02 8.34 3 8 C1.76132839 5.38502661 0.91496017 2.74488051 0 0 Z " fill="#227AD6" transform="translate(252,230)"/>
<path d="M0 0 C0.66 0.33 1.32 0.66 2 1 C1.54625 1.391875 1.0925 1.78375 0.625 2.1875 C-1.27642919 4.30832487 -2.06204028 6.33042235 -3 9 C-3.66 9 -4.32 9 -5 9 C-5 11.31 -5 13.62 -5 16 C-6.32 16.33 -7.64 16.66 -9 17 C-7.48212853 9.51715992 -5.96931816 4.90810604 0 0 Z " fill="#EC9332" transform="translate(326,123)"/>
<path d="M0 0 C0.75 1.75 0.75 1.75 1 4 C-0.8125 6.25 -0.8125 6.25 -3 8 C-3.66 8 -4.32 8 -5 8 C-5.2475 8.639375 -5.495 9.27875 -5.75 9.9375 C-7 12 -7 12 -9.078125 12.62890625 C-10.02945312 12.81259766 -10.02945312 12.81259766 -11 13 C-7.61227103 8.30840284 -4.21814817 3.9700218 0 0 Z " fill="#FEEECF" transform="translate(293,197)"/>
<path d="M0 0 C0.33 0.99 0.66 1.98 1 3 C-0.36328125 5.0859375 -0.36328125 5.0859375 -2.3125 7.375 C-4.9415815 10.4787027 -6.65893161 13.14698116 -8 17 C-8.66 17 -9.32 17 -10 17 C-8.24757628 9.79002813 -5.20911427 5.23765736 0 0 Z " fill="#D5F9FE" transform="translate(89,194)"/>
<path d="M0 0 C2.31 0.33 4.62 0.66 7 1 C5.16763683 3.58196629 3.68436519 4.84215448 0.578125 5.55859375 C-1.99512903 5.85979834 -4.41109439 6.13530866 -7 6 C-7.66 5.34 -8.32 4.68 -9 4 C-6.36 4 -3.72 4 -1 4 C-0.67 2.68 -0.34 1.36 0 0 Z " fill="#A64CE5" transform="translate(69,155)"/>
<path d="M0 0 C0 0.99 0 1.98 0 3 C-3.52679099 5.35119399 -5.02879485 5.21443452 -9.1875 5.125 C-10.27417969 5.10695313 -11.36085938 5.08890625 -12.48046875 5.0703125 C-13.72763672 5.03550781 -13.72763672 5.03550781 -15 5 C-15.33 4.01 -15.66 3.02 -16 2 C-14.77023438 2.03480469 -14.77023438 2.03480469 -13.515625 2.0703125 C-12.43796875 2.08835937 -11.3603125 2.10640625 -10.25 2.125 C-9.18265625 2.14820313 -8.1153125 2.17140625 -7.015625 2.1953125 C-4.07529894 2.00487687 -2.47638122 1.52670104 0 0 Z " fill="#FDF1B5" transform="translate(75,270)"/>
<path d="M0 0 C0 2.83967231 -0.40267181 5.23735711 -1 8 C-1.33 8 -1.66 8 -2 8 C-1.67 11.96 -1.34 15.92 -1 20 C-4.47293842 16.52706158 -4.43164392 15.8215752 -4.4375 11.125 C-4.35249857 6.99493058 -4.20541247 5.33379526 -2 1.75 C-1.01 0.88375 -1.01 0.88375 0 0 Z " fill="#F0BB32" transform="translate(55,247)"/>
<path d="M0 0 C0.75 1.75 0.75 1.75 1 4 C-1.31787009 7.00464642 -3.2273236 8.46104623 -7 9 C-7 9.66 -7 10.32 -7 11 C-7.66 10.67 -8.32 10.34 -9 10 C-7.8758824 8.70756532 -6.75067408 7.41607925 -5.625 6.125 C-4.99851562 5.40570313 -4.37203125 4.68640625 -3.7265625 3.9453125 C-2.52573166 2.5923402 -1.2791655 1.2791655 0 0 Z " fill="#FEF6CA" transform="translate(116,221)"/>
<path d="M0 0 C0 3.48354205 -0.45035158 3.88427053 -2.6875 6.375 C-3.23019531 6.98214844 -3.77289063 7.58929688 -4.33203125 8.21484375 C-6.50166024 10.53690569 -8.71954485 12.78661706 -11 15 C-11.66 14.67 -12.32 14.34 -13 14 C-11.2088872 12.04115757 -9.41713468 10.08290714 -7.625 8.125 C-7.11710937 7.56941406 -6.60921875 7.01382813 -6.0859375 6.44140625 C-4.0883974 4.25988219 -2.09183907 2.09183907 0 0 Z " fill="#E33CA2" transform="translate(314,199)"/>
<path d="M0 0 C4.54075781 4.14010271 7.71842138 8.82390176 11 14 C10.67 14.66 10.34 15.32 10 16 C9.34 14.68 8.68 13.36 8 12 C7.34 12 6.68 12 6 12 C6 11.01 6 10.02 6 9 C5.01 9 4.02 9 3 9 C2.67 7.68 2.34 6.36 2 5 C1.34 5 0.68 5 0 5 C0 3.35 0 1.7 0 0 Z " fill="#A346E2" transform="translate(179,183)"/>
<path d="M0 0 C0.66 0 1.32 0 2 0 C2.33 0.99 2.66 1.98 3 3 C0.36 5.64 -2.28 8.28 -5 11 C-5.99 10.67 -6.98 10.34 -8 10 C-7.25943359 9.29423828 -7.25943359 9.29423828 -6.50390625 8.57421875 C-5.86324219 7.95160156 -5.22257813 7.32898438 -4.5625 6.6875 C-3.92441406 6.07261719 -3.28632813 5.45773438 -2.62890625 4.82421875 C-0.7778582 2.99355944 -0.7778582 2.99355944 0 0 Z " fill="#FEF8D7" transform="translate(144,189)"/>
<path d="M0 0 C2.5625 2.25 2.5625 2.25 5 5 C5.0625 7.125 5.0625 7.125 4 9 C1.9375 10.75 1.9375 10.75 0 12 C0.2784375 10.9790625 0.2784375 10.9790625 0.5625 9.9375 C1.08523943 6.42767809 0.61378577 3.47811937 0 0 Z " fill="#F1BA27" transform="translate(139,184)"/>
<path d="M0 0 C1.65 0 3.3 0 5 0 C5.33 0.99 5.66 1.98 6 3 C6.66 3.33 7.32 3.66 8 4 C8 5.98 8 7.96 8 10 C4.71211176 6.88983545 2.16264012 3.98381075 0 0 Z " fill="#1A75D9" transform="translate(157,135)"/>
<path d="M0 0 C1.32 0 2.64 0 4 0 C4.33 1.32 4.66 2.64 5 4 C5.66 4 6.32 4 7 4 C7 3.34 7 2.68 7 2 C7.66 2 8.32 2 9 2 C9 4.31 9 6.62 9 9 C6.95880212 7.38405168 4.95927063 5.7143618 3 4 C3 3.34 3 2.68 3 2 C2.01 2.33 1.02 2.66 0 3 C0 2.01 0 1.02 0 0 Z " fill="#FEF9DB" transform="translate(129,172)"/>
<path d="M0 0 C1 3 1 3 0 6 C-0.99 6.495 -0.99 6.495 -2 7 C-2.72693904 8.97888961 -3.39816251 10.97954558 -4 13 C-4.99 13 -5.98 13 -7 13 C-6.02325896 11.01963514 -5.04354018 9.04073867 -4.0625 7.0625 C-3.51722656 5.96035156 -2.97195313 4.85820312 -2.41015625 3.72265625 C-1 1 -1 1 0 0 Z " fill="#E64CA8" transform="translate(324,182)"/>
<path d="M0 0 C0.66 0.33 1.32 0.66 2 1 C1.01 2.485 1.01 2.485 0 4 C-0.99 4 -1.98 4 -3 4 C-3 4.66 -3 5.32 -3 6 C-5.75 8.1875 -5.75 8.1875 -9 10 C-11.203125 9.61328125 -11.203125 9.61328125 -13 9 C-12.22914063 8.51789063 -11.45828125 8.03578125 -10.6640625 7.5390625 C-9.66117187 6.90742188 -8.65828125 6.27578125 -7.625 5.625 C-6.62726563 4.99851562 -5.62953125 4.37203125 -4.6015625 3.7265625 C-1.9751981 2.10730288 -1.9751981 2.10730288 0 0 Z " fill="#D8F5FE" transform="translate(327,269)"/>
<path d="M0 0 C0 3.14213983 -0.33280556 5.93090555 -1 9 C-1.99 9.495 -1.99 9.495 -3 10 C-3.66 10.99 -4.32 11.98 -5 13 C-5.50477602 7.69985182 -4.20817314 5.18034682 -1 1 C-0.67 0.67 -0.34 0.34 0 0 Z " fill="#1C77D2" transform="translate(325,235)"/>
<path d="M0 0 C0.33 0.66 0.66 1.32 1 2 C-0.92333011 6.06036357 -3.40069448 8.37347975 -7 11 C-7.66 10.67 -8.32 10.34 -9 10 C-6.03 6.7 -3.06 3.4 0 0 Z " fill="#FEF1D1" transform="translate(279,212)"/>
<path d="M0 0 C0.99 0.33 1.98 0.66 3 1 C2.16855469 1.81404297 2.16855469 1.81404297 1.3203125 2.64453125 C0.23363281 3.71767578 0.23363281 3.71767578 -0.875 4.8125 C-1.59429687 5.52019531 -2.31359375 6.22789062 -3.0546875 6.95703125 C-5.15358937 9.04399194 -5.15358937 9.04399194 -7 12 C-6.44893487 8.6936092 -5.90012129 5.80017874 -4 3 C-1.875 2.25 -1.875 2.25 0 2 C0 1.34 0 0.68 0 0 Z " fill="#FEF2CF" transform="translate(257,201)"/>
<path d="M0 0 C0.33 0.99 0.66 1.98 1 3 C-0.21484375 4.82421875 -0.21484375 4.82421875 -1.9375 6.6875 C-2.50339844 7.31011719 -3.06929688 7.93273437 -3.65234375 8.57421875 C-4.09707031 9.04472656 -4.54179688 9.51523438 -5 10 C-5.99 9.67 -6.98 9.34 -8 9 C-6.85459775 7.68712379 -5.70866567 6.37470979 -4.5625 5.0625 C-3.92441406 4.33160156 -3.28632812 3.60070312 -2.62890625 2.84765625 C-1.77458541 1.87860647 -0.91348825 0.91348825 0 0 Z " fill="#F7BE38" transform="translate(111,194)"/>
<path d="M0 0 C2 0 2 0 4 1.5625 C6.45398948 4.55329967 7.13775327 7.26359752 8 11 C8.66 11 9.32 11 10 11 C9.67 11.99 9.34 12.98 9 14 C7.6827656 12.23268551 6.37136412 10.46102239 5.0625 8.6875 C4.33160156 7.70136719 3.60070312 6.71523437 2.84765625 5.69921875 C1 3 1 3 0 0 Z " fill="#1D75CE" transform="translate(199,192)"/>
<path d="M0 0 C0 4.70031035 -2.89257072 7.63058605 -6 11 C-8.875 12.5 -8.875 12.5 -11 13 C-9.43638038 9.16202456 -6.97489917 6.8332373 -4 4 C-3.236875 3.236875 -2.47375 2.47375 -1.6875 1.6875 C-1.130625 1.130625 -0.57375 0.57375 0 0 Z " fill="#EF9537" transform="translate(306,151)"/>
<path d="M0 0 C0.33 1.32 0.66 2.64 1 4 C-1.4375 6.75 -1.4375 6.75 -4 9 C-4.99 8.67 -5.98 8.34 -7 8 C-4.69 5.36 -2.38 2.72 0 0 Z " fill="#F09229" transform="translate(316,140)"/>
<path d="M0 0 C1.65 0 3.3 0 5 0 C6.125 2.3125 6.125 2.3125 7 5 C6.01 6.485 6.01 6.485 5 8 C4.16382818 6.8562364 3.33113541 5.70992861 2.5 4.5625 C2.0359375 3.92441406 1.571875 3.28632813 1.09375 2.62890625 C0 1 0 1 0 0 Z " fill="#1577D9" transform="translate(223,227)"/>
<path d="M0 0 C3.85645121 -0.22036864 6.49223216 0.39644899 10 2 C10 1.34 10 0.68 10 0 C11.98 0 13.96 0 16 0 C13.26267602 2.73732398 11.39491957 2.97127858 7.5625 3.25 C3.86440936 2.99048487 2.61659303 2.5119293 0 0 Z " fill="#44AFEA" transform="translate(58,215)"/>
<path d="M0 0 C0.99 0.33 1.98 0.66 3 1 C0.69 3.64 -1.62 6.28 -4 9 C-5.33332095 6.3333581 -4.67102033 4.83319697 -4 2 C-2.68 2 -1.36 2 0 2 C0 1.34 0 0.68 0 0 Z " fill="#35ABEC" transform="translate(89,191)"/>
<path d="M0 0 C3 1 3 1 4.6875 3.625 C6.12813149 7.32948098 6.23634374 10.06093765 6 14 C5.67 14 5.34 14 5 14 C4.71125 12.88625 4.4225 11.7725 4.125 10.625 C3.30758671 6.99708908 3.30758671 6.99708908 1 5 C0.375 2.375 0.375 2.375 0 0 Z " fill="#E440A1" transform="translate(344,183)"/>
<path d="M0 0 C0 3.49889647 -0.54120332 4.0553603 -2.75 6.625 C-3.26046875 7.23601562 -3.7709375 7.84703125 -4.296875 8.4765625 C-6.19607419 10.17538747 -7.51275949 10.5998787 -10 11 C-6.79239749 7.19364503 -3.59253891 3.45436433 0 0 Z " fill="#D9F9FE" transform="translate(100,183)"/>
<path d="M0 0 C0.66 0 1.32 0 2 0 C2.66 1.32 3.32 2.64 4 4 C3.401875 4.12375 2.80375 4.2475 2.1875 4.375 C-0.26231348 4.95475985 -0.26231348 4.95475985 -3 7 C-3.99 6.67 -4.98 6.34 -6 6 C-5.34 6 -4.68 6 -4 6 C-3.71125 5.38125 -3.4225 4.7625 -3.125 4.125 C-2 2 -2 2 0 0 Z " fill="#F2BD35" transform="translate(130,174)"/>
<path d="M0 0 C3.78611227 0.54087318 5.55400767 2.11722332 8 5 C8 5.66 8 6.32 8 7 C8.99 7.33 9.98 7.66 11 8 C10.67 8.99 10.34 9.98 10 11 C8.33035479 9.35718838 6.6643536 7.71067239 5 6.0625 C4.071875 5.14597656 3.14375 4.22945312 2.1875 3.28515625 C0 1 0 1 0 0 Z " fill="#FBE0FF" transform="translate(139,133)"/>
<path d="M0 0 C0.33 0.66 0.66 1.32 1 2 C-1 5 -1 5 -3.27734375 5.73046875 C-4.59412109 5.95669922 -4.59412109 5.95669922 -5.9375 6.1875 C-6.81277344 6.34605469 -7.68804687 6.50460937 -8.58984375 6.66796875 C-11 7 -11 7 -14 7 C-11.52786546 4.52786546 -9.30417912 4.33049526 -5.9765625 3.57421875 C-3.53088335 2.86371512 -1.86850723 1.71279829 0 0 Z " fill="#D5F4FE" transform="translate(346,258)"/>
<path d="M0 0 C0.33 0 0.66 0 1 0 C1.03738281 0.58007812 1.07476562 1.16015625 1.11328125 1.7578125 C1.53903667 6.81678864 2.37138991 10.54279158 5 15 C4.34 15 3.68 15 3 15 C3 14.34 3 13.68 3 13 C1.68 13 0.36 13 -1 13 C-0.67 8.71 -0.34 4.42 0 0 Z " fill="#C5F1FE" transform="translate(50,199)"/>
<path d="M0 0 C0.33 0.99 0.66 1.98 1 3 C-3.26311718 7.12989477 -6.28758534 7.61271765 -12 8 C-11.67 7.34 -11.34 6.68 -11 6 C-9.700625 5.87625 -8.40125 5.7525 -7.0625 5.625 C-4.91410565 5.46232767 -4.91410565 5.46232767 -3 5 C-1.47154805 3.11399607 -1.47154805 3.11399607 -1 1 C-0.67 0.67 -0.34 0.34 0 0 Z " fill="#46AEEB" transform="translate(70,182)"/>
<path d="M0 0 C2.4375 0.375 2.4375 0.375 5 1 C5.33 1.66 5.66 2.32 6 3 C8.52733235 3.65555119 8.52733235 3.65555119 11 4 C11 4.99 11 5.98 11 7 C6.00724943 5.72278474 3.42388092 3.82669043 0 0 Z " fill="#D7F2FD" transform="translate(274,251)"/>
<path d="M0 0 C0.33 1.32 0.66 2.64 1 4 C-1.4375 6.75 -1.4375 6.75 -4 9 C-4.99 8.67 -5.98 8.34 -7 8 C-4.69 5.36 -2.38 2.72 0 0 Z " fill="#FEF3CC" transform="translate(99,239)"/>
<path d="M0 0 C0.33 0.99 0.66 1.98 1 3 C-0.98 4.98 -2.96 6.96 -5 9 C-5.99 8.67 -6.98 8.34 -8 8 C-5.36 5.36 -2.72 2.72 0 0 Z " fill="#FFD7F6" transform="translate(316,228)"/>
<path d="M0 0 C0 3.21534057 -0.26476072 4.35582586 -2 7 C-4.5 8.8125 -4.5 8.8125 -7 10 C-7.66 9.67 -8.32 9.34 -9 9 C-6.03 6.03 -3.06 3.06 0 0 Z " fill="#F3C037" transform="translate(89,218)"/>
<path d="M0 0 C1.65 0 3.3 0 5 0 C5 1.98 5 3.96 5 6 C3.0625 5.25 3.0625 5.25 1 4 C0.25 1.875 0.25 1.875 0 0 Z " fill="#0774DB" transform="translate(153,129)"/>
<path d="M0 0 C4.00972202 3.67557852 6.45335415 7.18966896 9 12 C8.34 12 7.68 12 7 12 C5.78125 10.50390625 5.78125 10.50390625 4.5 8.5625 C2.7134637 5.77468153 2.7134637 5.77468153 0 4 C0 2.68 0 1.36 0 0 Z " fill="#2479CF" transform="translate(233,205)"/>
<path d="M0 0 C1.65 0 3.3 0 5 0 C3.08864614 3.53600465 1.37357234 5.78972846 -2 8 C-1.34 5.36 -0.68 2.72 0 0 Z " fill="#3EACEE" transform="translate(98,179)"/>
<path d="M0 0 C5.80205656 5.64524422 5.80205656 5.64524422 8 9 C8 9.66 8 10.32 8 11 C7.34 11 6.68 11 6 11 C5.731875 10.195625 5.46375 9.39125 5.1875 8.5625 C4.795625 7.716875 4.40375 6.87125 4 6 C3.01 5.67 2.02 5.34 1 5 C0.67 3.35 0.34 1.7 0 0 Z " fill="#D4F2FD" transform="translate(219,223)"/>
<path d="M0 0 C0.8125 1.625 0.8125 1.625 1 4 C-1.3125 7.25 -1.3125 7.25 -4 10 C-4.66 10 -5.32 10 -6 10 C-6 9.34 -6 8.68 -6 8 C-5.34 8 -4.68 8 -4 8 C-4 7.01 -4 6.02 -4 5 C-3.01 5 -2.02 5 -1 5 C-0.67 3.35 -0.34 1.7 0 0 Z " fill="#E53AA3" transform="translate(348,197)"/>
<path d="M0 0 C2.66666667 2.66666667 5.33333333 5.33333333 8 8 C7.67 8.66 7.34 9.32 7 10 C6.566875 9.525625 6.13375 9.05125 5.6875 8.5625 C3.97690387 6.76313043 3.97690387 6.76313043 1 6 C0.67 4.02 0.34 2.04 0 0 Z " fill="#A347E3" transform="translate(155,151)"/>
<path d="M0 0 C1.12894876 0.93274109 2.25300876 1.87140122 3.375 2.8125 C4.00148437 3.33457031 4.62796875 3.85664063 5.2734375 4.39453125 C7 6 7 6 9 9 C7.66666667 8.33333333 6.33333333 7.66666667 5 7 C3.9171875 6.5978125 3.9171875 6.5978125 2.8125 6.1875 C1 5 1 5 0.25 2.375 C0.1675 1.59125 0.085 0.8075 0 0 Z " fill="#9E42DE" transform="translate(138,133)"/>
<path d="M0 0 C0.99 0 1.98 0 3 0 C3 0.66 3 1.32 3 2 C3.99 2.33 4.98 2.66 6 3 C6 3.66 6 4.32 6 5 C6.66 5 7.32 5 8 5 C8.33 6.32 8.66 7.64 9 9 C7.87105124 8.06725891 6.74699124 7.12859878 5.625 6.1875 C4.99851562 5.66542969 4.37203125 5.14335937 3.7265625 4.60546875 C2 3 2 3 0 0 Z " fill="#E4FBFE" transform="translate(258,236)"/>
<path d="M0 0 C0.99 0.33 1.98 0.66 3 1 C2.67 1.99 2.34 2.98 2 4 C0.02 4.33 -1.96 4.66 -4 5 C-2.68 3.35 -1.36 1.7 0 0 Z " fill="#FEF3DC" transform="translate(298,192)"/>
<path d="M0 0 C1.24546405 2.49092811 0.7767578 3.41080733 0 6 C-2.31 6.66 -4.62 7.32 -7 8 C-6.02133662 6.85373678 -5.04205413 5.70800212 -4.0625 4.5625 C-3.51722656 3.92441406 -2.97195312 3.28632813 -2.41015625 2.62890625 C-1.63204305 1.73008851 -0.84063472 0.84063472 0 0 Z " fill="#43ABE7" transform="translate(84,168)"/>
<path d="M0 0 C0.33 0.66 0.66 1.32 1 2 C-0.25 4.5625 -0.25 4.5625 -2 7 C-2.99 7.33 -3.98 7.66 -5 8 C-4.45773019 4.20411134 -2.79872437 2.52788007 0 0 Z " fill="#EE8C1F" transform="translate(285,174)"/>
<path d="M0 0 C3.14027363 0.33645789 4.05098295 1.05236086 6.3125 3.375 C6.869375 4.24125 7.42625 5.1075 8 6 C7.67 6.99 7.34 7.98 7 9 C5.83037314 7.69013727 4.66437056 6.3770374 3.5 5.0625 C2.8503125 4.33160156 2.200625 3.60070312 1.53125 2.84765625 C0 1 0 1 0 0 Z " fill="#A648E7" transform="translate(134,160)"/>
<path d="M0 0 C-2.55068845 2.35448165 -3.71017358 2.98327924 -7.25 3.1875 C-8.1575 3.125625 -9.065 3.06375 -10 3 C-8.0130571 -0.97388579 -3.91761109 -0.08705802 0 0 Z " fill="#1F76CD" transform="translate(344,260)"/>
<path d="M0 0 C1.65 0.33 3.3 0.66 5 1 C3.25 4.875 3.25 4.875 1 6 C1 5.01 1 4.02 1 3 C0.34 3 -0.32 3 -1 3 C-0.67 2.01 -0.34 1.02 0 0 Z " fill="#F6BB21" transform="translate(91,241)"/>
<path d="M0 0 C0.66 0 1.32 0 2 0 C2.268125 0.598125 2.53625 1.19625 2.8125 1.8125 C3.98493467 3.97224808 5.19369282 5.35790256 7 7 C6.67 7.99 6.34 8.98 6 10 C4.99421411 8.71283353 3.99553202 7.42011342 3 6.125 C2.443125 5.40570313 1.88625 4.68640625 1.3125 3.9453125 C0 2 0 2 0 0 Z " fill="#A149DF" transform="translate(176,215)"/>
<path d="M0 0 C0.33 0.99 0.66 1.98 1 3 C-1.06756277 5.7972908 -2.14440371 6.02692273 -5.6875 6.6875 C-6.780625 6.790625 -7.87375 6.89375 -9 7 C-6 5 -6 5 -3.375 4.0625 C-2.59125 3.711875 -1.8075 3.36125 -1 3 C-0.67 2.01 -0.34 1.02 0 0 Z " fill="#D0F4FD" transform="translate(78,211)"/>
<path d="M0 0 C-1.49097658 3.7952131 -3.75700849 5.61042731 -7 8 C-7.66 7.67 -8.32 7.34 -9 7 C-7.88121617 5.82737096 -6.75476949 4.66204862 -5.625 3.5 C-4.68527344 2.52546875 -4.68527344 2.52546875 -3.7265625 1.53125 C-2 0 -2 0 0 0 Z " fill="#EE942C" transform="translate(273,189)"/>
<path d="M0 0 C4.875 4.75 4.875 4.75 6 7 C5.01 7.33 4.02 7.66 3 8 C0.4345406 5.4345406 0.45953913 3.52313332 0 0 Z " fill="#DDF5FE" transform="translate(235,244)"/>
<path d="M0 0 C0 3.57575896 -1.08840607 5.05295935 -3 8 C-4.32 7.67 -5.64 7.34 -7 7 C-4.69 4.69 -2.38 2.38 0 0 Z " fill="#EB9231" transform="translate(260,201)"/>
<path d="M0 0 C-3.50538557 1.96301592 -7.13351728 2.95902388 -11 4 C-10.67 3.01 -10.34 2.02 -10 1 C-6.52674819 -0.1577506 -3.63932552 -0.06866652 0 0 Z " fill="#CEF4FD" transform="translate(67,186)"/>
<path d="M0 0 C2.0625 0.4375 2.0625 0.4375 4 1 C2.25 5.875 2.25 5.875 0 7 C-0.38133299 5.0085944 -0.71325582 3.00720923 -1 1 C-0.67 0.67 -0.34 0.34 0 0 Z " fill="#F08D19" transform="translate(300,183)"/>
<path d="M0 0 C0.66 0.99 1.32 1.98 2 3 C0.35 4.32 -1.3 5.64 -3 7 C-3.66 6.67 -4.32 6.34 -5 6 C-3.35 4.02 -1.7 2.04 0 0 Z " fill="#D9F6FE" transform="translate(106,176)"/>
<path d="M0 0 C0.99 0.33 1.98 0.66 3 1 C-0.465 3.97 -0.465 3.97 -4 7 C-4 5.68 -4 4.36 -4 3 C-2.68 2.67 -1.36 2.34 0 2 C0 1.34 0 0.68 0 0 Z " fill="#3DABE3" transform="translate(109,170)"/>
<path d="M0 0 C1.125 3.75 1.125 3.75 0 6 C-0.66 6 -1.32 6 -2 6 C-2 5.34 -2 4.68 -2 4 C-2.99 4 -3.98 4 -5 4 C-4.67 3.01 -4.34 2.02 -4 1 C-3.67 1.66 -3.34 2.32 -3 3 C-2.34 3 -1.68 3 -1 3 C-0.67 2.01 -0.34 1.02 0 0 Z " fill="#2BACF2" transform="translate(115,162)"/>
<path d="M0 0 C0.99 0.33 1.98 0.66 3 1 C0.03 3.475 0.03 3.475 -3 6 C-3.66 5.67 -4.32 5.34 -5 5 C-3.35 3.35 -1.7 1.7 0 0 Z " fill="#FEF3DC" transform="translate(316,173)"/>
</svg>
